<svg xmlns="http://www.w3.org/2000/svg" viewBox="0 0 322.03 62.88" fill="#e30613"><path d="M62.39 13.44v9.44h-4.88v3.6h4.88v35.59h8.32V26.48h8.32v-3.6h-8.32V9.52c0-6.08 3.68-8.16 7.52-8.64V.16C69.59.88 62.39 4 62.39 13.44z"/><path d="M81.59 2.56c-2.16 0-3.92 1.52-3.92 3.76s1.76 3.84 3.92 3.84 4-1.52 4-3.84-1.84-3.76-4-3.76zm240.44 55.27c0-3.12-2.24-5.04-5.04-5.04s-5.04 2-5.04 5.12 2.24 4.96 5.04 4.96 5.04-1.92 5.04-5.04zm-208.05-20c.08-.56.16-1.44.16-2.08.08-9.36-5.84-13.6-14.4-13.6-3.44 0-7.12 1.36-10.24 3.36-4.72 3.12-9.12 9.28-9.12 18.48 0 11.84 8.08 18.88 17.76 18.88 7.52 0 12-2.16 14.72-5.28.24-.88 1.04-4.4 1.12-5.12-1.76 1.68-6.4 3.68-12.16 3.68-8.16 0-13.04-5.28-13.04-14.64 0-1.28.08-2.56.16-3.68h25.04zM97.99 23.84c5.92.08 8.16 3.2 8.16 11.36l-17.04 1.12c1.28-8.64 5.68-12.32 8.88-12.48zm206.52 33.99c0-3.12-2.24-5.04-5.04-5.04s-5.04 2-5.04 5.12 2.24 4.96 5.04 4.96 5.04-1.92 5.04-5.04zM47.83 7.36c-2.8 0-4.96 2-4.96 4.56s2.08 4.48 4.96 4.48 4.88-2 4.88-4.56-2-4.48-4.88-4.48zm-4.16 54.71h8.32V22.32l-8.32 1.12v38.63zM0 2.08v59.99h37.28l.4-5.84-28.16 3.12V2.08H0zm284.83 4.08l3.04 7.52h1.12l2.88-7.52h.16l.24 7.52h1.92l-.4-9.6h-2.08l-2.72 7.04h-.16l-2.8-7.04h-2.08l-.4 9.6h1.2V6.16h.08zm-6.95 51.75c0 3.12 2.24 4.96 5.04 4.96s5.04-1.92 5.04-5.04-2.24-5.04-5.04-5.04-5.04 2-5.04 5.12zM273.64 4l-.08 1.36 3.6-.64v8.96h1.92V4.72l3.51.64.08-1.36-4.39.16-4.64-.16zM172.69 1.92v60.15h13.28V0l-13.28 1.92zM143.1 36.23l.24 1.2c12.24-.88 24.48-7.28 24.48-18.8 0-10.8-9.76-16.56-24.88-16.56H123.9v59.99h15.44V4.63c1.44.08 3.12.24 4.4.64 5.92 1.6 8.56 6 8.56 13.2 0 8.65-2.16 15.12-9.2 17.76zm113.26 24.56c-2.16 0-9.52-6.16-14.24-9.68l-1.28 9.52c4.16 1.28 10 2.24 14.4 2.24 4.8 0 8.24-1.68 10.96-3.6 2.88-2.16 5.52-6.72 5.52-10.56 0-8.48-4.08-10.16-11.52-14.08-5.04-2.72-8-4.08-8-7.92 0-2.88 2.4-4.64 4.88-4.8 1.68 0 7.2 5.2 11.36 8.8l1.92-8.96c-2.88-.88-7.12-1.92-11.92-1.92-4.4 0-7.68 1.28-10.48 2.88-3.04 1.68-6.64 5.04-6.64 10.72 0 7.92 4.72 10.08 11.28 13.68 6.24 3.44 8.48 4.8 8.48 8.64 0 2.96-2.24 4.8-4.72 5.04zm-60.79-38.71v28.88c0 7.92 4.48 11.92 11.44 11.92 4.48 0 6.72-1.44 8.88-3.28 1.84-1.44 3.36-3.12 5.04-5.68v8.72l13.28-2V20.16l-13.36 1.92v30.55c-1.92 1.36-3.68 1.92-5.52 1.92-4.4 0-6.4-1.68-6.4-6.48V20.16l-13.36 1.92z"/></svg>