<?xml version="1.0" encoding="UTF-8"?><svg id="a" xmlns="http://www.w3.org/2000/svg" viewBox="0 0 262.9 167.21"><defs><style>.b{fill:#e30613;}</style></defs><path class="b" d="M69.9,29.29c.05-.33,.09-.84,.09-1.21,.05-5.46-3.41-7.94-8.4-7.94-2.01,0-4.16,.79-5.98,1.96-2.75,1.82-5.32,5.42-5.32,10.79,0,6.91,4.72,11.02,10.37,11.02,4.39,0,7-1.26,8.59-3.08,.14-.51,.61-2.57,.65-2.99-1.03,.98-3.74,2.15-7.1,2.15-4.76,0-7.61-3.08-7.61-8.54,0-.75,.05-1.49,.09-2.15h14.61Zm-9.34-8.17c3.46,.05,4.76,1.87,4.76,6.63l-9.95,.65c.75-5.04,3.32-7.19,5.18-7.28Z"/><path class="b" d="M50.99,8.7c-1.26,0-2.29,.89-2.29,2.19s1.03,2.24,2.29,2.24,2.33-.89,2.33-2.24-1.07-2.19-2.33-2.19Z"/><polygon class="b" points="3.36 8.42 3.36 43.44 25.12 43.44 25.35 40.03 8.92 41.85 8.92 8.42 3.36 8.42"/><path class="b" d="M31.28,11.5c-1.63,0-2.89,1.17-2.89,2.66s1.21,2.61,2.89,2.61,2.85-1.17,2.85-2.66-1.17-2.61-2.85-2.61Z"/><polygon class="b" points="28.86 43.44 33.71 43.44 33.71 20.23 28.86 20.88 28.86 43.44"/><path class="b" d="M117.52,20.09v16.86c0,4.62,2.61,6.96,6.68,6.96,2.61,0,3.92-.84,5.18-1.91,1.07-.84,1.96-1.82,2.94-3.32v5.09l7.75-1.17V18.97l-7.8,1.12v17.84c-1.12,.79-2.15,1.12-3.22,1.12-2.57,0-3.74-.98-3.74-3.78V18.97l-7.8,1.12Z"/><polygon class="b" points="163.1 9.54 163.05 10.33 165.15 9.96 165.15 15.19 166.27 15.19 166.27 9.96 168.32 10.33 168.37 9.54 165.8 9.63 163.1 9.54"/><path class="b" d="M181.12,40.96c0-1.82-1.31-2.94-2.94-2.94s-2.94,1.17-2.94,2.99,1.31,2.89,2.94,2.89,2.94-1.12,2.94-2.94Z"/><polygon class="b" points="169.63 10.8 171.41 15.19 172.06 15.19 173.74 10.8 173.83 10.8 173.97 15.19 175.09 15.19 174.86 9.59 173.65 9.59 172.06 13.69 171.97 13.69 170.33 9.59 169.12 9.59 168.88 15.19 169.59 15.19 169.59 10.8 169.63 10.8"/><path class="b" d="M191.34,40.96c0-1.82-1.31-2.94-2.94-2.94s-2.94,1.17-2.94,2.99,1.31,2.89,2.94,2.89,2.94-1.12,2.94-2.94Z"/><path class="b" d="M86.89,28.36l.14,.7c7.14-.51,14.29-4.25,14.29-10.97,0-6.3-5.7-9.67-14.52-9.67h-11.11V43.44h9.01V9.91c.84,.05,1.82,.14,2.57,.37,3.46,.93,5,3.5,5,7.7,0,5.04-1.26,8.82-5.37,10.37Z"/><path class="b" d="M39.78,15.05v5.51h-2.85v2.1h2.85v20.78h4.86V22.66h4.86v-2.1h-4.86v-7.8c0-3.55,2.15-4.76,4.39-5.04v-.42c-5.04,.42-9.24,2.24-9.24,7.75Z"/><path class="b" d="M165.57,41.01c0,1.82,1.31,2.89,2.94,2.89s2.94-1.12,2.94-2.94-1.31-2.94-2.94-2.94-2.94,1.17-2.94,2.99Z"/><polygon class="b" points="104.17 8.32 104.17 43.44 111.92 43.44 111.92 7.2 104.17 8.32"/><path class="b" d="M153.01,42.69c-1.26,0-5.56-3.6-8.31-5.65l-.75,5.56c2.43,.75,5.84,1.31,8.4,1.31,2.8,0,4.81-.98,6.4-2.1,1.68-1.26,3.22-3.92,3.22-6.16,0-4.95-2.38-5.93-6.72-8.22-2.94-1.59-4.67-2.38-4.67-4.62,0-1.68,1.4-2.71,2.85-2.8,.98,0,4.2,3.04,6.63,5.14l1.12-5.23c-1.68-.51-4.16-1.12-6.96-1.12-2.57,0-4.48,.75-6.12,1.68-1.77,.98-3.88,2.94-3.88,6.26,0,4.62,2.75,5.88,6.58,7.98,3.64,2.01,4.95,2.8,4.95,5.04,0,1.73-1.31,2.8-2.75,2.94Z"/><rect class="b" width="262.9" height="1.4"/><rect class="b" y="51.38" width="262.9" height="1.4"/><rect class="b" y="102.75" width="262.9" height="1.4"/><rect class="b" y="160.2" width="262.9" height="7.01"/><g><path d="M36.83,76.37c0,8.24-4.21,13.67-8.56,16.33-2.85,1.73-5.62,2.57-9.08,2.57-9.31,0-17.64-7.07-17.64-17.13,0-8.24,4.26-13.67,8.56-16.33,2.9-1.73,5.66-2.57,9.08-2.57,9.31,0,17.64,7.07,17.64,17.13Zm-25.46-.09c0,11.47,2.85,17.46,8.8,17.55,3.98-.23,6.79-3.88,6.79-15.58s-2.76-17.46-8.7-17.55c-3.98,.23-6.88,3.88-6.88,15.58Z"/><path d="M51.85,75.25c-1.03,0-2.11,.37-3.18,1.17v18.39h-7.86v-23.45l7.77-1.12v5.43c.98-1.36,1.97-2.39,2.95-3.37,1.26-1.22,2.85-2.2,5.47-2.2,4.07,0,6.46,2.01,6.46,6.69v18.02h-7.82v-15.77c0-2.81-1.22-3.79-3.79-3.79Z"/><path d="M75.83,58.5v36.32h-7.77V59.62l7.77-1.12Z"/><path d="M84.61,68.18c-2.53,0-4.26-1.4-4.26-3.65s1.83-3.88,4.35-3.88,4.26,1.45,4.26,3.7-1.83,3.84-4.35,3.84Zm3.98,2.01v24.62h-7.86v-23.54l7.86-1.08Z"/><path d="M104.51,75.25c-1.03,0-2.11,.37-3.18,1.17v18.39h-7.86v-23.45l7.77-1.12v5.43c.98-1.36,1.97-2.39,2.95-3.37,1.26-1.22,2.85-2.2,5.47-2.2,4.07,0,6.46,2.01,6.46,6.69v18.02h-7.82v-15.77c0-2.81-1.22-3.79-3.79-3.79Z"/><path d="M130.98,95.28c-6.08,0-11.33-4.21-11.33-11.89,0-6.13,3-9.41,5.57-11.09,2.15-1.36,4.45-2.2,7.25-2.2,5.71,0,9.13,3.14,9.13,8.38,0,.47-.05,1.12-.09,1.54h-14.23v.75c0,5.48,2.62,8.19,7.49,8.19,2.9,0,5.8-.89,6.83-1.73-.05,.33-1.03,4.45-1.17,4.87-1.78,1.82-4.31,3.18-9.45,3.18Zm-3.65-16.29l6.97-.66c0-5.76-.89-7.16-3.13-7.21-1.59,.09-3.51,1.96-3.84,7.86Z"/><path d="M18.3,136.39H8.19l-2.95,9.92H.37l11.79-30.98,5.19-5.33,1.03,.14,12.36,36.18h-9.22l-3.23-9.92Zm-9.45-2.2h8.71l-4.45-13.62h-.19l-4.07,13.62Z"/><path d="M52.5,138.78c-.05,.23-.51,4.07-.66,4.35-1.26,2.11-4.54,3.65-8.89,3.65-5.76,0-11.42-4.07-11.42-11.56,0-5.8,3.14-9.64,5.66-11.23,2.39-1.5,5.1-2.39,7.82-2.39,2.86,0,4.91,.33,7.11,.98l-1.83,5.33c-2.53-1.87-6.27-5.38-7.35-5.38-1.4,.28-3.84,4.12-3.84,9.08,0,5.85,2.85,9.12,7.3,9.12,2.85,0,5.01-1.08,6.08-1.96Z"/><path d="M65.87,121.6c6.83,0,9.55,2.85,9.55,6.74v10.25c0,1.59,.84,2.2,1.92,2.2,.42,0,.84-.05,1.03-.14l-1.87,5.66c-.47,.23-2.01,.47-2.67,.47-4.12,0-5.94-1.92-6.08-4.49v-.05h-.14c-.42,1.03-1.22,1.92-1.96,2.67-1.26,1.12-2.57,1.87-4.73,1.87-3.18,0-5.66-2.01-5.66-5.66,0-1.69,.28-2.9,.7-3.98l11.61-4.4v-2.25c0-2.53-1.83-3.32-4.68-3.32-1.78,0-4.63,.7-6.46,1.5l-.09-.05c1.36-2.71,2.43-4.91,3-5.76,1.45-.84,4.77-1.26,6.55-1.26Zm-.84,21.2c1.03,0,1.92-.47,2.53-1.17v-7.91l-4.35,2.15c-.38,.66-.56,1.64-.56,2.86,0,2.9,.75,4.07,2.39,4.07Z"/><path d="M89.76,146.78c-5.57,0-9.78-4.07-9.78-11.75,0-8.42,6.32-13.43,13.85-13.43,.98,0,2.39,.19,3.04,.38v-10.76l7.82-1.17v35.66l-7.77,.89v-4.21c-.56,.89-1.12,1.64-2.34,2.71-1.12,.98-3,1.68-4.82,1.68Zm3.65-4.35c1.5,0,2.67-.37,3.46-.79v-16.43c-1.03-.84-2.71-2.43-3.74-2.48-2.53,.23-4.87,3.7-4.87,10.11s1.97,9.59,5.15,9.59Z"/><path d="M119.85,146.78c-6.08,0-11.33-4.21-11.33-11.89,0-6.13,3-9.41,5.57-11.09,2.15-1.36,4.45-2.2,7.25-2.2,5.71,0,9.13,3.14,9.13,8.38,0,.47-.05,1.12-.09,1.54h-14.23v.75c0,5.48,2.62,8.19,7.49,8.19,2.9,0,5.8-.89,6.83-1.73-.05,.33-1.03,4.45-1.17,4.87-1.78,1.82-4.31,3.18-9.45,3.18Zm-3.65-16.29l6.97-.66c0-5.76-.89-7.16-3.13-7.21-1.59,.09-3.51,1.96-3.84,7.86Z"/><path d="M145.37,126.75c-.98,0-1.92,.33-3,1.12v18.44h-7.77v-23.45l7.72-1.12v5.38c.94-1.26,1.73-2.2,2.67-3.23,1.03-1.17,2.48-2.29,5.01-2.29,3.79,0,6.08,1.5,6.36,5.48,.94-1.26,1.73-2.2,2.67-3.18,1.03-1.17,2.43-2.29,4.96-2.29,4.12,0,6.41,2.01,6.41,6.69v18.02h-7.77v-15.77c0-2.71-.89-3.79-3.23-3.79-.98,0-1.92,.28-3,1.08v18.49h-7.77v-15.77c0-2.71-.89-3.79-3.28-3.79Z"/><path d="M176.56,157.31l5.85-8.8-10.3-26.49h8.66l5.43,17.17h.14l5.52-17.17h3.79l-14.32,35.29h-4.77Z"/></g></svg>