<?xml version="1.0" encoding="UTF-8"?><svg id="a" xmlns="http://www.w3.org/2000/svg" viewBox="0 0 226.77 125.7"><defs><style>.b{fill:#a9112c;fill-rule:evenodd;}</style></defs><g><path class="b" d="M51.53,.57c.92-.19,1.84-.38,2.76-.57,.17,.39,.61,.37,.95,.51,.24,.46,.61,.72,1.24,.58,1.15,.55,3.03,3.07,1.68,4.42,.02,.6-.3,1.3-.72,1.62-.17,.13-.57,.14-.78,.3-.1,.08-.13,.28-.21,.32-.9,.49-2.33-.06-3.39,.21-.08-.08-.24-.04-.31-.15-1.18,.31-1.96,.5-2.96,1.31-.74-.12-.91,.61-1.76,.29-.07-.4-.02-.51-.14-1.02,1.49-1.21,2.24-2.91,3.14-4.5-.13-.18,.11-.38-.08-.4,.5-.74-.08-1.75,.24-2.58,.26-.02,.28-.21,.35-.35Z"/><path class="b" d="M32.49,4.5c1.48-.31,2.96-.61,4.44-.92,.9,.28,1.38,1.2,2.17,1.66,.16,.49,.7,.76,.53,1.22,.43,.21,.66,.71,.94,1.14-.1,.43-.01,1.03,.4,1.25-.15,.07-.05,.32-.36,.28,.14,.52,.27,1.08,.49,1.37-.55,.44,.08,1.06,.32,1.55-.29,.4-.12,.86-.02,1.27,.17-.03,.33-.03,.43,.05-.02,.15-.12,.34,.02,.42,.59,.18,1.49,0,2.14-.16,2.96-.7,5.81-.9,8.68-1.44,.64-.12,1.25-.29,1.88-.39,2.95-.44,6.41-.9,9.64-1.57,.24,.09,.19,.05,.45,.12,.9-.28,1.44-.14,2.05,.07,.21-.08,.03-.41,.33-.42,0,.1-.09,.14-.09,.23,2.72-.32,5.74-.72,8.42-.69,.74,.01,2.22-.37,2.79-.08,.7-.3,1.43,.03,2.36-.14,.59,.31,1.43,.24,2.17,.32,.35,.39,.68,.51,1.16,.53,.68,.5,.77,1.62,.96,2.26-.3,.06-.18,.39-.55,.39-.21-.56-.52-.98-1.16-.88,.16,.21-.02,.42-.29,.62,.13,.3,.33,.49,.45,.82-.19,.23-.16,.6-.4,.78,.33,.38,.65,.78,.84,1.37-.06,.13-.4,.08-.36,.28,.15,.13,.25,.33,.33,.56-.78,.04-.76,.77-1.31,1.11,0,.44,.45,.2,.53,.52-.61,.43-1.41,.14-2.07,.15-.05,.4-.34,.36-.67,.49-.12-.43-.78,.22-1.27-.02,.51-.15,.88-.11,1.09-.51-.4-.14-.77,.09-1.17,.1-.27,0-.61-.22-.96-.22-.11,0-.27,.16-.39,.15-.16-.02-.3-.17-.46-.19-.06,0-.19,.13-.32,.14-.17,0-.32-.13-.44-.12-.14,.02-.33,.13-.46,.16-1.63,.42-3.35,.08-4.95,.46-.48-.31-1.15-.16-1.87,.1-.79-.32-2.46,.13-3.29,.4-.27-.08,.09-.57-.25-.51-.07,.13-.07,.65-.56,.68,0-.19-.07-.4-.25-.51-.32,.78-1.59,.07-2.08,.78-.63-.33-1.67,.33-2.18-.04-.67,.3-1.96,.63-2.28,.19,.28-.19,.15,.25,.38,.13,1.4-1.11,4.13-.23,5.08-1.54-.49,.46-.83-.27-1.43,.22-.03-.1-.04-.24-.18-.17-.55,.29-.93,.35-1.48,.66-.15-.09,.02-.18-.08-.4-1.09,.17-1.79,.33-2.85,.45-.13,.07,.05,.34-.21,.32-.1-.11-.16-.28-.34-.28-.83,.3-1.73,.2-2.03,.7-.12,.03-.17-.03-.18-.17-.33,0-.17,.32-.5,.31-.18-.12-.5-.07-.37-.42-1.36,.51-2.21,.92-3.81,1.28-.03,.24-.09,.45-.31,.55-.27,0-.09,0-.24-.16-.16,.15-.3,.35-.58,.26-.05-.13,.06-.15,.09-.23-.31,.03-.39,.52-.62,.41,.12,0,.15-.11-.01-.07-.63,.09-1.3,.9-2.14,.86-.07,.26-.33,.71-.72,.57,.14-.14,.32-.26,.16-.59-.36,.09-.82,.12-1.06,.29-.02,.6,.54,.99,.68,1.61-.09,.21-.26,.37-.21,.68,.64,.52,.76,1.71,.7,2.38,.53,.53,.39,1.39,.97,1.98-.05,.85,.68,1.15,.46,1.87,.4,.32,.8,1.02,.96,1.91,.18,.16,.37,.32,.53,.52-.35,.51,.27,1.19,.18,1.58,.77,.62,.92,1.82,1.35,2.81,.42,.32,.7,1.19,.97,1.97,.1,.08,.33-.04,.38,.13-.18,.51,.36,.89,.72,1.11-.34,1.02,1.36,1.45,1.01,2.18,.3-.05,.28,.39,.46,.54,0-.14,.3,0,.36,.06,.33-.34,.64-.89,.65-1.26,1.06-1.08,1.33-2.5,2.32-3.71,0-.22,.02-.14-.07-.34,.78-1.02,1.23-2.49,2.05-3.3-.09-.27,.04-.4,.01-.63,.39-.05,.26-.45,.59-.54-.08-1.96,3.16-3.58,4.25-1.86,.28-.16,.69,.12,1.1-.09,.28,.51,.97,.35,1.36,.49,.81,.29,1.38,1.13,2.06,1.47,.76,.8,.9,1.74,1.23,2.9-.23,.58,.14,1.57-.45,1.92,.08,.28-.14,.38,0,.7-.7,1.21-1.64,2.26-3.34,2.51-.76,.69-1.82,1.51-2.57,2.14-.28,.24-.63,.54-.96,.48-.08,.49-.92,.72-1.3,1.18,.1,.61-.43,1.19-.93,1.6,.22,.46-.49,1.42-1,1.61,.31,.5-.63,1.01-.64,1.67,.28,0,.33,.02,.5,.04-.11,.21-.03,.32,.04,.55,.16,.05,.44-.08,.51,.1,.03,1.66,1.25,2.02,1.79,3.56,.42,.05,.68,.32,.8,.82,.23,.08,.2,.01,.43,.05-.33,.64,.75,.9,.81,1.52,.16,.11,.37,.09,.45,.12,.03,.9,.63,.76,1.15,1.17,.01,.16-.05,.27,.03,.48,.21,.03,.43,.06,.54,.24,.17,.69,1.16,.9,1.62,1.42,.13,.2-.21,.1-.08,.3,.91,.71,1.61,1.74,2.54,2.42,0-.08-.05-.19,.02-.22,.21,.3,.37,.67,.67,.85,.28-.09,.73,.14,.77,.68,.22,0,.38,.07,.58,.09,.11,.36,.4,.45,.52,.81,.96,.05,1.08,1.08,1.87,1.23,.27,.12,.34-.21,.54-.11,.03,1.19,1.61,.77,1.47,1.66,.6,.29,1.5,.13,1.69,1.05,.35,.09,.72,.14,.83,.6,.47-.39,.7,.18,1.09,.2,.09,.23-.27,.29-.05,.43,.55,.07,.76,.39,.95,.86,.2,.02,.48-.08,.63,0,.11,.16-.14,.36,.08,.4,0-.16,.33-.09,.46-.17-.04,.21,.05,.29,.17,.46,.7-.07,1.16,.87,1.87,.24,.41,.17,.14,.62,.33,.91,.35,.13,.32-.09,.75-.09-.03,.23,0,.18,.14,.32,.28,0,.19-.27,.51-.25,.27,.38,.88,.26,.96,.92,.78,.37,1.98,.19,2.15,1.24,.35,0,.98,.24,1.26,.65,.49-.17,1.18-.17,1.31,.22,.28,.08,.41-.16,.69-.07,.06,.33,.38,.25,.35,.7,.34,.1,.69,.35,1.03,.21,.43,.79,1.41,.2,1.88,.95,.81,.11,1.74,.95,2.7,.85,.02,.09,.04,.18,.06,.27,1.93,.56,3.73,1.32,5.56,1.8,.09,.39,.56,.2,.62,.64,1.19,.44,2.47,.72,3.51,1.38,1.08,.09,1.68,.92,2.85,.88,1.96,.73,3.78,1.68,5.97,2.07,.28,.18,.68,.39,1.08,.48,.73,.16,1.58,.07,1.92,.45-.19,.19-.82-.11-.99,.28,.92,.29,1.96,.38,2.77,.83-.2,.53-.89,0-1.43,.22-.21,.39-.5,.11-.85,.31-.07,.33,.23,.33,.07,.69,.68,.42,1.66,.37,2.33,.78-.36-.06-.13,.26-.36,.28-.16,.07,.12-.37-.19-.24-.54,.11-.4,.67-.97,.76,0,.23,.09,.33,.22,.38-.42,.19-.64,.31-.91,.68,.11,.27,.49,.14,.69,.28-.2,.14-.55,.18-.54,.46,.21,.03,.49-.04,.65,.08-.39,.01-.42,.27-.7,.35,.02,.48-.33,.72-.4,1.13-.67,.4-1.39,.47-1.76,.99-.36,.07-.72,.15-1.08,.22-.12-.08-.29-.09-.5-.04-.35-.84-1.64,.29-2.05-.42-.5,.09-.84,.05-1.59,.12-.43,.04-.9-.1-1.36-.14-.88-.07-1.64-.68-2.47-.75-.12,0-.29,.1-.4,.08-.58-.08-1.22-.34-1.88-.24-.21,.03-.36,.21-.58,.26-.32,.07-.65-.1-1-.07-.45,.03-.8,.31-1.25,.4-2.02,.42-4.97,.97-7.03,.61-.5-.09-.98-.42-1.5-.46-.2-.02-.42,.1-.62,.06-.05-.01-.17-.21-.26-.23-.91-.15-2.11-.72-3.06-.91-.19-.04-.43,.05-.63,0-.13-.04-.21-.23-.34-.28-.55-.25-1.24-.26-1.85-.46,0-.15-.08-.17-.12-.25-.07,.11-.28,.13-.46,.16-.21-.26-.5-.14-.74-.2-1.08-.27-1.82-.69-3.06-.91-.15-.48-.58-.53-.92-.72-.1-.62-.56-.68-.95-.86-.03-.42-.31-.48-.6-.51-.32-.64-.88-.9-1.49-1.1-.01-.16-.06-.26-.14-.32-.13,.03-.27,.06-.4,.08-.48-.99-1.71-.95-2.07-1.89-.15-.07-.32-.1-.51-.11,.16-.41-.29-.53-.54-.59-.76-1.02-1.74-1.71-2.47-2.79-.79-.48-1.3-1.37-2.02-1.97-.35-.05-.7-.5-.72-.76-.2-.14-.62-.32-.49-.67-.64-.63-1.33-1.16-2.03-1.69-.02-.11-.05-.22-.07-.34-.2-.22-.54-.25-.62-.64-1.61-1.41-2.93-3.26-4.6-4.59-.02-.11-.05-.22-.07-.34-.15-.18-.37-.27-.41-.62-.27-.06-.33-.44-.65-.43-.05-.72-.35-.57-.52-1.16-.77-.39-.91-1.74-1.7-2.11,.04-.23-.06-.19-.1-.47-.15-.15-.32-.28-.5-.39,.11-.61-.9-.88-.99-1.76-.24-.13-.91-.69-.83-1.3-.28-.22-.43-.64-.84-.67,.06-.26-.13-.35-.06-.62-.11-.19-.42-.07-.49-.32-.09-.2,.22-.13,.07-.37-.64-.92-1.18-1.89-1.62-2.75-.2-.08-.65,.19-.82,.45-.16,.01-.17-.21-.38-.13-.38,.37-.74,.66-.91,1.03-.22-.04,.05-.28-.14-.32-.12,.27-.46,.21-.63,.34-.82,.63-.71,1.91-.96,2.51-.16,.11-.33,.4-.5,.31,.15,1.02-1.22,1.56-.85,2.7-.58-.09-.45,1.08-1.06,1.34,.1,.24-.06,.31,.04,.55-.52,.44-.84,.99-1.31,1.46-.37-.13-.32-.44-.31-.85-.1-.12-.31,.18-.36,.29-.33-.21-.69-.81-.73-1.18-.17,.04-.29,.02-.36-.07-.12,.69,.17,1.86-.87,1.23-.15-.65,.1-1-.09-1.45,.45-.36-.04-1.1,.54-1.45,.02-.93,.49-2.06,.86-3.33,0-.12-.08-.12-.16-.11,.33-.42,.62-1.13,.58-1.59,.07-.09,.24-.12,.31-.2,.24-1.51,1.35-3.2,1.63-4.68,.82-1.39,1.87-3.51,1.61-5.45,.28-.03,.05-.39,.25-.47-.42-.3-.94-.73-.61-1.28-.09-.36-.15-.77-.5-.74,.08-.16-.03-.44,.17-.53-1.11-1.1-.98-3.16-1.91-4.17-.05-.48-.06-.88-.48-.95-.04-.22,.05-.36-.06-.62-.08-.14-.25-.16-.39-.2-.88,1.17-2.08,2.12-2.32,3.71-.56,.41-.52,1.21-1.23,1.52-.03,.23-.41,.63-.82,.8,.17,.23-.02,.11,0,.35-.44,.12-.63,.4-1.01,.56,.01,.23,.36,.07,.2,.31-.28,.15-.2-.23-.45-.12-.22,.07,.03,.4,.16,.46-.66,.83-1.22,2.2-2.4,2.32-.1,.15,.03,.25,.08,.4-.79,.33-.73,1.08-1.68,1.05-.13,.07,.15,.23,.15,.39-.41,.17-.6,0-1.01,.21,.01,.22,.34-.04,.33,.21-.13,.09-.24,.19-.36,.28-.25,.09-.2-.28-.51-.1,.06,.24,.12-.03,.24,.16-.71,.62-1.33,.61-2.04,.98,.01,.22,.21,.16,.32,.21-.18,.4-.52,.04-.71-.06-.22,.13-.5,.21-.62,.41,.16,.19,.46-.17,.55-.04-.41,.53-1.09,.8-1.79,.86-.09,.04-.02,.18-.01,.28-.51,0-1.28,.08-1.83,.31-.21-.16-.47-.48-.65-.43-.09,.08-.11,.2-.07,.36-.38,.09-.74,.23-1.09,.5-.78,.14-2.26,.4-2.64-.23,.19-.05,.37-.08,.38,.13,.05-.2,.37-.22,.48-.38-.21-.21-.43-.41-.78-.4-.2-.92-.61-1.14-.25-1.91-.21-.51-.43-1.03-.6-1.56-.21-.07-.53,.03-.56-.31,.21-.15,.42-.3,.6-.48-.15-.35,.12-.46-.07-.69-.04-.15-.29,.03-.42,.02,.1-.47,.32-.86,.95-.83-.07,.11-.03,.27,.07,.34,.37-.16,.79-.29,.76-.72-.25-.16-.25,.11-.58-.09,.07-.27,.51-.3,.63,0,.06-.42,.38-.93,1.02-.84,.71-.67,1.89-.55,2.42-1.2,.22,.03,.45,.02,.65,.08,.1-.22-.17-.05-.07-.34,1.4-1.07,3.08-2.32,4.1-3.93,.2,.02,.15-.13,.32-.14,.3-.63,.91-1.33,.93-1.95,.15-.15,.23-.35,.47-.45-.01-.42,.08-.76,.44-.93-.04-.43,.03-1.24,.34-1.4-.2-.2-.4-.39-.56-.66-.37,.03-.89,.29-1-.07-.13,.27-.53,.32-.86,.25-.07-.2,.22-.17,.21-.32-.2-.26-.81,.04-.62,.41-.92,.11-1.43,.13-2.43,.43-.04-.46,.8-.2,.97-.41-.92-.2-2.76,.39-4.12,.78,.27,.43-.3,.36-.62,.41,0-.08,.12-.07,.11-.16-.41-.03-.66,.1-.98,0-.58,.78-1.95,.47-2.65,1.11-.79,.73-2.21,1.2-2.32,2.37-.12,.02-.13,.11-.25,.12,.11,.84-.42,1.11-.41,1.77-.55-.14-.3,.76-.86,.6-.1,.15,0,.42-.09,.58-.42,.01-.57,.45-.83,.38-.15,.1-.12,.31-.1,.51-.37-.06-.8,.5-1.41,.29-.11,.29-.34,.56-.58,.61-.55,1.37-1.63,2.47-3,3.14-.04,.13-.2,.18-.21,.32-2.14,.89-5.09,1.54-7.12,.84-.07-.25-.3-.25-.38-.48-.16-.08-.08,.02-.27,.06-.08-.27-.37-.2-.39-.55-.1-.06-.25-.03-.42,.02-.1-.22-.03-.43-.42-.33-.89-1.52-2.12-3.14-3.88-3.83,0-.05-.02-.09-.03-.14,.04-.16,.45,.06,.52-.18-.13-.02-.38,.16-.42,.02,.36-.26,.81-.48,1.02-.84,1.69-.67,2.6-1.86,4.08-2.67,.17-.1,.09-.37,.33-.42,.62-.25,1.16-.55,1.48-1.01,1.12,0,1.09-1.18,2.04-1.33,.17-1.28,1.16-1.56,1.82-2.41-.01-.22-.17-.21-.16-.46,.2-.06,.37-.15,.51-.24-.18-.58,.14-.98,.57-1.31-.26-.33,0-1.02,.26-1.11-.14-2.02,.01-4.97-1.05-6.8-.12-.18-.38-.13-.49-.32-.07-1.16-.14-2.02-.43-3.42,.03-.18,.36-.15,.27-.41-.43-.52-.15-.92-.21-1.36-.1-.36-.33-.63-.5-1.09,.28-.97-.35-2.16,.08-3.03-.08-.55-.16-.83,.18-1.16,.59,.14,.87-.39,1.13-.65,.38,.12,.81-.03,1.13-.3,.05,.5,.5-.13,.62,.29,.27,0,.21-.21,.36-.28,.39,.38,1.19,.14,1.58,.52,.58-.54,1.62-.02,1.96,.65,.26-.25,.75-.08,.98,0,.28,.01,.16-.24,.44-.23,4.25-.37,7.95-1.72,13.04-2.41,.77-.1,1.67-.09,2.02-.42,.43-.39-.05-1.42,.31-1.89-.62-.67-.31-1.95-.62-2.68-.18-.43-.58-.64-.72-1.11,.27-.67-.25-1.11-.21-1.36,.05-.35-.38-.83,.07-1-.73-.67-.06-1.57,0-2.38,.3-.02,.4-.16,.5-.31Zm3.15,18.99c.12,.14,.37,.09,.47,.25-.16,.12-.34,.24-.64,.27,0-.1,.07-.15,.01-.28-.39,.04-.36,.34-.68,.42-.46-.13-.82,.12-1.25,.05-.17,.48-.88,.49-1.44,.51-.13,.11-.28,.2-.43,.3-2.04,.18-3.18,1.48-4.95,1.86-.56,.12-1.11,.05-1.72,.15-.44,.07-.79,.33-1.24,.47-1.04,.31-2.18,.58-3.04,1.26-.53-.12-1.22,.64-1.72,.5-.5,.62-1.19,.94-1.5,1.57-.02-.15-.24,.02-.35,0-.25,.26-.16,.6-.24,.89-.23,.89-.19,.9,0,1.68,.05,.23-.06,.62,.18,.87,.22,.24,.62,.2,.92,.37,1.14-.49,2.1-.71,3.07-1.12,.15-.05,.11,.18,.24,.16,1.03-.4,2.26-.44,3.05-.84,2.91-.32,6.33-1.1,9.42-1.24,.4-.36,1.71,.07,2.07-.5,.3,.23,.65,.13,.97-.06,.24-.02,.36,.16,.59,.16,.22-.01,.14-.22,.29-.27,.97,.34,1.94,0,2.81,.33,.16-.13,.34-.24,.48-.38-.15-1.25-.97-1.83-1.42-2.79-.16-.33-.27-.71-.43-1.03-.24-.48-.51-.85-.44-1.1-.44-.21-.64-.8-1-1.13-.02-.24,.07-.42,0-.7-.4-.01-.45-.56-.83-.6,0,.14-.23,.63-.56,.33,.03-.25,.24-.39,.54-.46-.04-.21-.25-.15-.23-.44-.42-.06-.87,.25-1.01,.56Zm9.31-1.43c.48-.06,1.04-.05,1.43-.22-.09-.2,.08-.22-.02-.42-.16,.04-.22-.08-.42,.02-.18,.07-.02,.37-.35,.35,.08-.45-.87-.28-.64,.27Zm21.98-3.97c-.28-.05-.65-.24-.89-.24-.82,0-1.62,.35-1.99,.9,.76-.06,1.56-.76,2.07-.15,.58-.18,1.1-.52,1.41-.29,.2-.51-.36-.18-.61-.23Zm3.92-.04c.29,.05,.1-.2,.23-.26,.08,.36,.02,.05,.22,.03-.08,.47,.88,.22,.8,.12-.36,.1-.47-.05-.34-.28-.36,.16-.98-.11-.9,.4Zm7.92-.37c-.35,0-.64-.3-.97-.29-.13,0-.33,.15-.46,.16-.88,.11-1.88-.26-2.71,.14-.48-.46-1.98-.09-2.38,.35,2.76-.42,5.57-.13,8.41-.4-.5-.44-1.21,.06-1.89,.04ZM29.61,56.16c.2-.02,.23-.06,.11-.16,.07-.01,.13-.03,.2-.04-.02-.15-.1-.2-.24-.16-.05,.1-.02,.26-.06,.36Zm-1.67,.42c-.18-.04-.44-.26-.58-.09,.21,.49,.82-.03,1.35,.07,0,.1-.07,.15-.01,.28,.36-.2,.72-.07,.94-.19-.12-.08-.39,.06-.39-.2,.03-.17,.15-.29,.27-.4-.55-.08-1.29,.11-1.57,.54Zm18.94,3.74c.33-.19,.54-.76,.41-1.07-.07,.4-.44,.61-.41,1.07Zm.92,.37c.15-.05,.26-.04,.35,0-.23-.44,.45-.59,.09-.93,.04,.22-.29,.54-.44,.93Zm-.95,1.18c.15-.19,.27-.41,.36-.64-.13-.01-.29,.02-.36-.06,.09-.02,.18-.04,.27-.06-.04-.17-.17-.21-.27-.29-.09,.16-.31,.22-.17,.53-.21-.15-.41,.42-.12,.45-.12,.04-.16-.05-.28-.01-.09,.6-.5,1.35-.26,1.81-.18-.05-.12,.03-.35,0-.07,.78-.88,1.66-.58,2.3,.05-.19-.08-.2,.01-.28,.22,.05,.06,.31,.15,.39-.15,.24-.15-.14-.36-.07,.06,.62-.62,1.29-.33,1.82-.03-.21,.13-.3,.19-.46,.12,.02,.15,.18,.26,.23-.02-.27,.11-.67,.37-.57,.24-.67,.37-1.42,.7-2.04-.24-.71,.35-1.34,.58-1.94,.01,.07,.07,.07,.09,.12,0,.08-.09,.09-.19,.11,.02,.11,.05,.22,.07,.34,.2-.01,.31,.12,.46,.19,.02-.43,.39-.63,.65-.91,.14,.51,.09,.84,.16,1.09,.16-.14,.41-.23,.55-.39,.02-.3-.35-.75-.03-.49-.01-.16,.05-.28-.03-.49-.15-.1-.11,.06-.34,.07-.01-.13-.11-.13-.12-.26-.01-.16,.21-.17,.13-.38-.48,.2-.25-.41-.5-.39-.07,.47-.21-.13-.52,.18,0,.25,.48,.21,.3,.43-.14-.15-.3-.25-.49-.32Zm.47-.45c.22,.25,.76-.1,.66-.56-.38-.19-.62,.2-.66,.56Zm.86,.1c.14,0,.17,.18,.28,.01,0-.24-.31-.21-.28-.01Zm-1.11,3.46c.3-.11,.09-.56,.26-.76-.28,.11-.3,.62-.26,.76Zm.55-.74c.02,.18,.18,.14,.31,.15,0-.1,.07-.15,.01-.28-.2-.02-.15,.13-.32,.14Zm-1.52,.8c0,.22,.2,.23,.08,.4,.09-.02,.18-.04,.27-.06,0-.13,.16-.43-.03-.49-.01,.24-.12,.06-.32,.14Zm.52,1.51c.14,.3-.31,.23-.25,.47,.22-.15,.49-.33,.58,.09,.31-.16,.2-.61,.47-.8-.25,.08-.4,.14-.79,.23Zm-.67,1.19c.26-.1,1.05,.18,.86-.6-.22,.05-.31,.19-.35,.35-.36-.05-.23-.4-.65-.43,.05,.22,.09,.45,.14,.67Z"/></g><g><path d="M79.19,38.09c-2.15,0-3.23-1.18-3.23-3.54,0-1.17,.29-2.07,.88-2.69,.58-.62,1.42-.93,2.52-.93,.8,0,1.52,.16,2.15,.47l-.55,1.46c-.3-.12-.57-.22-.83-.29-.25-.08-.51-.11-.77-.11-.98,0-1.47,.7-1.47,2.09s.49,2.03,1.47,2.03c.36,0,.7-.05,1.01-.14s.62-.25,.93-.46v1.61c-.3,.19-.61,.33-.92,.4-.31,.07-.7,.11-1.18,.11Z"/><path d="M89.28,37.97h-1.89v-4.04c0-1-.37-1.5-1.11-1.5-.53,0-.91,.18-1.14,.54-.23,.36-.35,.94-.35,1.74v3.25h-1.89v-9.62h1.89v1.96c0,.15-.01,.51-.04,1.08l-.04,.56h.1c.42-.68,1.09-1.01,2-1.01,.81,0,1.43,.22,1.85,.66,.42,.44,.63,1.06,.63,1.88v4.51Z"/><path d="M94.35,38.09c-1.11,0-1.98-.31-2.61-.92s-.94-1.48-.94-2.61,.29-2.05,.87-2.69c.58-.63,1.38-.95,2.4-.95s1.74,.28,2.28,.83,.82,1.33,.82,2.31v.92h-4.46c.02,.54,.18,.95,.48,1.26,.3,.3,.71,.45,1.25,.45,.42,0,.81-.04,1.18-.13,.37-.09,.76-.23,1.16-.41v1.46c-.33,.17-.68,.29-1.06,.37-.37,.08-.83,.12-1.37,.12Zm-.27-5.83c-.4,0-.71,.13-.94,.38s-.36,.61-.39,1.08h2.65c0-.47-.13-.83-.36-1.08-.24-.25-.55-.38-.95-.38Z"/><path d="M105.09,37.97h-1.89v-4.04c0-.5-.09-.87-.27-1.12-.18-.25-.46-.37-.85-.37-.53,0-.91,.18-1.14,.53-.23,.35-.35,.94-.35,1.75v3.25h-1.89v-6.91h1.44l.25,.88h.1c.21-.33,.5-.59,.87-.76,.37-.17,.79-.26,1.26-.26,.8,0,1.42,.22,1.83,.65,.42,.43,.62,1.06,.62,1.88v4.51Z"/><path d="M113.07,37.98c0,.99-.29,1.75-.87,2.26-.58,.51-1.44,.77-2.59,.77-1.01,0-1.87-.14-2.59-.41v-1.51c.84,.35,1.74,.53,2.7,.53s1.45-.52,1.45-1.57v-.14l.05-.85h-.05c-.44,.68-1.09,1.02-1.96,1.02s-1.47-.32-1.93-.96-.68-1.51-.68-2.61,.24-2.02,.71-2.65c.47-.63,1.12-.95,1.95-.95s1.52,.34,2,1.01h.05l.15-.88h1.6v6.93Zm-3.18-1.37c.51,0,.87-.15,1.09-.44,.22-.29,.33-.76,.33-1.41v-.23c0-.74-.12-1.27-.34-1.59-.23-.32-.6-.49-1.1-.49-.89,0-1.33,.7-1.33,2.09,0,.69,.11,1.21,.33,1.55,.22,.34,.56,.51,1.03,.51Z"/><path d="M117.23,38.09c-.81,0-1.45-.31-1.91-.95-.47-.63-.7-1.51-.7-2.62s.24-2.02,.71-2.65c.47-.63,1.12-.95,1.95-.95,.87,0,1.53,.34,1.99,1.01h.06c-.1-.52-.14-.98-.14-1.38v-2.21h1.89v9.62h-1.45l-.36-.9h-.08c-.43,.68-1.08,1.02-1.96,1.02Zm.66-1.5c.48,0,.83-.14,1.06-.42s.35-.76,.37-1.43v-.2c0-.74-.12-1.27-.34-1.6-.23-.32-.6-.48-1.12-.48-.42,0-.75,.18-.98,.53-.23,.36-.35,.88-.35,1.56s.12,1.19,.35,1.53c.23,.34,.57,.51,1.01,.51Z"/><path d="M127.96,37.97l-.25-.88h-.1c-.2,.32-.49,.57-.86,.75-.37,.17-.79,.26-1.27,.26-.81,0-1.42-.22-1.84-.65-.41-.43-.62-1.06-.62-1.88v-4.51h1.89v4.04c0,.5,.09,.87,.27,1.12,.18,.25,.46,.37,.85,.37,.53,0,.91-.18,1.14-.53,.24-.35,.35-.94,.35-1.75v-3.25h1.89v6.91h-1.45Z"/><path d="M76.31,41.44c0-.61,.34-.92,1.03-.92s1.03,.31,1.03,.92c0,.29-.09,.52-.26,.68-.17,.16-.43,.24-.77,.24-.68,0-1.03-.31-1.03-.93Zm1.97,8.7h-1.89v-6.91h1.89v6.91Z"/><path d="M86.63,50.14h-1.89v-4.04c0-.5-.09-.87-.27-1.12-.18-.25-.46-.37-.85-.37-.53,0-.91,.18-1.14,.53-.23,.35-.35,.94-.35,1.75v3.25h-1.89v-6.91h1.44l.25,.88h.1c.21-.33,.5-.59,.87-.76,.37-.17,.79-.26,1.26-.26,.8,0,1.42,.22,1.83,.65,.42,.43,.62,1.06,.62,1.88v4.51Z"/><path d="M91.49,48.77c.33,0,.73-.07,1.19-.22v1.41c-.47,.21-1.05,.31-1.73,.31-.75,0-1.3-.19-1.65-.57-.34-.38-.52-.95-.52-1.72v-3.33h-.9v-.8l1.04-.63,.54-1.46h1.21v1.47h1.94v1.42h-1.94v3.33c0,.27,.08,.47,.23,.59,.15,.13,.35,.19,.6,.19Z"/><path d="M97.2,50.27c-1.11,0-1.98-.31-2.61-.92s-.94-1.48-.94-2.61,.29-2.05,.87-2.69c.58-.63,1.38-.95,2.4-.95s1.74,.28,2.28,.83,.82,1.33,.82,2.31v.92h-4.46c.02,.54,.18,.95,.48,1.26,.3,.3,.71,.45,1.25,.45,.42,0,.81-.04,1.18-.13,.37-.09,.76-.23,1.16-.41v1.46c-.33,.17-.68,.29-1.06,.37-.37,.08-.83,.12-1.37,.12Zm-.27-5.83c-.4,0-.71,.13-.94,.38s-.36,.61-.39,1.08h2.65c0-.47-.13-.83-.36-1.08-.24-.25-.55-.38-.95-.38Z"/><path d="M105.41,43.1c.26,0,.47,.02,.64,.06l-.14,1.77c-.15-.04-.34-.06-.56-.06-.6,0-1.07,.15-1.41,.46-.34,.31-.5,.74-.5,1.3v3.52h-1.89v-6.91h1.43l.28,1.16h.09c.21-.39,.51-.7,.87-.94s.76-.36,1.19-.36Z"/><path d="M113.69,50.14h-1.89v-4.04c0-.5-.09-.87-.27-1.12-.18-.25-.46-.37-.85-.37-.53,0-.91,.18-1.14,.53-.23,.35-.35,.94-.35,1.75v3.25h-1.89v-6.91h1.44l.25,.88h.1c.21-.33,.5-.59,.87-.76,.37-.17,.79-.26,1.26-.26,.8,0,1.42,.22,1.83,.65,.42,.43,.62,1.06,.62,1.88v4.51Z"/><path d="M120.02,50.14l-.37-.94h-.05c-.32,.4-.64,.68-.98,.83-.34,.15-.77,.23-1.31,.23-.66,0-1.19-.19-1.57-.57-.38-.38-.57-.92-.57-1.62s.26-1.28,.77-1.62c.51-.35,1.29-.54,2.32-.58l1.2-.04v-.3c0-.7-.36-1.05-1.08-1.05-.55,0-1.2,.17-1.95,.5l-.62-1.27c.79-.42,1.68-.62,2.65-.62s1.64,.2,2.13,.61,.74,1.02,.74,1.84v4.61h-1.32Zm-.56-3.2l-.73,.02c-.55,.02-.96,.12-1.22,.3-.27,.18-.4,.46-.4,.83,0,.53,.3,.8,.92,.8,.44,0,.79-.13,1.05-.38,.26-.25,.39-.59,.39-1v-.57Z"/><path d="M126.19,48.77c.33,0,.73-.07,1.19-.22v1.41c-.47,.21-1.05,.31-1.73,.31-.75,0-1.3-.19-1.65-.57-.34-.38-.52-.95-.52-1.72v-3.33h-.9v-.8l1.04-.63,.54-1.46h1.21v1.47h1.94v1.42h-1.94v3.33c0,.27,.08,.47,.23,.59,.15,.13,.35,.19,.6,.19Z"/><path d="M128.7,41.44c0-.61,.34-.92,1.03-.92s1.03,.31,1.03,.92c0,.29-.09,.52-.26,.68-.17,.16-.43,.24-.77,.24-.68,0-1.03-.31-1.03-.93Zm1.97,8.7h-1.89v-6.91h1.89v6.91Z"/><path d="M138.93,46.68c0,1.13-.3,2.01-.89,2.64-.59,.63-1.42,.95-2.48,.95-.66,0-1.25-.15-1.76-.44-.51-.29-.9-.71-1.17-1.25-.27-.54-.41-1.18-.41-1.91,0-1.13,.29-2.01,.88-2.63,.59-.63,1.42-.94,2.49-.94,.66,0,1.25,.14,1.76,.43,.51,.29,.9,.7,1.17,1.24,.27,.54,.41,1.17,.41,1.9Zm-4.78,0c0,.68,.11,1.2,.34,1.55,.23,.35,.59,.53,1.1,.53s.86-.17,1.09-.52c.22-.35,.33-.87,.33-1.56s-.11-1.2-.33-1.54-.59-.51-1.09-.51-.87,.17-1.09,.51c-.22,.34-.34,.85-.34,1.54Z"/><path d="M146.87,50.14h-1.89v-4.04c0-.5-.09-.87-.27-1.12-.18-.25-.46-.37-.85-.37-.53,0-.91,.18-1.14,.53-.23,.35-.35,.94-.35,1.75v3.25h-1.89v-6.91h1.44l.25,.88h.1c.21-.33,.5-.59,.87-.76,.37-.17,.79-.26,1.26-.26,.8,0,1.42,.22,1.83,.65,.42,.43,.62,1.06,.62,1.88v4.51Z"/><path d="M153.2,50.14l-.37-.94h-.05c-.32,.4-.64,.68-.98,.83-.34,.15-.77,.23-1.31,.23-.66,0-1.19-.19-1.57-.57-.38-.38-.57-.92-.57-1.62s.26-1.28,.77-1.62c.51-.35,1.29-.54,2.32-.58l1.2-.04v-.3c0-.7-.36-1.05-1.08-1.05-.55,0-1.2,.17-1.95,.5l-.62-1.27c.79-.42,1.68-.62,2.65-.62s1.64,.2,2.13,.61,.74,1.02,.74,1.84v4.61h-1.32Zm-.56-3.2l-.73,.02c-.55,.02-.96,.12-1.22,.3-.27,.18-.4,.46-.4,.83,0,.53,.3,.8,.92,.8,.44,0,.79-.13,1.05-.38,.26-.25,.39-.59,.39-1v-.57Z"/><path d="M158.35,50.14h-1.89v-9.62h1.89v9.62Z"/><path d="M81.21,60.27c0,.71-.25,1.25-.74,1.62-.49,.37-1.23,.56-2.21,.56-.5,0-.93-.03-1.29-.1-.36-.07-.69-.17-1-.3v-1.56c.35,.16,.75,.3,1.18,.41,.44,.11,.83,.17,1.16,.17,.68,0,1.03-.2,1.03-.59,0-.15-.05-.27-.14-.36-.09-.09-.25-.2-.47-.31-.22-.12-.52-.25-.89-.41-.53-.22-.92-.43-1.17-.62-.25-.19-.43-.41-.54-.65s-.17-.55-.17-.9c0-.62,.24-1.09,.71-1.43s1.15-.5,2.03-.5,1.64,.18,2.43,.54l-.57,1.36c-.35-.15-.67-.27-.97-.36-.3-.1-.61-.14-.92-.14-.56,0-.83,.15-.83,.45,0,.17,.09,.31,.27,.44,.18,.12,.57,.31,1.18,.55,.54,.22,.94,.42,1.19,.61,.25,.19,.44,.41,.56,.66,.12,.25,.18,.54,.18,.88Z"/><path d="M85.49,62.45c-2.15,0-3.23-1.18-3.23-3.54,0-1.18,.29-2.07,.88-2.69,.59-.62,1.42-.93,2.52-.93,.8,0,1.52,.16,2.15,.47l-.56,1.46c-.3-.12-.57-.22-.83-.29s-.51-.11-.77-.11c-.98,0-1.47,.7-1.47,2.09s.49,2.03,1.47,2.03c.36,0,.7-.05,1.01-.14s.62-.25,.93-.45v1.61c-.3,.19-.61,.33-.92,.4-.31,.07-.7,.11-1.18,.11Z"/><path d="M95.58,62.32h-1.89v-4.04c0-1-.37-1.5-1.11-1.5-.53,0-.91,.18-1.14,.54-.23,.36-.35,.94-.35,1.74v3.25h-1.89v-9.62h1.89v1.96c0,.15-.01,.51-.04,1.08l-.04,.56h.1c.42-.68,1.09-1.01,2-1.01,.81,0,1.43,.22,1.85,.66,.42,.44,.63,1.06,.63,1.88v4.51Z"/><path d="M103.8,58.85c0,1.13-.3,2.01-.89,2.64-.59,.64-1.42,.95-2.48,.95-.66,0-1.25-.15-1.76-.44-.51-.29-.9-.71-1.17-1.25-.27-.54-.41-1.18-.41-1.9,0-1.13,.29-2.01,.88-2.63s1.42-.94,2.49-.94c.66,0,1.25,.14,1.76,.43,.51,.29,.9,.7,1.17,1.24,.27,.54,.41,1.17,.41,1.9Zm-4.78,0c0,.68,.11,1.2,.34,1.55,.23,.35,.59,.53,1.1,.53s.86-.17,1.09-.52c.22-.35,.33-.87,.33-1.56s-.11-1.2-.33-1.54-.59-.51-1.09-.51-.87,.17-1.09,.51c-.22,.34-.34,.86-.34,1.54Z"/><path d="M111.64,58.85c0,1.13-.3,2.01-.89,2.64-.59,.64-1.42,.95-2.48,.95-.66,0-1.25-.15-1.76-.44-.51-.29-.9-.71-1.17-1.25-.27-.54-.41-1.18-.41-1.9,0-1.13,.29-2.01,.88-2.63s1.42-.94,2.49-.94c.66,0,1.25,.14,1.76,.43,.51,.29,.9,.7,1.17,1.24,.27,.54,.41,1.17,.41,1.9Zm-4.78,0c0,.68,.11,1.2,.34,1.55,.23,.35,.59,.53,1.1,.53s.86-.17,1.09-.52c.22-.35,.33-.87,.33-1.56s-.11-1.2-.33-1.54-.59-.51-1.09-.51-.87,.17-1.09,.51c-.22,.34-.34,.86-.34,1.54Z"/><path d="M115.09,62.32h-1.89v-9.62h1.89v9.62Z"/></g><g><path d="M78.21,104.1h1.14l2.42,7.14h-.86l-.7-2.06h-2.95l-.69,2.06h-.82l2.46-7.14Zm-.71,4.39h2.48l-1.24-3.67-1.24,3.67Z"/><path d="M85.67,104.1h.87v6.43h3.26v.71h-4.13v-7.14Z"/><path d="M91.02,104.38c0-.3,.25-.55,.55-.55s.55,.25,.55,.55-.25,.55-.55,.55-.55-.25-.55-.55Zm.15,1.64h.83v5.22h-.83v-5.22Z"/><path d="M94.03,106.71h-.75v-.7h.75v-.85c0-1.06,.52-1.68,1.56-1.68,.27,0,.41,.03,.62,.1v.7c-.15-.06-.36-.11-.59-.11-.54,0-.76,.37-.76,.9v.94h1.28v.7h-1.28v4.52h-.83v-4.52Z"/><path d="M97.01,108.68v-.08c0-1.58,1.01-2.68,2.45-2.68,1.21,0,2.35,.73,2.35,2.6v.27h-3.93c.04,1.19,.61,1.85,1.68,1.85,.81,0,1.28-.3,1.39-.91h.83c-.18,1.05-1.05,1.6-2.23,1.6-1.48,0-2.53-1.04-2.53-2.65Zm3.94-.56c-.08-1.08-.64-1.51-1.5-1.51s-1.42,.58-1.56,1.51h3.05Z"/><path d="M103.45,104.1h2.03c1.37,0,2.5,.6,2.5,2.09v.04c0,1.52-1.14,2.11-2.5,2.11h-1.16v2.91h-.87v-7.14Zm2.09,3.54c1.02,0,1.57-.5,1.57-1.42v-.04c0-1.01-.6-1.39-1.57-1.39h-1.22v2.85h1.22Z"/><path d="M109.38,103.52h.84v7.72h-.84v-7.72Z"/><path d="M112.02,109.32v-3.3h.83v3.26c0,.92,.39,1.33,1.21,1.33,.74,0,1.44-.49,1.44-1.43v-3.17h.83v5.22h-.83v-.83c-.24,.49-.82,.92-1.66,.92-1.04,0-1.82-.57-1.82-2.01Z"/><path d="M117.79,109.63h.81c.06,.62,.39,1.01,1.23,1.01,.79,0,1.14-.27,1.14-.83s-.41-.73-1.22-.88c-1.36-.25-1.82-.63-1.82-1.54,0-.97,.95-1.47,1.77-1.47,.94,0,1.75,.38,1.89,1.51h-.8c-.12-.57-.44-.82-1.1-.82-.6,0-.99,.3-.99,.75s.26,.66,1.22,.83c1.08,.2,1.84,.44,1.84,1.55,0,.95-.65,1.59-1.92,1.59s-2-.63-2.05-1.7Z"/><path d="M122.76,106.22c0-1.23,.98-2.22,2.22-2.22s2.22,.98,2.22,2.21-.98,2.21-2.22,2.21-2.22-.95-2.22-2.2Zm4.03-.01c0-1.09-.76-1.85-1.82-1.85s-1.82,.77-1.82,1.86,.8,1.84,1.82,1.84,1.82-.76,1.82-1.85Zm-2.58-1.12h.77c.51,0,.84,.21,.84,.66h0c0,.34-.19,.52-.45,.6l.58,.93h-.5l-.53-.85h-.23v.85h-.48v-2.19Zm.76,1.01c.25,0,.38-.11,.38-.32h0c0-.24-.14-.32-.38-.32h-.28v.64h.28Z"/><path d="M131.14,104.1h.87v7.14h-.87v-7.14Z"/><path d="M134,106.01h.83v.83c.24-.49,.82-.92,1.68-.92,1.08,0,1.84,.59,1.84,2.11v3.2h-.83v-3.26c0-.92-.39-1.33-1.23-1.33-.77,0-1.46,.49-1.46,1.43v3.17h-.83v-5.22Z"/><path d="M140.26,109.93v-3.22h-.75v-.7h.75v-1.19h.83v1.19h1.22v.7h-1.22v3.13c0,.51,.23,.76,.65,.76,.26,0,.46-.04,.64-.11v.7c-.17,.06-.37,.11-.71,.11-.95,0-1.41-.56-1.41-1.38Z"/><path d="M143.3,108.68v-.08c0-1.58,1.01-2.68,2.45-2.68,1.21,0,2.35,.73,2.35,2.6v.27h-3.93c.04,1.19,.61,1.85,1.68,1.85,.81,0,1.28-.3,1.39-.91h.83c-.18,1.05-1.05,1.6-2.23,1.6-1.48,0-2.53-1.04-2.53-2.65Zm3.94-.56c-.08-1.08-.64-1.51-1.5-1.51s-1.42,.58-1.56,1.51h3.05Z"/><path d="M149.6,106.01h.83v.94c.33-.59,.78-1,1.72-1.03v.78c-1.05,.05-1.72,.38-1.72,1.67v2.87h-.83v-5.22Z"/><path d="M153.48,106.01h.83v.83c.24-.49,.82-.92,1.68-.92,1.08,0,1.84,.59,1.84,2.11v3.2h-.83v-3.26c0-.92-.39-1.33-1.23-1.33-.77,0-1.46,.49-1.46,1.43v3.17h-.83v-5.22Z"/><path d="M159.25,109.79c0-1.21,1.28-1.62,2.61-1.62h.75v-.38c0-.83-.32-1.18-1.12-1.18-.72,0-1.12,.3-1.2,.94h-.83c.11-1.19,1.06-1.63,2.07-1.63s1.91,.41,1.91,1.87v3.44h-.83v-.66c-.39,.49-.86,.75-1.63,.75-.97,0-1.74-.47-1.74-1.54Zm3.36-.38v-.65h-.72c-1.05,0-1.82,.26-1.82,1.03,0,.54,.26,.88,.99,.88,.88,0,1.55-.45,1.55-1.26Z"/><path d="M165.38,109.93v-3.22h-.75v-.7h.75v-1.19h.83v1.19h1.22v.7h-1.22v3.13c0,.51,.23,.76,.65,.76,.26,0,.46-.04,.64-.11v.7c-.17,.06-.37,.11-.71,.11-.95,0-1.41-.56-1.41-1.38Z"/><path d="M168.71,104.38c0-.3,.25-.55,.55-.55s.55,.25,.55,.55-.25,.55-.55,.55-.55-.25-.55-.55Zm.15,1.64h.83v5.22h-.83v-5.22Z"/><path d="M171.17,108.67v-.08c0-1.57,1.09-2.67,2.57-2.67s2.57,1.09,2.57,2.65v.08c0,1.58-1.09,2.67-2.58,2.67s-2.56-1.13-2.56-2.65Zm4.27,0v-.07c0-1.21-.67-1.99-1.71-1.99s-1.71,.78-1.71,1.98v.08c0,1.19,.65,1.97,1.71,1.97s1.71-.79,1.71-1.97Z"/><path d="M177.81,106.01h.83v.83c.24-.49,.82-.92,1.68-.92,1.08,0,1.84,.59,1.84,2.11v3.2h-.83v-3.26c0-.92-.39-1.33-1.23-1.33-.77,0-1.46,.49-1.46,1.43v3.17h-.83v-5.22Z"/><path d="M183.58,109.79c0-1.21,1.28-1.62,2.61-1.62h.75v-.38c0-.83-.32-1.18-1.12-1.18-.72,0-1.12,.3-1.2,.94h-.83c.11-1.19,1.06-1.63,2.07-1.63s1.91,.41,1.91,1.87v3.44h-.83v-.66c-.39,.49-.86,.75-1.63,.75-.97,0-1.74-.47-1.74-1.54Zm3.36-.38v-.65h-.72c-1.05,0-1.82,.26-1.82,1.03,0,.54,.26,.88,.99,.88,.88,0,1.55-.45,1.55-1.26Z"/><path d="M189.59,103.52h.84v7.72h-.84v-7.72Z"/><path d="M194.41,109.06h.84c.11,.85,.45,1.57,1.89,1.57,.92,0,1.63-.54,1.63-1.35s-.37-1.15-1.73-1.37c-1.5-.23-2.39-.7-2.39-1.97,0-1.1,.95-1.94,2.3-1.94,1.43,0,2.32,.7,2.46,1.97h-.78c-.17-.9-.69-1.27-1.68-1.27s-1.49,.49-1.49,1.16,.26,1.06,1.72,1.28c1.59,.25,2.43,.73,2.43,2.08,0,1.2-1.05,2.11-2.47,2.11-1.91,0-2.59-1.05-2.72-2.27Z"/><path d="M200.9,108.68v-.08c0-1.6,1.14-2.68,2.54-2.68,1.09,0,2.11,.5,2.27,1.83h-.82c-.13-.83-.73-1.14-1.45-1.14-.95,0-1.68,.76-1.68,1.99v.08c0,1.28,.7,1.96,1.71,1.96,.74,0,1.41-.43,1.5-1.28h.77c-.11,1.13-1.02,1.97-2.28,1.97-1.46,0-2.56-1.03-2.56-2.65Z"/><path d="M207.18,103.52h.83v3.33c.24-.49,.82-.92,1.68-.92,1.08,0,1.84,.59,1.84,2.11v3.2h-.83v-3.26c0-.92-.39-1.33-1.23-1.33-.77,0-1.46,.49-1.46,1.43v3.17h-.83v-7.72Z"/><path d="M212.97,108.67v-.08c0-1.57,1.09-2.67,2.57-2.67s2.57,1.09,2.57,2.65v.08c0,1.58-1.09,2.67-2.58,2.67s-2.56-1.13-2.56-2.65Zm4.27,0v-.07c0-1.21-.67-1.99-1.71-1.99s-1.71,.78-1.71,1.98v.08c0,1.19,.65,1.97,1.71,1.97s1.71-.79,1.71-1.97Z"/><path d="M219.27,108.67v-.08c0-1.57,1.09-2.67,2.57-2.67s2.57,1.09,2.57,2.65v.08c0,1.58-1.09,2.67-2.58,2.67s-2.56-1.13-2.56-2.65Zm4.27,0v-.07c0-1.21-.67-1.99-1.71-1.99s-1.71,.78-1.71,1.98v.08c0,1.19,.65,1.97,1.71,1.97s1.71-.79,1.71-1.97Z"/><path d="M225.93,103.52h.84v7.72h-.84v-7.72Z"/></g></svg>