<svg xmlns="http://www.w3.org/2000/svg" viewBox="0 0 226.77 125.7"><defs><style>.prefix__b{fill:#00053e;fill-rule:evenodd}</style></defs><path d="M66.05 56.1c0-.71.39-1.06 1.18-1.06s1.18.35 1.18 1.06c0 .33-.1.6-.29.78-.2.19-.49.28-.88.28-.79 0-1.18-.36-1.18-1.06zm2.26 9.98h-2.16v-7.93h2.16v7.93zM77.9 66.09h-2.16v-4.63c0-.57-.1-1-.31-1.29s-.53-.43-.97-.43c-.61 0-1.04.2-1.31.61s-.4 1.08-.4 2.01v3.73h-2.16v-7.93h1.65l.29 1.01h.12c.24-.38.57-.67 1-.87.42-.2.9-.29 1.44-.29.92 0 1.62.25 2.1.75s.72 1.22.72 2.16v5.17zM83.47 64.5c.38 0 .83-.08 1.36-.25v1.61c-.54.24-1.2.36-1.99.36-.87 0-1.5-.22-1.89-.65-.39-.44-.59-1.09-.59-1.97v-3.82h-1.04v-.92l1.19-.72.62-1.67h1.38v1.69h2.22v1.62h-2.22v3.82c0 .31.09.54.26.68.17.15.4.22.68.22zM90.03 66.23c-1.28 0-2.28-.35-3-1.06-.72-.71-1.08-1.7-1.08-2.99s.33-2.36 1-3.08c.66-.73 1.58-1.09 2.76-1.09s1.99.32 2.62.96c.63.64.94 1.52.94 2.65v1.05h-5.11c.02.62.21 1.1.55 1.44.34.35.82.52 1.43.52.48 0 .93-.05 1.35-.15.43-.1.87-.26 1.33-.48v1.67c-.38.19-.78.33-1.21.42-.43.09-.95.14-1.57.14zm-.31-6.68c-.46 0-.82.15-1.08.44-.26.29-.41.7-.45 1.24h3.04c0-.53-.15-.95-.42-1.24-.27-.29-.63-.44-1.09-.44zM99.45 58c.29 0 .54.02.73.06l-.16 2.03a2.36 2.36 0 00-.64-.07c-.69 0-1.23.18-1.61.53-.39.35-.58.85-.58 1.49v4.04h-2.16v-7.93h1.64l.32 1.33h.11c.25-.44.58-.8 1-1.08.42-.27.87-.41 1.37-.41zM108.94 66.09h-2.16v-4.63c0-.57-.1-1-.31-1.29-.2-.29-.53-.43-.97-.43-.6 0-1.04.2-1.31.61s-.4 1.08-.4 2.01v3.73h-2.16v-7.93h1.65l.29 1.01h.12c.24-.38.57-.67 1-.87.42-.2.9-.29 1.44-.29.92 0 1.62.25 2.1.75s.72 1.22.72 2.16v5.17zM116.21 66.09l-.42-1.08h-.06c-.36.46-.74.78-1.12.95-.39.18-.89.27-1.51.27-.76 0-1.36-.22-1.8-.65-.44-.43-.66-1.05-.66-1.86s.29-1.46.88-1.86c.59-.4 1.48-.62 2.66-.66l1.37-.04v-.35c0-.8-.41-1.21-1.23-1.21-.63 0-1.38.19-2.23.57l-.72-1.46c.91-.48 1.92-.72 3.04-.72s1.88.23 2.45.7.85 1.17.85 2.11v5.29h-1.51zm-.64-3.67l-.84.03c-.63.02-1.1.13-1.4.34-.31.21-.46.52-.46.95 0 .61.35.92 1.05.92.5 0 .9-.15 1.2-.43.3-.29.45-.67.45-1.15v-.65zM123.29 64.5c.38 0 .83-.08 1.36-.25v1.61c-.54.24-1.2.36-1.99.36-.87 0-1.5-.22-1.89-.65-.39-.44-.59-1.09-.59-1.97v-3.82h-1.04v-.92l1.19-.72.62-1.67h1.38v1.69h2.22v1.62h-2.22v3.82c0 .31.09.54.26.68.17.15.4.22.68.22zM126.16 56.1c0-.71.39-1.06 1.18-1.06s1.18.35 1.18 1.06c0 .33-.1.6-.3.78-.2.19-.49.28-.88.28-.79 0-1.18-.36-1.18-1.06zm2.26 9.98h-2.16v-7.93h2.16v7.93zM137.89 62.11c0 1.29-.34 2.3-1.02 3.03-.68.73-1.63 1.09-2.84 1.09-.76 0-1.43-.17-2.01-.5-.58-.33-1.03-.81-1.34-1.44-.31-.62-.47-1.35-.47-2.18 0-1.3.34-2.3 1.01-3.02.68-.72 1.63-1.08 2.85-1.08.76 0 1.43.17 2.01.5s1.03.81 1.34 1.43c.31.62.47 1.35.47 2.18zm-5.48 0c0 .79.13 1.38.39 1.78.26.4.68.6 1.26.6s.99-.2 1.25-.6.38-1 .38-1.78-.13-1.37-.38-1.77c-.26-.39-.68-.59-1.26-.59s-.99.2-1.25.58c-.26.39-.38.98-.38 1.77zM147 66.09h-2.16v-4.63c0-.57-.1-1-.31-1.29-.2-.29-.53-.43-.97-.43-.6 0-1.04.2-1.31.61s-.4 1.08-.4 2.01v3.73h-2.16v-7.93h1.65l.29 1.01h.12c.24-.38.57-.67 1-.87.42-.2.9-.29 1.44-.29.92 0 1.62.25 2.1.75s.72 1.22.72 2.16v5.17zM154.27 66.09l-.42-1.08h-.06c-.36.46-.74.78-1.12.95-.39.18-.89.27-1.51.27-.76 0-1.36-.22-1.8-.65-.44-.43-.66-1.05-.66-1.86s.29-1.46.88-1.86c.59-.4 1.48-.62 2.66-.66l1.37-.04v-.35c0-.8-.41-1.21-1.23-1.21-.63 0-1.38.19-2.23.57l-.72-1.46c.91-.48 1.92-.72 3.04-.72s1.88.23 2.45.7.85 1.17.85 2.11v5.29h-1.51zm-.64-3.67l-.84.03c-.63.02-1.1.13-1.4.34-.31.21-.46.52-.46.95 0 .61.35.92 1.05.92.5 0 .9-.15 1.2-.43.3-.29.45-.67.45-1.15v-.65zM160.17 66.09h-2.16V55.05h2.16v11.04zM71.68 77.5c0 .81-.28 1.43-.85 1.86s-1.41.64-2.54.64c-.58 0-1.07-.04-1.48-.12-.41-.08-.79-.19-1.14-.34v-1.79c.4.19.85.35 1.36.48.5.13.95.19 1.33.19.79 0 1.18-.23 1.18-.68 0-.17-.05-.31-.16-.41s-.28-.23-.54-.36c-.25-.13-.6-.29-1.02-.47-.61-.26-1.06-.49-1.35-.71-.29-.22-.49-.47-.62-.75s-.19-.63-.19-1.04c0-.7.27-1.25.82-1.63.55-.39 1.32-.58 2.32-.58s1.88.21 2.79.62l-.65 1.56c-.4-.17-.77-.31-1.11-.42-.34-.11-.7-.16-1.06-.16-.64 0-.96.17-.96.52 0 .19.1.36.31.5s.66.35 1.35.63c.62.25 1.07.49 1.36.7.29.22.5.47.64.75s.21.62.21 1.01zM76.59 79.99c-2.47 0-3.7-1.35-3.7-4.07 0-1.35.34-2.38 1.01-3.09.67-.71 1.63-1.07 2.89-1.07.92 0 1.74.18 2.47.54l-.64 1.67c-.34-.14-.66-.25-.95-.34-.29-.09-.58-.13-.88-.13-1.13 0-1.69.8-1.69 2.4s.56 2.33 1.69 2.33c.42 0 .8-.05 1.16-.17.35-.11.71-.28 1.06-.52v1.85c-.35.22-.7.38-1.06.46-.36.08-.81.13-1.35.13zM88.16 79.85H86v-4.63c0-1.14-.42-1.72-1.28-1.72-.6 0-1.04.21-1.31.62-.27.41-.4 1.08-.4 2v3.73h-2.16V68.81h2.16v2.25c0 .18-.02.59-.05 1.24l-.05.64h.11c.48-.78 1.25-1.16 2.3-1.16.93 0 1.64.25 2.12.75.48.5.72 1.22.72 2.16v5.17zM97.6 75.87c0 1.29-.34 2.3-1.02 3.03-.68.73-1.63 1.09-2.84 1.09-.76 0-1.43-.17-2.01-.5-.58-.33-1.03-.81-1.34-1.44-.31-.62-.47-1.35-.47-2.18 0-1.3.34-2.3 1.01-3.02.68-.72 1.63-1.08 2.85-1.08.76 0 1.43.17 2.01.5s1.03.81 1.34 1.43c.31.62.47 1.35.47 2.18zm-5.48 0c0 .79.13 1.38.39 1.78.26.4.68.6 1.26.6s.99-.2 1.25-.6.38-1 .38-1.78-.13-1.37-.38-1.77c-.26-.39-.68-.59-1.26-.59s-.99.2-1.25.58c-.26.39-.38.98-.38 1.77zM106.59 75.87c0 1.29-.34 2.3-1.02 3.03-.68.73-1.63 1.09-2.84 1.09-.76 0-1.43-.17-2.01-.5-.58-.33-1.03-.81-1.34-1.44-.31-.62-.47-1.35-.47-2.18 0-1.3.34-2.3 1.01-3.02.68-.72 1.63-1.08 2.85-1.08.76 0 1.43.17 2.01.5s1.03.81 1.34 1.43c.31.62.47 1.35.47 2.18zm-5.48 0c0 .79.13 1.38.39 1.78.26.4.68.6 1.26.6s.99-.2 1.25-.6.38-1 .38-1.78-.13-1.37-.38-1.77c-.26-.39-.68-.59-1.26-.59s-.99.2-1.25.58c-.26.39-.38.98-.38 1.77zM110.54 79.85h-2.16V68.81h2.16v11.04zM123.8 75.87c0 1.29-.34 2.3-1.02 3.03-.68.73-1.63 1.09-2.84 1.09-.76 0-1.43-.17-2.01-.5-.58-.33-1.03-.81-1.34-1.44-.31-.62-.47-1.35-.47-2.18 0-1.3.34-2.3 1.01-3.02.68-.72 1.63-1.08 2.85-1.08.76 0 1.43.17 2.01.5s1.03.81 1.34 1.43c.31.62.47 1.35.47 2.18zm-5.48 0c0 .79.13 1.38.39 1.78.26.4.68.6 1.26.6s.99-.2 1.25-.6.38-1 .38-1.78-.13-1.37-.38-1.77c-.26-.39-.68-.59-1.26-.59s-.99.2-1.25.58c-.26.39-.38.98-.38 1.77zM129.97 73.54h-1.87v6.31h-2.16v-6.31h-1.19V72.5l1.19-.58v-.58c0-.9.22-1.56.67-1.98.44-.41 1.16-.62 2.14-.62.75 0 1.41.11 1.99.33l-.55 1.59c-.44-.14-.84-.2-1.21-.2-.31 0-.53.09-.67.27-.14.18-.21.41-.21.7v.5h1.87v1.62zM68.66 93.76c-.94 0-1.67-.36-2.2-1.08-.53-.72-.79-1.72-.79-3.01s.27-2.31.81-3.04 1.28-1.09 2.22-1.09c.5 0 .94.09 1.31.28.37.19.7.48.99.88h.06l.19-1.01h1.83v11.42h-2.17v-3.33c0-.29.03-.69.09-1.19h-.09c-.23.38-.54.67-.92.87s-.82.3-1.33.3zm.77-1.69c.55 0 .95-.16 1.21-.47s.39-.86.42-1.65v-.26c0-.85-.13-1.46-.39-1.83-.26-.37-.68-.55-1.27-.55-1.02 0-1.53.8-1.53 2.4 0 .79.13 1.39.38 1.78s.65.59 1.18.59zM75.25 83.64c0-.71.39-1.06 1.18-1.06s1.18.35 1.18 1.06c0 .33-.1.6-.29.78-.2.19-.49.28-.88.28-.79 0-1.18-.36-1.18-1.06zm2.25 9.98h-2.16v-7.93h2.16v7.93zM87.1 93.62h-2.16v-4.63c0-.57-.1-1-.31-1.29-.2-.29-.53-.43-.97-.43-.6 0-1.04.2-1.31.61s-.4 1.08-.4 2.01v3.73h-2.16v-7.93h1.65l.29 1.01h.12c.24-.38.57-.67 1-.87.42-.2.9-.29 1.44-.29.92 0 1.62.25 2.1.75s.72 1.22.72 2.16v5.17zM96.26 93.63c0 1.14-.33 2-1 2.59-.66.59-1.65.88-2.97.88-1.16 0-2.15-.16-2.97-.47V94.9c.96.41 1.99.61 3.09.61s1.67-.6 1.67-1.8v-.16l.06-.97h-.06c-.51.78-1.26 1.17-2.25 1.17s-1.69-.37-2.21-1.1-.78-1.73-.78-2.99.27-2.31.81-3.04 1.29-1.09 2.24-1.09 1.74.39 2.3 1.16h.06l.18-1.01h1.83v7.95zm-3.65-1.57c.58 0 1-.17 1.25-.5.25-.33.38-.87.38-1.62v-.26c0-.85-.13-1.46-.39-1.83-.26-.37-.68-.56-1.27-.56-1.02 0-1.53.8-1.53 2.4 0 .79.13 1.39.38 1.78s.65.59 1.18.59zM101.03 93.76c-.93 0-1.66-.36-2.2-1.08s-.8-1.73-.8-3.01.27-2.31.81-3.04 1.29-1.09 2.24-1.09c1 0 1.76.39 2.28 1.16h.07c-.11-.59-.16-1.12-.16-1.58v-2.54h2.17v11.04h-1.66l-.42-1.03h-.09c-.49.78-1.24 1.17-2.25 1.17zm.76-1.72c.55 0 .96-.16 1.22-.48.26-.32.4-.87.42-1.64v-.23c0-.85-.13-1.46-.39-1.83s-.69-.55-1.28-.55c-.48 0-.86.2-1.12.61-.27.41-.4 1-.4 1.78s.14 1.37.4 1.76c.27.39.66.59 1.16.59zM112.75 93.62l-.42-1.08h-.06c-.36.46-.74.78-1.12.95-.39.18-.89.27-1.51.27-.76 0-1.36-.22-1.8-.65-.44-.43-.66-1.05-.66-1.86s.29-1.46.88-1.86c.59-.4 1.48-.62 2.66-.66l1.37-.04v-.35c0-.8-.41-1.21-1.23-1.21-.63 0-1.38.19-2.23.57l-.72-1.46c.91-.48 1.92-.72 3.04-.72s1.88.23 2.45.7.85 1.17.85 2.11v5.29h-1.51zm-.64-3.67l-.84.03c-.63.02-1.1.13-1.4.34-.31.21-.46.52-.46.95 0 .61.35.92 1.05.92.5 0 .9-.15 1.2-.43.3-.29.45-.67.45-1.15v-.65zM123.7 89.64c0 1.29-.34 2.3-1.02 3.03-.68.73-1.63 1.09-2.84 1.09-.76 0-1.43-.17-2.01-.5-.58-.33-1.03-.81-1.34-1.44-.31-.62-.47-1.35-.47-2.18 0-1.3.34-2.3 1.01-3.02.68-.72 1.63-1.08 2.85-1.08.76 0 1.43.17 2.01.5s1.03.81 1.34 1.43c.31.62.47 1.35.47 2.18zm-5.48 0c0 .79.13 1.38.39 1.78.26.4.68.6 1.26.6s.99-.2 1.25-.6.38-1 .38-1.78-.13-1.37-.38-1.77c-.26-.39-.68-.59-1.26-.59s-.99.2-1.25.58c-.26.39-.38.98-.38 1.77z"/><g><path class="prefix__b" d="M62.93 9.1c-.08.28.11.52.21.77-.09.13-.25.19-.41.26-.01.17.09.22.05.41-.06.06-.18.06-.31.05-.03.51.71.62.46 1.03-.31-.2-.53-.07-.87 0 .03.16.25.13.31.26-.03.16-.14.07-.26.05 0 .24.17.31.15.56-.46.02-.63-.24-.87-.31.04.29.26.27.36.72-.21.09-.3.1-.56.05-.46.61-1.5-.07-2.05.26-.13 0-.01-.17 0-.2 0-.1-.2.09-.2-.1-.11.04.01.32-.2.26-.09-.1 0-.07 0-.21-.24.24-1.01.21-1.08 0 .05 0 .04.06.05.1.11-.17.31-.24.41-.41-.28-.1-.55-.13-.87-.05 0 .25.34.33.1.51-.16.04-.1-.14-.26-.1.06-.06.06-.18.05-.31-.1.05-.16.25-.31.1-.53.54-1.32.18-2 .36-.29-.26-.61.06-.98.15v-.15c-.11.04-.28.03-.31.15-.01-.14-.26-.25-.26 0-.21-.28.27-.31.26-.56-.05-.2-.37-.07-.46 0 .08.1.18-.05.2.15.08.19-.23.01-.15.21-.08-.04-.2-.04-.15-.21h-.36c-.05.19.19.08.15.26-.11.01-.1.14-.15.2-.1-.19-.36-.15-.51-.15 0 .21-.1.07-.31.21-.06-.34.76-.26.41-.72-.12.02-.1.18-.26.15-.02-.12.09-.11.05-.26-.25-.09-.24.12-.41-.05-.09.18-.01.24 0 .41-.07.07-.22.05-.36.05-.07.13.13.25-.05.41-1.15 0-2.13-.12-3.13.05-.16.04-.07-.17-.21-.16-.31.05-.14.41-.41.41.12-.09.1-.23 0-.36-1.74.09-3.24.17-4.98.51.04.06.07.14.05.26-.08-.02-.04-.16-.21-.1-.23.63-.54 1.25-.62 2.05.34.09.53.32.62.67.04.04.28-.02.26.21 1.75-.05 3.57.2 5.6-.21.87.22 1.56.12 2.52.21.02.08.16.04.1.21.28.02.36-.09.21-.31.08.07.29-.02.36-.1.16.08-.04.23 0 .36.09 0 .13-.04.15-.1.22.42.89-.21 1.28.1.12-.12-.09-.21-.26-.21.42-.14.85.12 1.34.21 1.04-.5 2.7.29 3.8.05.8.31 1.79.08 2.67.2.12.02.22.18.36.21.14.03.3-.08.41-.05.19.04.42.33.62.1.41.1.83.15 1.18-.21.35.2.68.42 1.03.62.26-.17.48-.35.82-.31.02.19.22.19.26.36.35.04 1.45 1.06 1.75 1.59.26.46.64 1.28.15 1.64.03.17.15.18.05.36-.21 0-.16-.25-.31-.31-.07.05-.19.05-.2.15.07.17.2.28.41.31.04.19-.2.11-.21.26-.18.03-.13-.18-.31-.15-.06.23-.26.32-.51.36-.09.2-.23.38-.41.36-.05.19.19.08.15.26-.24-.05-.23-.12-.51-.05-.03.26.28.17.26.41-.05.13-.1.27-.26.31 0 .26.24.27.46.31-.24.4-.03.83.21 1.13 0 .17-.15.2-.1.41-.18-.03-.25.06-.36.1.03.19-.03.27-.1.36-.16.04-.19-.05-.31-.05-.15.03-.08.3-.2.36.12.17.21.37.36.51-.3.21-.19.81 0 1.08-1.54.46-2.52-.7-4.06-.41-.12-.16-.29-.25-.51-.31.31-.45.91.26 1.23-.1-.52-.2-1.2-.24-1.8-.36-.08.04.13.2.05.41-.1.05-.22.09-.26.21-.14-.16-.01-.2-.36-.21-.1-.1 0-.13 0-.26-.27.06-.08.2-.1.41-.33-.04-.53.1-.72-.05.3-.09.14-.37.51-.41-.02-.32-.47-.21-.67-.36-.07.1-.21.13-.26.26-.69-.16-1.69-.12-2.77-.21.14.08.08.15 0 .26.13.18.2.1.36.21-.18.15-.35.01-.67.05.02-.23.15-.15.26-.21-.49-.08-1.25-.18-1.8-.1-.15.06.22.15.05.26-1.63-.08-2.91.13-4.11.26.09-.25-.45-.04-.46.1-.09-.05-.09-.18-.15-.26-.12.1-.21.23-.41.26 0-.24-.18-.12-.15-.31-.28.02-.51-.14-.62.1-.28-.3-.74.08-.92-.1-.11.01-.05.19-.15.21-.16.02-.18-.13-.1-.21-.33 0-.75-.07-.82.21-.15.05-.09-.11-.1-.21-.3 0-.54 0-.72.15-.01-.08.05-.09.05-.15-.58.21-1.77.07-2.52.46-.04.44-.12.74-.26.97.35.25.36.56.82.72.12.02.06-.15.15-.15.43.07.98.48 1.34.15.13 0 .18.09.26.15.78-.37 1.56.11 2.26-.21.23.14.89.23 1.03 0 .25.19.56.17.87 0 .13 0 .16.08.26.1 2.64.19 5.05-.15 7.96 0 .11-.05.23-.08.31-.15.71.37 1.86-.04 2.62.46 1.74.16 3.72.3 5.34.36.21.14.5.23.67.05.34.1.75.27 1.08.1.06.21.22.03.36.05.06.21.67.06.97.1.59.08 1.12.36 1.64.41.21.02.44-.08.67-.05.38.05.7.32 1.13.36.12.01.24-.06.36-.05.33.03.71.23 1.08.1.13 0 .13.11.21.15a.34.34 0 01.26-.05c.16.01.2.14.31.2.83.01 1.54.18 2.26.36.32-.01.51-.02.82-.05.65-.06 1.31.2 1.75.1.26.3.87.17 1.28.41.17-.02.34-.04.41-.15.32.1.39-.09.77-.05.55.56 1.6.42 2.21.72.06-.12.14-.2.31-.21.15 0 .22.09.26.21.18.03.13-.18.31-.15 0 .12.09.15.05.31.55.06.49.13 1.08.15.12-.02.17-.37.31-.2.21-.02.03.11.05.2.79.45 2.05.22 3.23.41.24-.19.8-.29.98.05.22-.15.66-.12.82 0 .1 0 .04-.17.15-.15 1.02.23 2.19-.19 3.44.05.38-.2 1-.02 1.44.05.79-.19 2 .22 2.57-.05.49.08.73.19 1.23 0 0 .06.01.09.05.1.86-.03 1.99.14 3.24.21.03.04.05.08.05.15.54.17.92-.17 1.23-.26.46-.12 1.52.04 1.64.36.87-.14 1.36.26 1.85.46.03-.06.24-.2.1-.26.54-.22.92.12 1.59-.05.1.1-.02.1-.05.2 2.4.18 5.17.79 8.06 1.18-1.21-.05-2.2-.19-3.29-.26.18.09.39.15.62.21.02.14-.43.16-.05.21-.21.12-.65 0-.87.1 2.05.63 4.62.67 6.83 1.18.05-.04.12-.05.21-.05.02-.13-.32-.15-.36-.05-.09-.17.2-.11.36-.15-.45-.12-.87-.12-1.34-.31.13-.15.33.04.51 0 .05-.19-.2-.07-.31-.1-.02-.21-.03-.13-.1-.31.28.19.78.21 1.08.05-.65-.16-1.93-.26-2.93-.41 1-.13 2.68.03 3.9.26.06.26.35.16.51.21.02.29.29.33.36.56h-.56c.11.13.25.23.46.26.11.36-.23.5-.46.36-.2.2.09.6.05.82.49.07.56.76.41 1.28-.16 0-.34.16-.46.05-.09.05-.11.16-.1.31-.16.03-.18-.09-.36-.05.05-.11.08-.23.15-.31-.26-.11-.45-.15-.62-.26-1.13.37-2.68.05-3.7.21 0-.09-.04-.13-.1-.15-.58.04-1.16.06-1.69.2 1.22.45 2.8.36 4.06.31.35.09.58.02.87-.15-.03.16.09.18.05.36-.73.24-1.47.35-2.41.46-.02.14-.04.07-.1.21-.3-.26-.71.15-.82.41-.45-.06-1.18.46-1.44.31-.1.23-.21.03-.21.26-.17-.02-.06-.27.1-.26-.04-.12-.29-.02-.41-.05-.2.02-.11.33-.36.31-.24 0 .02-.21-.1-.26-.07.1-.1.24-.26.26-.63-.3-.99-.17-1.75.15-.06.06-.06.18-.05.31-.12-.07-.12.03-.21-.1-.16 0-.38.26-.1.26-.27.08-1-.13-1.33.05.04.05.09.08.15.1-.14.06-.3.11-.36.26.05.12.34 0 .31.21-.96 0-1.83 0-3.13.05-.12.03 0 .32-.1.36-.37-.1-.35.13-.67.1-.01-.09.09-.13 0-.15.08-.26.43.06.56-.1-.13-.09-.17-.06-.05-.21-.32-.06-.41.31-.72.1-.06.14-.25.16-.36.26-.04.16-.04.1 0 .26-.29.28-.53.21-.92.21-.26.37-.61.37-1.08.46-.93-.35-1.89.21-2.52-.05-.06.24-.4-.1-.46.15-.07-.02 0-.09.05-.1-.08-.11-.22.15-.41.1.02-.24-.81.3-.98.56.06.07.2.08.26.15-.08.31-.39.37-.67.51-1.07.54-2.46.97-3.54 1.59-.33.19-1.04.02-1.44.15-.14.04-.11.27-.2.36-.33 0-.61.31-.87.2-1.18.68-2.55.55-3.8.67-.55.05-1.37.1-2.11.16-.13-.04-.29-.05-.36-.16-.07.1-.33.13-.51.05-.1.07-.22.12-.26.26-.26 0-.53-.34-.72-.1-.14-.22-.37-.26-.51-.05-.2-.04-.32-.16-.46-.26-.16-.04-.11.13-.21.15-.32-.08-.4-.39-.67-.51-.16.11.24.26.05.41-.16.1-.39-.11-.46-.26-.15.07-.02.18-.2.26-.44-.31-.68-.83-1.03-1.23-.03-.11.1-.07.1-.15-.12-.2-.41-.11-.67-.26-.1-.31-.32-.51-.51-.72-.13-.13-.11.11-.31.05-.54-1.31-2.52-1.63-3.39-2.62-.13 0-.21.03-.26.1-.04-.03-.11-.29-.21-.1-.19-.11.1-.17.1-.26-.31-.29-.98-.12-1.13-.46-.29.09-.27-.11-.51.05 0-.14.09-.1 0-.21-1.04-.28-2.1-.67-3.13-.82-.02-.08-.16-.04-.1-.21-.1.02-.14.1-.2.15-.88-.15-1.24-.32-2-.51.04-.25.1-.25.36-.21.09 0-.1-.26.1-.26.21-.02.03.11.05.2.24.04.28-.13.41-.2-.13-.29-.61-.12-.77 0-.02-.09.04-.1.1-.1-.48-.06-1.2-.26-1.8-.21-.24.02-.61.26-.77-.1-.71-.11-1.16.29-1.85-.21-.27.04-.35.11-.62.05-.12-.56-1.26-.42-1.75-.36-.75-.27-1.55-.34-2.26-.1-.06-.01-.05-.1 0-.1-.8-.24-1.91.11-2.67-.15-.07.05-.1.14-.2.15-.08-.1-.38-.19-.56-.05-.22-.36-.61.14-.92-.15-.05.06-.19.02-.15.15-.19-.05-.77-.19-.87.1-.21.02.02-.11-.05-.26-1.56-.2-2.89 0-4.21-.2-.68.24-1.67.17-2.26-.1-1.18-.09-2.16.21-3.59.15-.24.04.07-.13-.1-.15-.17-.05-.07.17-.15.21-.75-.04-1.55.24-2.46.31-.06.01-.05.1 0 .1-1.3.09-2.96.21-3.49.56-.89-.05-2.33.12-3.49.51-.11.17-.64.33-.77.15-.11 0-.16.04-.15.15-1.93-.1-4.1.29-5.65-.15-.1-.02-.16.01-.15.1-.07-.05-.1-.14-.15-.21-.33.18-.96.22-1.49.15-.01-.08.05-.09.05-.15-.2.07-.51.04-.51.31-.33-.12-.91-.09-.87.21-.18.02-.18-.13-.26-.21-.23.28-.51.39-.87.31-.02-.12.23.03.15-.15-.3-.1-.87.09-1.33.26.15.3.54-.12.67 0-.03.28-.21.11-.36.15-.38.12-.51.34-1.03.26.14-.11.01-.17.1-.31-.3-.02-.34.21-.67.15-.04.16.18.06.1.26-.62.1-1.06.38-1.49.67-.27-.27-.48.18-.77.2 0-.09-.04-.13-.1-.15.09-.21.31-.31.51-.41-.2-.11-.53.09-.72.15v.41c-.14.12-.36.21-.51.05-.14-.05-.12.32-.26.1-.07.02-.04.13-.05.2-.26-.18-.5.29-.92.36-.55.1-1.05-.04-1.39.36.05.16-.22.24-.31.41.19.02.13-.21.36-.15-.06.13-.13.25-.21.36-.12.01-.19-.01-.2-.1-.07.08-.15.16-.2.26-.92.11-1.45.61-1.8 1.28-.16.06-.28.17-.36.31-.08.01-.09-.05-.15-.05-.2.27-.65.51-.51.82-.43.4-.74.9-1.23 1.23-.08.04-.11.13-.1.26-.16.06-.13-.08-.21-.1-.18.09-.22.79-.2.31-.19.08-.48.34-.31.62-.32.26-.67.5-.87.87-.11.02-.1-.07-.1-.15-.14.16-.23.09-.46.15-1.42.35-1.52 1.94-3.59 1.64-.62-.09-1.26-.51-1.8-.67-.49-.14-1.06-1.18-1.44-1.74-.4-.59-.71-1.16-1.13-1.75v-.26c-.08-.11-.09-.29-.26-.31.04-.97-.73-1.11-.98-1.8-.3-.25-.36-.73-.72-.92-.12-.13.1-.24.15-.36-.18-.09-.3-.25-.41-.41-.03-.19.03-.27.1-.36-.08-.09-.22-.12-.31-.21 0-.13.03-.25.1-.31-.18-.09-.26-.29-.46-.36 0-.16.11-.2.15-.31-.39-.17-.09-.44-.1-.87.2-.11.43-.19.46-.46-.11-.17-.38.08-.46-.05.03-.14.25-.1.36-.15 0-.13.1-.16-.05-.21.06-.13.13-.25.26-.31.19-1.06.98-1.79 1.13-2.72.51-.59.95-1.14 1.28-1.8.69-.34 1.47-.74 2.36-.51.78-.49 1.62-.03 2.26-.46.38.07.44-.06.82-.05.17-.05.07.17.15.2.2-.09.26-.32.62-.26.11.1.16.25.2.41.36-.06.35.05.77 0 .05.1.09.22.21.26.35-.38.94-.12 1.39-.15.07-.05.07-.17.15-.21-.08-.24-.36-.29-.62-.36.09-.38-.46-.34-.31-.62a.277.277 0 00-.21-.05c-.4-.73-1.15-1.33-1.34-2.26-.03-.17.02-.37 0-.51-.1-.59-.58-1.2-.21-1.9-.46-.39-.16-1.1-.15-1.59.34-.44.24-1.41.21-2.05-.02-.3-.08-.58-.15-.77.25-.78-.27-2.68 1.39-2.46.7-.4 1.91-.52 2.46-1.28.41.03.71-.18.62-.51.46.26.6-.26 1.08 0 .21-.04.09-.26.15-.36.35.13.74.05.98.2.1-.05.08-.23.26-.2.1.07.27.07.31.2.11-.01.01-.23.15-.2.21.19.51-.13 1.08-.21.35-.05.77.09.97.05.34-.06.53-.36.92-.36.74 0 1.59-.27 2.16-.15.58-.31 1.65-.13 2.1-.56.1 0 .07.14.21.1 1.73-.53 4.07-.44 5.65-.77.25.22 1.11.14 1.64.05-.02-.05-.04-.09-.1-.1.09-.12.44-.07.41.1.38-.14.75-.06 1.23-.15.14-.05-.07-.14.05-.21.17.17.62-.04.82-.15.09-.88-.01-1.65-.31-2.51-.02-.12-.28 0-.26-.15-.25.36-.61.16-.92.15.08-.26.28-.08.51-.15-.37-.21-.99-.15-1.54-.1-1.17.11-2.59.18-3.95.36-1.05.14-2.18.42-3.03.46-.34.02-.63-.08-.87.15-1.94.24-4.31.86-5.8 2.1.04.15-.07.13-.05.26-.72.29-1 1.18-1.95 1.28-1.02.11-1.66-.25-2.41-.77a.75.75 0 00-.41-.41c-.12-.29-.24-.58-.41-.82-.01-.52-.18-.88-.56-1.03-.15-.28-.24-.62-.56-.72-.1-.41-.52-.51-.77-.77.31-.82.5-1.35.2-2.21-.15-.44-.5-.97-.2-1.59 0-.1-.03-.17-.1-.21.15-.41.21-.78.26-1.18.02-.12-.15-.06-.15-.15.03-.32.19-.5.41-.62-.08-.07-.05-.26-.05-.41.05-.04.12-.06.21-.05 0-.69.8-.97 1.08-1.54.15-.04.13.07.26.05.23-.65 1.12-.57 1.23-1.23.56-.05.67-.48 1.08-.56.23.25.44.1.67-.05.19-.04.13.18.21.26.42-.28 1.14-.46 1.69-.31-.03.16.1.16 0 .26.32-.05.48-.21.67.1.15-.05.53-.19.56.1.72-.08 1.1-.02 2-.21.28.16.77.22.98-.05.82.03 1.51.09 2.36-.1.11.05.2.1.31.15.42-.43 1.29.07 1.59-.31.22.19.49.12.77 0 .81.13 2.04.11 3.03-.05.48.2 1.09.11 1.54 0 .17-.04.29.06.46.05.24-.01.45-.17.67-.15.4.03.88.12 1.34-.15.11-.03.07.1.15.1.43-.23.56-.7.82-.98-.24-.52.28-.67 0-1.13.08-.06.11-.17.26-.15-.12-.58.29-.99.36-1.54.16-.02.2.07.31.1.15-.33.64-.32.72-.72.3.06.39.42.72.31.15-.03-.05-.11 0-.21.3.13.41-.06.72-.05.06-.02.01-.25.1-.36.5-.08.98-.1 1.39 0 .42.3.7.45 1.23.67.06.21-.09.39.26.36-.03.2.04.57 0 .62.07.08.25.05.31.15-.2 1.09.29 1.52.72 2.21.37-.15.64.15.77.41.95-.02 1.87-.1 2.72-.1.12 0 .24.11.36.1.24 0 .46-.13.72-.15.77-.06 1.57.06 2.21-.1.28.26.62-.1.92.21.79-.12 1.71 0 2.62-.05.32-.02.66-.18.98-.15.93.06 2.16-.08 3.13-.05 1.32.04 2.68.12 3.95.21.11-.05.23-.08.31-.15.15 0 .17.13.31.15.82-.14 1.62.19 2.36.2.54-.19 1 .12 1.54.31.38-.09.53.09.92.1.58.74 1.83 1.85.98 3.08-.94.07-1.53.7-2.57.62-.22.21-.54.32-.87.41zm-11.29 2.41c-.01.23-.41.07-.41.31.16.13.6.34.72.05.08.05.2.04.15.21.17-.02.15-.23.31-.26.13.07.18.23.36.26.11-.15.26-.25.36-.41-.52-.05-.98-.2-1.33.1.14-.14-.07-.19-.15-.26zm1.85.41c.12.02-.09.1-.1.15-.08-.07-.26-.19-.36-.15.07.03.1.11.1.21.14.1.32-.1.41-.1.32-.02 1.19.39 1.39-.05-.33.14-.21.1-.62.1.03-.18-.33-.17-.46-.05.17-.11-.35-.08-.36-.1zm4.93-.05c-.35 0-.4.24-.51.36.48.07.73.16 1.03-.1-.03 0-.06 0-.05-.05 0-.03 0-.06-.05-.05-.1.2-.26-.14-.26.15.03-.18-.18-.13-.15-.31zm-1.23.36c0-.07.15-.28-.05-.31-.02.14-.22.29.05.31zm.1.05c.19-.1.31.03.56 0 .03-.25-.51-.13-.56 0zm2.36 0c-.03.2.36.09.31-.05-.13 0-.25 0-.31.05zm-5.8.36c-.08.16.34.16.26 0-.01-.12-.23-.03-.26 0zm1.18.15c0 .09-.01.16-.05.2.22-.05.44-.07.56-.1-.07-.09.08-.19.05-.31-.29.05-.26.14-.56.21zm3.34.1c.2.15.41-.17.2-.31-.03.14-.21.13-.2.31zm-7.24 4.26c.14.01.17-.07.15-.21-.13-.01-.17.07-.15.21zm-1.44 9.03c.43.06.59-.03.98-.1-.19-.35-.75 0-.98.1zm3.95-.05c.05.38 1.05.38.98-.1-.44-.03-.63-.02-.98.1zm-4.88 0c-.18-.04-.07.21-.26.15.02-.13-.07-.17-.21-.15.07.43.67.09.51 0 0 .03-.04.06-.05 0zm-16.33 2.16c-.22.02-.59.16-.67.15-.05-.2.2-.21.05-.36-.59.16-1.21-.01-1.64.31-.25-.38-.79.24-1.13.1-.11.17-.81.3-1.39.31-.07-.03 0-.2-.1-.2-.29.27-.62.39-1.08.31-2.27.57-4.23 1.03-6.31 1.75 0 .13-.08.16-.15.21-1.42.17-2.08 1.23-3.29 1.75-.04.16-.19.22-.26.36.22-.13.25.18.46.21.07-.08.04-.27.15-.31.23.14.21-.13.41-.15.81.27 1.19-.44 2.05-.41.16-.13.15-.44.41-.46.09.05.18.1.15.26.26-.05.36-.05.51.1.23-.12.48-.21.67-.36.22.14.27.14.62.1.45-.41 1.08-.17 1.59-.36.12.05.23.27.36.15.16-.1-.01-.24.21-.31.4.18.77-.06 1.13.15.1-.11.2-.21.36-.26.25.24.52-.16.82 0 .14-.22.36-.09.51-.1 1.71-.17 3.79-.35 5.39-.51-.03-.21.41-.27.67-.36-.05-.67.61-1.02.51-1.9-.14.05-.31.06-.51.05-.03-.16.12-.21-.05-.26 0 .14-.67.18-.46.05zm81.67 6.52c-.12-.02-.19-.08-.36-.05-.06.17.35.13.36.05zm-3.08 1.8c.22.07.64.22.87.1-.27-.06-.53-.12-.72-.26.04.26-.21-.09-.15.15zm1.18.21c.77.07 1.95.31 2.52.26.22.35.54.12.87 0 .46.24 1.64.35 2.1.1-1.5-.25-3.38-.15-4.41-.51.06-.16.37.14.46-.05-.61-.12-1.25-.07-1.54.21zm4.57 1.44c.04.2.26.22.26.46.28.2.56.01.82 0 .04 0 .14.1.21.1.11 0 .22-.11.31-.1.14.01.27.14.41.15.52.06 1.09 0 1.69-.15-.57-.21-.94-.26-1.39-.21 0-.09-.01-.16-.05-.21-.83.06-1.62-.32-2.26-.05z"/><path class="prefix__b" d="M12.78 76.91c.08-.01.09.05.15.05.05-.15.11-.3.1-.51.11-.03.15-.13.31-.1.27-.67.93-.96 1.23-1.59.08-.01.09.05.15.05.08-.42.63-.36.67-.82.49-.37.72-.99 1.23-1.33.25-.86 1.01-1.22 1.28-2.05.26-.08.39-.3.41-.62.32.03.16-.42.46-.41.65-1.21 1.17-2.82 1.85-4.16 0-.08.02-.2-.05-.2.45-.67.69-1.63 1.03-2.41.04-.18-.06-.22-.1-.31 0-.17.17-.18.15-.36h.26c-.07-.64.14-1.01.1-1.49.01-.11.14-.1.2-.15.03-.79.17-1.46-.05-1.95.12-.19.34-.27.41-.51-.24-.53.02-1.26.05-1.8-.28-.26-.14-.66-.26-1.08.13-.07.19-.19.36-.1v-.26c-.04-.11-.23-.08-.31-.15.04-.56.24-.72.15-1.39.14 0 .1.09.21 0 0-.26-.1-.27-.26-.46.25-.13 0-.52.26-.56-.17-.14-.14-.69.05-.77-.32-.23.09-.93-.41-1.03.38-.43.03-.94.31-1.44-.45-.71-.05-1.46-.51-2.05.36-.64-.04-1.3.31-2-.07-.11-.18-.19-.41-.15-.04-.32.23-.31.31-.51.18.02.13.14.31.05.18-.31.44-.74.1-1.03.27-.52.93-.47 1.18-1.08.48-.08.88-.23 1.39-.1.13-.23.49-.23.77-.31-.17.66 1.3.26 1.03 1.03.33-.09.49.05.82 0 .04.14.18.39 0 .46.11.18.42-.13.72.05.14-.05.17-.21.26-.31.23.16.36.09.56.26.29-.14.53-.01.87-.05.78-.09 1.47-.39 2.26-.51 3.28-.5 6.81-1.33 9.96-1.64.92-.09 1.81-.31 2.72-.36.97-.05 1.89-.21 2.93-.1 1.03.1 2.05.16 2.98-.21-.02.12.09.11.05.26.55-.2 1 .33 1.44 0-.01.08.05.09.05.15.25-.11.42-.09.72-.2.05.17.21.24.26.41.12-.03.23-.07.41-.05-.04.27.26.19.31.36.16.04.1-.14.26-.1-.02.14.2.04.15.21.9-.15.8.64 1.54.51.06.26.48.41.67.46-.09.78 1.18.63 1.23 1.44.1.09.06 0 .2 0-.42.77.03 1.7-.51 2.21.15.3-.13.48-.26.67-.01.19.09.25.1.41-.17.24-.47.54-.26.87-.33.68-.55 1.5-.56 2.36-.42.22-.4.68-.46 1.08-.19 1.22-.18 2.71-.15 3.85-.03.14-.08.26-.15.36.03.05.12.05.1.15-.04.15-.23.14-.2.36.02.07.13.04.2.05-.02.12-.18.1-.15.26.03.15.11-.05.2 0 .03.07-.2.13-.05.15-.08.17-.13-.11-.26-.05-.15.11.07.27 0 .46.15.13.16.14.26.26-.31.25-.35.87 0 1.18 0 .15-.09.21-.1.36.01.06.1.05.1 0 .02.34-.57 1.42 0 1.69.02.14-.11.13-.2.15.1.31-.18.88-.15 1.23.01.16.18.63-.31.51.05.16.15.13-.05.21.3.41-.17.66.15 1.03.03-.05 0-.31.26-.26-.09.14 0 .48-.1.62-.07-.03-.1-.11-.1-.21-.12.39-.2.41-.15.98.22.07.11-.2.31-.15-.01.34-.06.65 0 .87.07-.05.1-.14.15-.21-.02.31-.36.49-.21 1.08.04.07.14-.03.26.05-.09.08-.11.24-.26.26.03-.08.08-.13.1-.21-.19-.02-.2.14-.26.26-.39-.27-.4.31-.21.56.21.02.23-.15.21-.36.24.07 0 .45.21.46-.09.43-.36.86-.15 1.28-.09-.01-.11.05-.05.05-.32-.08.08-1.02-.1-1.28-.2.59-.04.95-.21 1.75.18.01.27-.07.26-.26.06.15.22.19.26.36-.18 0-.33.41-.05.41-.09.17-.2.31-.26.51-.2-.26-.01-.55-.05-.97-.07.05-.1.14-.21.15.1.45-.1.75-.05 1.28-.11.06-.2.14-.31.21 0 .11.18.02.26.05-.12.14.08.28-.15.31 0 .06.09.04.15.05-.03.11-.08.11-.15.05.13.22-.12.19 0 .41.26.04.26-.19.46-.2-.03.1.1.12.1.05.17.24-.08.29-.15.36.08.04-.01.25.15.21-.04.05-.27.17-.1.26-.07.15-.23-.04-.31-.05-.07 1.6-.13 3.55-.15 5.39h-.15v.67c-.18-.03-.3-.08-.21-.26-.23.1-.2.45-.41.56-.07-.12-.11-.27-.15-.41-.19-.02-.03.38 0 .26 0 .17-.26 0-.36.26.22.06-.07.32.15.36-.04.19-.18 0-.26.1.21.26-.17.67.15.92 0 .16-.21.1-.26.21.28.09.18.28.31.46.29-.26-.03-.86.05-1.33.15-.02.2-.14.26-.26.17.09.27.1.46 0-.15-.06-.05-.18 0-.31.16.07.03.11.1.26.11-.01.01-.22.1-.26.15.17-.03.38.15.46.02-.13.18-.36.15-.36.05-.07.35.05.36.21-.07-.05-.31.07-.31.26-.05-.04-.12-.05-.21-.05-.14.49-.07 1.08-.05 1.64.22-.04.14-.37.15-.62.2.13.15.52 0 .67.08.07.06.25.26.21-.19.18-.2.4-.21.67-.25.07-.36.11-.36.36-.15-.29.01-.59-.1-.92-.15 0-.09.22-.26.21-.01-.28-.04-.27.05-.46-.13-.14-.34-.21-.46-.36-.22 0-.11.33-.26.41.15-.02.17-.18.26-.26.19.14-.04.24.05.36.06.12.17-.13.21-.21.22.15-.11.29-.15.46.02.28.32.8-.1.67.1-.06.14-.15-.05-.15.12-.22-.03-.44.15-.67-.06 0-.09-.01-.1-.05-.12-.02.03.23-.15.15.03-.04.05-.08.05-.15-.54.07-.02.41-.05.72-.08-.07-.2-.08-.15.1-.12-.05-.24-.1-.26-.26-.33.13-.33.59-.15.77-.17 0-.23.43-.05.46.16-.09.22-.29.31-.46.01.38 0 .43.05 1.03.21-.09.22-.05.41-.15.05.12.05.14 0 .26-.1-.02.08-.15-.15-.1-.09.12-.17.27-.41.36.06.21.02.37-.21.41.02.1.02.22.15.2-.16.22-.16-.23-.51-.05-.05-.41.1-.71 0-1.03.14-.14.21.05.36.05.03-.16-.09-.18-.05-.36-.09.2-.24.01-.46.05.08.29.05.72-.26.87.06.23.09.26.21.36-.05.08-.14.12-.21.05-.01.14.02.22.15.21-.03.19-.08.36-.15.51.03.12.08-.06.15.05-.2.14-.34.35-.46.57-.01.21.2.07.2.15.09.24-.26.36-.15.77.09-.06.04-.27.26-.2-.07-.07-.05-.22-.05-.36.11-.04.2-.04.31 0-.25.14-.25.52-.31.72.31.26-.15.94.15 1.34.12-.21.05-.6.15-.82.17.1.03.21.05.41.14 0 .22-.09.2-.26.19.09.11.19.1.41.24.03.37-.04.46-.15 0-.14-.14.12-.1-.1.05 0 .04-.06.05-.1.29-.02 0 .24.21.26-.21.14-.18.25-.41.41-.05.24.36.22.1.36.05.07.17.07.2.15.2-.14 0-.39.15-.62.19.06.1.08.15.26.07-.03.09-.11.1-.2.12-.09-.06.28 0 .46.09.11.33-.08.41-.15-.03.78-.16 1.51-.15 2.05.09 0 .13-.04.15-.1.13.15-.15.33-.2.46.15.24.37.43.56.36-.28.04.16.41.15.36.01.08-.15.02-.15.05-.1.4.16 1.27-.05 1.69-.16.06-.12-.08-.21-.1-.13.16.21.17.26.31-.07.25.04.51.26.62-.18.11.01.26-.1.41.2.25.27 1.05.31 1.75-.48.11-.46 1.06-1.13.67-.21.13-.17.51-.36.67-.12.02-.11-.09-.26-.05 0-.33-.25-.4-.31-.67-.09 0-.3-.04-.36-.21-.29.08-.53.23-.77.36-.43-.22-1-.3-1.44-.51-.41.38-1.05.48-1.18-.21-.35.02-.78.08-1.18 0-.45-.86-.34-1.83-.36-2.93-.05-.16.17-.07.15-.21.03-.11-.1-.07-.1-.15.41-1.77.21-3.58.41-5.13.08-.01.09.05.15.05.08-.04.11-.13.1-.26-.06-.07-.2-.08-.26-.15.03-.51.19-1.88.21-2.77.02-1-.26-1.75-.1-2.67-.07-.46-.14-1.06-.15-1.64 0-.26.11-.53.1-.77-.12-3.82.17-8.14.26-12.01-.03-.14-.13-.21-.15-.36.22-.63.11-1.81.15-2.77.11-2.23.04-4.57-.05-6.47-.35-.32.14-1.07-.31-1.49.14-.33.13-.99-.1-1.33-.11-.52.09-1.15-.05-1.8-.07-.33-.22-.66-.31-1.13-.02-.11.06-.13.05-.2-.01-.19-.2-.27-.26-.46-.02-.09.08-.11.05-.21-.11-.34-.34-.63-.36-.92-.02-.26.23-.68-.1-.98-.32-.19-.62-.16-.77-.46-.02-.11.07-.1.15-.1-1.6-.28-2.94.55-4.36.56-1.98.37-4.25.97-6.26 1.13-.11.06-.2.14-.31.21-1.71.33-3.54.39-4.98 1.13-.41 0-.69.13-.87.36-.42-.09-.54.37-.82.26-.23.29-.88.57-.67.97 0 .16-.11.2-.15.31.3.43 1.08-.05 1.54.2.9-.19 1.78-.15 2.72-.31 1.15-.19 2.38-.77 3.59-.31.55-.23 1.35-.03 1.8-.41.63.3 1.27-.2 1.9-.26.43-.04.85.31 1.23 0 .84.33 1.68-.24 2.52.05.1-.02.04-.2.21-.15.31.33.77.24 1.18.36.33.1.4.43.72.62.24.14.55.02.77.1.33.13.29.4.51.67.03.03.17-.03.21 0 .24.2.31.61.46.77-.12.1-.36-.02-.41-.15-.09.08.04.16-.1.26-.12.11-.33-.14-.31.15-.2-.04-.43-.26-.67-.1.06.23.17.41.21.67-.27.2-.55-.06-.51-.46-.35-.26-.92-.08-1.33.21.11.21.02.44-.1.56 0 .79 1.13.97.92 1.64.19.22.26.56.41.82-.45.11-.87-.36-1.34 0 .2.36.66.47.77.92-.13.09-.32-.1-.41-.21-.18.09-.11.44-.41.41.51.24 1.24.13 1.28.92-.14.13-.42.12-.56 0-.14.13.29.11.2.36-.16.25-.36-.17-.51-.05-.1 0 .08.19-.05.26-.32.06-.93-.04-1.18-.15.01-.06.1-.04.1-.1-.06-.1-.44.1-.57-.05.04-.17.2-.21.41-.2-.09-.33-.5.09-.67.15-.16-.07.07-.25-.05-.31-.18.27-.26.63-.67.67-.03.13-.05.21-.1.41-.92-.05-2.41.59-3.59.46-.1 0-.07.14-.21.1 0-.05.06-.04.1-.05-.39.05-1.18-.07-1.64.31-.02.01-.04.15-.05.15-.05.03-.04-.1-.05-.1-.28.04-.62.35-.92.36v-.1c-.16.09-.47.04-.56.2-.56-.26-1.26.38-1.85.26-.94.4-2.38.15-2.87.72-.08-.17-.24.05-.26-.15-.15.29-.6.29-.72.62-.11-.01.07-.14-.05-.21-.14 0-.22.09-.2.26-.9-.08-1.39.83-.87 1.69.23 0 .28.14.46 0 0 .22.37.06.46.05-.05-.15-.08-.06-.21-.05.59-.04 1.42-.08 2.21-.2-.02.13-.22.09-.26.2 1.26-.24 2.85-.32 4.26-.51.44-.06.92-.14 1.28-.36.2.21.29-.06.62 0-.22.3.74-.09 1.28-.15.62-.08 1.47 0 1.85.1.19.07.1-.14.26-.1-.06.31.42-.09.56.2.7-.09 1.37-.38 2.05-.31.58.06.96.52 1.54.46-.02.11.04.14.05.21.72 0 1.24.46 1.8.46.49.22.53.87 1.03 1.08.06.13.08.29.2.36.1.47-.64.39-.56.67-.25.14-.88.31-1.28.46-.3.36.08.89.26 1.23-.11.04-.17.13-.36.1.05.22.39.16.36.46-.2.12-.41-.06-.51.1.15.24.5.29.72.46v.16c-.21.15-.41-.05-.62-.05-.03.15-.17.2-.31.26.26.39.75.55 1.18.77-.32.33-.53-.14-.92.05.26.13.39.4.67.51-.18.49.05.79.15 1.23-1.14.21-1.77-.37-3.13-.1-.13-.04-.3-.05-.31-.2-.53.13-.89.07-1.54 0-.04-.1-.15-.04-.05-.16-.25-.03-.21.24-.51.16v-.16c-.04.15-.41-.13-.56.1-.11-.24-.45-.12-.82-.15-.18-.02-.39-.09-.56-.1-2.35-.13-4.67.69-7.19.98-.67.48-1.86.23-2.41.82-.25-.11-.45.21-.77.05-.14.29-.48.37-.62.67-.57-.02-1.43.61-2.21.41-.15.16-.27.34-.51.41v.21c-1.32 1.08-2.05 2.74-3.34 3.85.05.19-.13.15-.1.31-.18.09-.37.18-.41.41h-.26c-1.1 1.14-2.21 2.27-3.64 3.08-.09.01-.12.09-.1.21-.96.4-1.8.94-2.41 1.69-.19-.18-.4.05-.46.21-.2-.04-.36.04-.26-.1-.14-.04-.1.1-.21.1-.03.16.25.02.21.21-.13.05-.3.09-.36-.05-.16.04-.22.19-.36.26.02.07.13.04.21.05 0 .13-.1.18-.15.26-.16.04-.11-.13-.21-.15-1.05.59-1.91 1.48-3.03 1.85.04-.2.27-.21.41-.31-.31-.07-.57.05-.87.31-.24-.02.09-.22.1-.31-.33.06-.44.35-.82.36.02-.07.09-.08.1-.16-.87.17-1.34.65-2.21.67.07-.14.31-.1.31-.31-.08-.15-.26-.04-.31.1-.32-.21-.56.11-.87.21-.22-.15-.36-.09-.56 0-.65-.37-1.35-.1-1.75.41-.1-.05.13-.21.15-.31-.59.07-.92.07-1.54.2-.04.16-.04.1 0 .26-.76.11-1.21.28-1.85.56-.1-.13.12-.28-.15-.26.28-1.65 1.93-2.6 2.57-4.21.88-.56 1.41-1.68 2.21-2.16.19-.47.52-.81.97-1.03.56-.69.95-1.54 1.69-2.05.02-.14-.2.14-.15-.1.77-.02.9-1.07 1.59-1.34.28-.4.71-.66 1.08-.98v-.26s-.09.04-.1.1c.02-.16.57-.25.82-.46.43-.66 1.24-.95 1.49-1.8zM56 58.94c.23 0 .26-.32.05-.36 0 .14.02.29-.05.36zm-.21 2.46c.08 0 .19.02.21-.05-.17-.03-.07-.19-.05-.31-.17 0-.11.23-.15.36zm-1.23 2.26c.04.15-.07.13-.05.26.18-.03.13.12.31.21.07-.2-.05-.51.21-.72-.18-.03-.1-.31-.26-.36-.1.25.13.57-.21.62zm.26 1.08c-.15-.07.13-.41-.05-.51-.08.06-.11.7.05.51zM54.51 67c.1.09.04.34.26.31.16-.58-.23-1.13 0-1.59-.12-.35.22-.66-.1-.77-.11.71.05 1.57-.15 2.05zm1.23-.77c.09-.2.09-.69-.05-.82-.03.26-.04.56.05.82zm-.77.97c.19-.07.09-.11.2.05.03-.28.14-.56 0-.77-.08.3-.08.42-.2.72zm-.26.15c-.16.01-.29.05-.41.1v.36c.6-.14.67.57.82.87.02-.38.19-1.01 0-1.39-.02.17.07.44-.1.46a.803.803 0 01-.21-.31c-.03.15-.08-.08-.1-.1zm.15 2.1c.13.25.15.73-.05.98.27.11-.12.46 0 .56.32.06.08-.26.1-.36.09-.51.32-1.44.15-1.85.02.2-.14.38.05.46-.2-.04-.06.25-.26.21zm-.2 2.57c.07 0 .11.02.15.05.11-.13.04-.42-.1-.46-.04.18 0 .19-.05.41zm-.41 5.34c0-.13-.03-.24-.1-.31-.04.13-.09.3.1.31zm-.51.31v-.31c-.16.06-.12-.08-.21-.1-.12.16-.03.44.21.41zm-1.69 5.95c.16.06.16-.47 0-.41.04.2.04.21 0 .41zm-.05.77c.21.06.21-.36 0-.31v.31zm-.67 1.28c.02-.13.1-.34-.05-.41.03.12-.06.37.05.41zm-2.21 2.1c.12-.02.05-.22.21-.21.07.14-.11.51.15.56.04-.32 0-.46.1-.67-.14-.06-.39-.12-.41-.2.05.21-.17.41-.05.51zm.62-.21c.16.02.21-.25.05-.26a.34.34 0 00-.05.26zm2.93 1.75c.09-.2 0 .2.1.15 0-.23.19-.75-.05-.87-.12.17-.06.55-.05.72zm-2.46-.51c.03.24-.21.65 0 .87-.04-.47.27-.5 0-.87zm2.88 1.03c0-.25.21-.38 0-.56-.04.12-.12.46 0 .56zm.51.36c.21.04.2-.14.31-.2-.06.2.12.15.26.15-.04-.29-.16-.49-.26-.72-.28.19-.09.52-.31.77zm-2.05-.41c.15.11.03.38.1.46.03-.07.08-.13.15-.15 0-.18.02-.39-.15-.41 0 .07-.09.05-.1.1z"/></g><g><path d="M68.02 107.18h1.22l2.58 7.63h-.92l-.75-2.2H67l-.74 2.2h-.87l2.62-7.63zm-.76 4.69h2.64l-1.32-3.93-1.32 3.93zM75.99 107.18h.93v6.87h3.49v.76h-4.42v-7.63zM81.71 107.48c0-.32.27-.59.59-.59s.59.27.59.59-.27.59-.59.59-.59-.27-.59-.59zm.16 1.75h.89v5.58h-.89v-5.58zM84.93 109.98h-.8v-.75h.8v-.91c0-1.13.55-1.79 1.66-1.79.29 0 .44.03.66.11v.75c-.16-.07-.38-.12-.63-.12-.58 0-.81.39-.81.96v1h1.37v.75h-1.37v4.83h-.89v-4.83zM88.1 112.08v-.09c0-1.69 1.08-2.86 2.61-2.86 1.29 0 2.51.78 2.51 2.77v.29h-4.2c.04 1.27.65 1.97 1.79 1.97.86 0 1.37-.32 1.48-.97h.89c-.19 1.12-1.12 1.71-2.38 1.71-1.58 0-2.7-1.11-2.7-2.83zm4.21-.6c-.09-1.15-.68-1.61-1.6-1.61s-1.51.62-1.67 1.61h3.27zM94.99 107.18h2.17c1.46 0 2.67.64 2.67 2.23v.04c0 1.62-1.22 2.25-2.67 2.25h-1.24v3.11h-.93v-7.63zm2.23 3.79c1.09 0 1.67-.53 1.67-1.52v-.04c0-1.08-.64-1.48-1.67-1.48h-1.3v3.04h1.3zM101.32 106.56h.9v8.25h-.9v-8.25zM104.14 112.76v-3.53h.89v3.49c0 .98.42 1.42 1.29 1.42.79 0 1.54-.52 1.54-1.53v-3.38h.89v5.58h-.89v-.89c-.26.52-.88.98-1.77.98-1.11 0-1.94-.61-1.94-2.15zM110.31 113.09h.87c.06.66.41 1.08 1.31 1.08.84 0 1.22-.29 1.22-.89s-.44-.78-1.3-.94c-1.45-.27-1.94-.67-1.94-1.64 0-1.03 1.01-1.57 1.89-1.57 1 0 1.87.41 2.02 1.61h-.85c-.13-.61-.47-.87-1.17-.87-.64 0-1.06.32-1.06.8s.28.71 1.3.89c1.15.21 1.96.47 1.96 1.65 0 1.01-.69 1.7-2.05 1.7s-2.13-.67-2.19-1.81zM115.63 109.45c0-1.31 1.05-2.37 2.37-2.37s2.37 1.05 2.37 2.36-1.05 2.36-2.37 2.36-2.37-1.01-2.37-2.35zm4.31 0c0-1.16-.81-1.97-1.94-1.97s-1.94.82-1.94 1.98.85 1.96 1.94 1.96 1.94-.81 1.94-1.97zm-2.75-1.2h.82c.55 0 .9.23.9.71 0 .36-.2.55-.48.64l.62.99h-.53l-.57-.91h-.25v.91h-.51v-2.34zm.81 1.08c.27 0 .41-.12.41-.34 0-.26-.15-.34-.41-.34h-.3v.68h.3zM124.58 107.18h.93v7.63h-.93v-7.63zM127.63 109.23h.89v.89c.25-.52.87-.98 1.79-.98 1.15 0 1.96.63 1.96 2.25v3.43h-.89v-3.49c0-.98-.41-1.42-1.31-1.42-.82 0-1.56.52-1.56 1.53v3.38h-.89v-5.58zM134.32 113.41v-3.44h-.8v-.75h.8v-1.27h.89v1.27h1.3v.75h-1.3v3.35c0 .54.25.81.69.81.28 0 .49-.04.68-.12v.75c-.18.06-.4.12-.76.12-1.01 0-1.5-.6-1.5-1.47zM137.57 112.08v-.09c0-1.69 1.08-2.86 2.61-2.86 1.29 0 2.51.78 2.51 2.77v.29h-4.2c.04 1.27.65 1.97 1.79 1.97.86 0 1.37-.32 1.48-.97h.89c-.19 1.12-1.12 1.71-2.38 1.71-1.58 0-2.7-1.11-2.7-2.83zm4.21-.6c-.09-1.15-.68-1.61-1.6-1.61s-1.51.62-1.67 1.61h3.27zM144.31 109.23h.89v1c.35-.63.83-1.07 1.83-1.1v.83c-1.12.05-1.83.41-1.83 1.78v3.06h-.89v-5.58zM148.45 109.23h.89v.89c.25-.52.87-.98 1.79-.98 1.15 0 1.96.63 1.96 2.25v3.43h-.89v-3.49c0-.98-.41-1.42-1.31-1.42-.82 0-1.56.52-1.56 1.53v3.38h-.89v-5.58zM154.62 113.26c0-1.29 1.37-1.73 2.8-1.73h.8v-.41c0-.89-.34-1.26-1.2-1.26-.77 0-1.19.32-1.28 1h-.89c.12-1.27 1.13-1.74 2.21-1.74s2.04.44 2.04 2v3.68h-.89v-.7c-.42.52-.92.8-1.74.8-1.03 0-1.86-.5-1.86-1.64zm3.6-.41v-.69h-.77c-1.12 0-1.94.28-1.94 1.1 0 .57.28.94 1.06.94.94 0 1.65-.48 1.65-1.34zM161.16 113.41v-3.44h-.8v-.75h.8v-1.27h.89v1.27h1.3v.75h-1.3v3.35c0 .54.25.81.69.81.28 0 .49-.04.68-.12v.75c-.18.06-.4.12-.76.12-1.01 0-1.5-.6-1.5-1.47zM164.73 107.48c0-.32.27-.59.59-.59s.59.27.59.59-.27.59-.59.59-.59-.27-.59-.59zm.16 1.75h.89v5.58h-.89v-5.58zM167.35 112.07v-.09c0-1.67 1.16-2.85 2.74-2.85s2.74 1.16 2.74 2.84v.09c0 1.69-1.16 2.85-2.75 2.85s-2.73-1.21-2.73-2.84zm4.57 0V112c0-1.29-.71-2.12-1.82-2.12s-1.83.83-1.83 2.11v.09c0 1.27.69 2.1 1.83 2.1s1.82-.84 1.82-2.1zM174.45 109.23h.89v.89c.25-.52.87-.98 1.79-.98 1.15 0 1.96.63 1.96 2.25v3.43h-.89v-3.49c0-.98-.41-1.42-1.31-1.42-.82 0-1.56.52-1.56 1.53v3.38h-.89v-5.58zM180.61 113.26c0-1.29 1.37-1.73 2.8-1.73h.8v-.41c0-.89-.34-1.26-1.2-1.26-.77 0-1.19.32-1.28 1h-.89c.12-1.27 1.13-1.74 2.21-1.74s2.04.44 2.04 2v3.68h-.89v-.7c-.42.52-.92.8-1.74.8-1.03 0-1.86-.5-1.86-1.64zm3.6-.41v-.69h-.77c-1.12 0-1.94.28-1.94 1.1 0 .57.28.94 1.06.94.94 0 1.65-.48 1.65-1.34zM187.03 106.56h.9v8.25h-.9v-8.25zM192.19 112.49h.9c.12.91.48 1.67 2.02 1.67.98 0 1.74-.57 1.74-1.44s-.39-1.23-1.85-1.46c-1.6-.24-2.55-.75-2.55-2.1 0-1.17 1.01-2.07 2.45-2.07 1.53 0 2.47.75 2.62 2.1h-.83c-.18-.96-.74-1.35-1.79-1.35s-1.59.52-1.59 1.24.28 1.13 1.84 1.37c1.69.27 2.59.78 2.59 2.22 0 1.28-1.12 2.25-2.63 2.25-2.04 0-2.77-1.12-2.91-2.42zM199.12 112.08v-.09c0-1.71 1.22-2.86 2.71-2.86 1.16 0 2.25.53 2.42 1.95h-.87c-.14-.89-.78-1.22-1.55-1.22-1.01 0-1.79.81-1.79 2.12v.09c0 1.37.75 2.09 1.83 2.09.79 0 1.5-.46 1.6-1.37h.82c-.12 1.21-1.09 2.1-2.43 2.1-1.56 0-2.73-1.1-2.73-2.83zM205.84 106.56h.89v3.55c.25-.52.87-.98 1.79-.98 1.15 0 1.96.63 1.96 2.25v3.43h-.89v-3.49c0-.98-.41-1.42-1.31-1.42-.82 0-1.56.52-1.56 1.53v3.38h-.89v-8.25zM212.03 112.07v-.09c0-1.67 1.16-2.85 2.74-2.85s2.74 1.16 2.74 2.84v.09c0 1.69-1.16 2.85-2.75 2.85s-2.73-1.21-2.73-2.84zm4.57 0V112c0-1.29-.71-2.12-1.82-2.12s-1.83.83-1.83 2.11v.09c0 1.27.69 2.1 1.83 2.1s1.82-.84 1.82-2.1zM218.76 112.07v-.09c0-1.67 1.16-2.85 2.74-2.85s2.74 1.16 2.74 2.84v.09c0 1.69-1.16 2.85-2.75 2.85s-2.73-1.21-2.73-2.84zm4.57 0V112c0-1.29-.71-2.12-1.82-2.12s-1.83.83-1.83 2.11v.09c0 1.27.69 2.1 1.83 2.1s1.82-.84 1.82-2.1zM225.88 106.56h.9v8.25h-.9v-8.25z"/></g></svg>