<?xml version="1.0" encoding="UTF-8"?><svg id="a" xmlns="http://www.w3.org/2000/svg" viewBox="0 0 226.77 125.7"><defs><style>.b{fill:#00a88e;fill-rule:evenodd;}</style></defs><g><path d="M89.99,47c0-.63,.35-.94,1.05-.94s1.05,.31,1.05,.94c0,.3-.09,.53-.26,.7-.18,.17-.44,.25-.79,.25-.7,0-1.05-.32-1.05-.95Zm2.01,8.9h-1.93v-7.07h1.93v7.07Z"/><path d="M100.68,55.9h-1.93v-4.13c0-.51-.09-.89-.27-1.15-.18-.25-.47-.38-.87-.38-.54,0-.93,.18-1.17,.54-.24,.36-.36,.96-.36,1.79v3.33h-1.93v-7.07h1.48l.26,.9h.11c.22-.34,.51-.6,.89-.77,.38-.18,.81-.26,1.29-.26,.82,0,1.45,.22,1.87,.67,.43,.44,.64,1.09,.64,1.93v4.61Z"/><path d="M105.78,54.49c.34,0,.74-.07,1.22-.22v1.44c-.48,.22-1.07,.32-1.77,.32-.77,0-1.33-.2-1.69-.59s-.53-.98-.53-1.76v-3.41h-.92v-.82l1.06-.64,.56-1.49h1.23v1.51h1.98v1.45h-1.98v3.41c0,.27,.08,.48,.23,.61,.15,.13,.36,.2,.61,.2Z"/><path d="M111.75,56.03c-1.14,0-2.03-.31-2.67-.94s-.96-1.52-.96-2.67,.3-2.1,.89-2.75,1.41-.97,2.46-.97,1.78,.29,2.34,.85c.56,.57,.83,1.36,.83,2.36v.94h-4.56c.02,.55,.18,.98,.49,1.28,.3,.31,.73,.46,1.28,.46,.43,0,.83-.05,1.21-.13s.77-.23,1.19-.42v1.49c-.34,.17-.7,.29-1.08,.38-.38,.08-.85,.12-1.4,.12Zm-.27-5.96c-.41,0-.73,.13-.96,.39-.23,.26-.36,.63-.4,1.1h2.71c0-.48-.13-.84-.37-1.1-.24-.26-.57-.39-.98-.39Z"/><path d="M120.29,48.69c.26,0,.48,.02,.65,.06l-.15,1.81c-.16-.04-.35-.06-.57-.06-.62,0-1.09,.16-1.44,.47-.34,.32-.51,.76-.51,1.33v3.6h-1.93v-7.07h1.46l.28,1.19h.1c.22-.4,.51-.72,.89-.96,.37-.24,.78-.36,1.22-.36Z"/><path d="M128.88,55.9h-1.93v-4.13c0-.51-.09-.89-.27-1.15-.18-.25-.47-.38-.87-.38-.54,0-.93,.18-1.17,.54-.24,.36-.36,.96-.36,1.79v3.33h-1.93v-7.07h1.48l.26,.9h.11c.21-.34,.51-.6,.89-.77,.38-.18,.81-.26,1.29-.26,.82,0,1.45,.22,1.87,.67,.43,.44,.64,1.09,.64,1.93v4.61Z"/><path d="M135.49,55.9l-.37-.96h-.05c-.33,.41-.66,.69-1,.85-.34,.16-.79,.24-1.34,.24-.68,0-1.21-.19-1.6-.58s-.59-.94-.59-1.66,.26-1.3,.79-1.66c.53-.36,1.32-.55,2.38-.59l1.23-.04v-.31c0-.72-.37-1.07-1.1-1.07-.57,0-1.23,.17-1.99,.51l-.64-1.3c.81-.43,1.72-.64,2.71-.64s1.68,.21,2.18,.62c.51,.41,.76,1.04,.76,1.89v4.71h-1.35Zm-.57-3.28l-.75,.03c-.56,.02-.98,.12-1.25,.3s-.41,.47-.41,.85c0,.54,.31,.82,.94,.82,.45,0,.8-.13,1.07-.39,.27-.26,.4-.6,.4-1.02v-.58Z"/><path d="M141.94,54.49c.34,0,.74-.07,1.22-.22v1.44c-.48,.22-1.07,.32-1.77,.32-.77,0-1.33-.2-1.69-.59s-.53-.98-.53-1.76v-3.41h-.92v-.82l1.06-.64,.56-1.49h1.23v1.51h1.98v1.45h-1.98v3.41c0,.27,.08,.48,.23,.61,.15,.13,.36,.2,.61,.2Z"/><path d="M144.63,47c0-.63,.35-.94,1.05-.94s1.05,.31,1.05,.94c0,.3-.09,.53-.26,.7-.17,.17-.44,.25-.79,.25-.7,0-1.05-.32-1.05-.95Zm2.01,8.9h-1.93v-7.07h1.93v7.07Z"/><path d="M155.22,52.35c0,1.15-.3,2.05-.91,2.7-.61,.65-1.45,.97-2.54,.97-.68,0-1.28-.15-1.8-.45-.52-.3-.92-.72-1.2-1.28-.28-.56-.42-1.21-.42-1.95,0-1.16,.3-2.05,.9-2.7s1.45-.96,2.54-.96c.68,0,1.28,.15,1.8,.44,.52,.3,.92,.72,1.2,1.27s.42,1.2,.42,1.94Zm-4.89,0c0,.7,.11,1.23,.34,1.59,.23,.36,.61,.54,1.12,.54s.89-.18,1.11-.53,.34-.89,.34-1.59-.11-1.22-.34-1.58-.6-.53-1.12-.53-.89,.17-1.11,.52c-.23,.35-.34,.87-.34,1.58Z"/><path d="M163.47,55.9h-1.93v-4.13c0-.51-.09-.89-.27-1.15-.18-.25-.47-.38-.87-.38-.54,0-.93,.18-1.17,.54-.24,.36-.36,.96-.36,1.79v3.33h-1.93v-7.07h1.48l.26,.9h.11c.21-.34,.51-.6,.89-.77,.38-.18,.81-.26,1.29-.26,.82,0,1.45,.22,1.87,.67,.43,.44,.64,1.09,.64,1.93v4.61Z"/><path d="M170.08,55.9l-.37-.96h-.05c-.33,.41-.66,.69-1,.85-.34,.16-.79,.24-1.34,.24-.68,0-1.21-.19-1.6-.58s-.59-.94-.59-1.66,.26-1.3,.79-1.66c.53-.36,1.32-.55,2.38-.59l1.23-.04v-.31c0-.72-.37-1.07-1.1-1.07-.57,0-1.23,.17-1.99,.51l-.64-1.3c.81-.43,1.72-.64,2.71-.64s1.68,.21,2.18,.62c.51,.41,.76,1.04,.76,1.89v4.71h-1.35Zm-.57-3.28l-.75,.03c-.56,.02-.98,.12-1.25,.3s-.41,.47-.41,.85c0,.54,.31,.82,.94,.82,.45,0,.8-.13,1.07-.39,.27-.26,.4-.6,.4-1.02v-.58Z"/><path d="M175.48,55.9h-1.93v-9.84h1.93v9.84Z"/><path d="M95,66.49c0,.73-.25,1.28-.76,1.66s-1.26,.57-2.26,.57c-.51,0-.95-.03-1.32-.1-.36-.07-.7-.17-1.02-.31v-1.59c.36,.17,.76,.31,1.21,.42s.84,.17,1.19,.17c.7,0,1.05-.2,1.05-.61,0-.15-.05-.28-.14-.37-.09-.1-.25-.2-.48-.32-.23-.12-.53-.26-.91-.42-.54-.23-.94-.44-1.2-.63-.26-.19-.44-.42-.56-.67-.12-.25-.17-.56-.17-.93,0-.63,.24-1.11,.73-1.46,.49-.34,1.18-.52,2.07-.52s1.68,.19,2.49,.56l-.58,1.39c-.35-.15-.68-.28-.99-.37-.31-.1-.62-.15-.94-.15-.57,0-.85,.15-.85,.46,0,.17,.09,.32,.28,.45s.59,.31,1.2,.56c.55,.22,.96,.43,1.21,.63,.26,.19,.45,.42,.57,.67s.18,.55,.18,.9Z"/><path d="M99.51,68.72c-2.2,0-3.3-1.21-3.3-3.63,0-1.2,.3-2.12,.9-2.75,.6-.64,1.46-.95,2.57-.95,.82,0,1.55,.16,2.2,.48l-.57,1.49c-.3-.12-.59-.22-.85-.3-.26-.08-.52-.12-.79-.12-1,0-1.5,.71-1.5,2.14s.5,2.08,1.5,2.08c.37,0,.72-.05,1.03-.15,.32-.1,.63-.25,.95-.47v1.65c-.31,.2-.63,.34-.95,.41s-.72,.11-1.2,.11Z"/><path d="M109.96,68.6h-1.93v-4.13c0-1.02-.38-1.53-1.14-1.53-.54,0-.93,.18-1.17,.55-.24,.37-.36,.96-.36,1.78v3.33h-1.93v-9.84h1.93v2.01c0,.16-.01,.52-.05,1.1l-.04,.57h.1c.43-.69,1.11-1.04,2.05-1.04,.83,0,1.46,.22,1.89,.67,.43,.45,.64,1.09,.64,1.92v4.61Z"/><path d="M118.5,65.05c0,1.15-.3,2.05-.91,2.7-.61,.65-1.45,.97-2.54,.97-.68,0-1.28-.15-1.8-.45-.52-.3-.92-.72-1.2-1.28-.28-.56-.42-1.21-.42-1.95,0-1.16,.3-2.05,.9-2.7s1.45-.96,2.54-.96c.68,0,1.28,.15,1.8,.44,.52,.29,.92,.72,1.2,1.27s.42,1.2,.42,1.94Zm-4.89,0c0,.7,.11,1.23,.34,1.59,.23,.36,.61,.54,1.12,.54s.89-.18,1.11-.53,.34-.89,.34-1.59-.11-1.22-.34-1.58-.6-.53-1.12-.53-.89,.17-1.11,.52-.34,.87-.34,1.58Z"/><path d="M126.66,65.05c0,1.15-.3,2.05-.91,2.7-.61,.65-1.45,.97-2.54,.97-.68,0-1.28-.15-1.8-.45-.52-.3-.92-.72-1.2-1.28-.28-.56-.42-1.21-.42-1.95,0-1.16,.3-2.05,.9-2.7s1.45-.96,2.54-.96c.68,0,1.28,.15,1.8,.44,.52,.29,.92,.72,1.2,1.27s.42,1.2,.42,1.94Zm-4.89,0c0,.7,.11,1.23,.34,1.59,.23,.36,.61,.54,1.12,.54s.89-.18,1.11-.53,.34-.89,.34-1.59-.11-1.22-.34-1.58-.6-.53-1.12-.53-.89,.17-1.11,.52-.34,.87-.34,1.58Z"/><path d="M130.31,68.6h-1.93v-9.84h1.93v9.84Z"/><path d="M142.39,65.05c0,1.15-.3,2.05-.91,2.7-.61,.65-1.45,.97-2.54,.97-.68,0-1.28-.15-1.8-.45-.52-.3-.92-.72-1.2-1.28-.28-.56-.42-1.21-.42-1.95,0-1.16,.3-2.05,.9-2.7s1.45-.96,2.54-.96c.68,0,1.28,.15,1.8,.44,.52,.29,.92,.72,1.2,1.27s.42,1.2,.42,1.94Zm-4.89,0c0,.7,.11,1.23,.34,1.59,.23,.36,.61,.54,1.12,.54s.89-.18,1.11-.53,.34-.89,.34-1.59-.11-1.22-.34-1.58-.6-.53-1.12-.53-.89,.17-1.11,.52-.34,.87-.34,1.58Z"/><path d="M148.02,62.97h-1.67v5.62h-1.93v-5.62h-1.06v-.93l1.06-.52v-.52c0-.81,.2-1.39,.59-1.76,.4-.37,1.03-.56,1.91-.56,.67,0,1.26,.1,1.78,.3l-.49,1.42c-.39-.12-.75-.18-1.08-.18-.27,0-.47,.08-.59,.24s-.18,.37-.18,.62v.44h1.67v1.45Z"/><path d="M158.57,68.6l-.54-2.47-.72-3.12h-.06l-1.29,5.6h-2.08l-2.01-7.07h1.92l.82,3.13c.09,.37,.22,1.15,.38,2.32h.05c.02-.32,.09-.83,.22-1.52l.1-.54,.87-3.39h2.13l.83,3.39c.05,.23,.11,.57,.19,1.02,.07,.45,.11,.8,.12,1.04h.05c.05-.37,.11-.8,.2-1.28,.08-.48,.16-.83,.22-1.04l.85-3.13h1.89l-2.04,7.07h-2.1Z"/><path d="M168.99,68.6l-.26-.9h-.1c-.21,.33-.5,.58-.88,.76s-.81,.27-1.3,.27c-.83,0-1.46-.22-1.88-.67-.42-.45-.63-1.09-.63-1.92v-4.61h1.93v4.13c0,.51,.09,.89,.27,1.15,.18,.25,.47,.38,.87,.38,.54,0,.93-.18,1.17-.54,.24-.36,.36-.96,.36-1.79v-3.33h1.93v7.07h-1.48Z"/><path d="M174.07,64.98l-2.28-3.46h2.19l1.37,2.25,1.39-2.25h2.19l-2.3,3.46,2.41,3.61h-2.19l-1.49-2.42-1.49,2.42h-2.19l2.4-3.61Z"/><path d="M180.16,59.69c0-.63,.35-.94,1.05-.94s1.05,.31,1.05,.94c0,.3-.09,.53-.26,.7-.17,.17-.44,.25-.79,.25-.7,0-1.05-.32-1.05-.95Zm2.01,8.9h-1.93v-7.07h1.93v7.07Z"/></g><g><path class="b" d="M109.46,5.11c-.52,1.97-3.24,2.76-4.66,3.11-.73-1.15,.37-1.46,.44-2.44,1.53,1.38,2.09-1.25,4.22-.67Z"/><path class="b" d="M101.02,0c0,.74-.72,.76-.67,1.55,.31,.36,1.1,.24,1.33,.67,0,.52-.38,.65-.22,1.33-1.64,.28-2.74,1.11-2.66,3.11,2.47-1.45,5.39-.69,5.11,2.66-2.39,.83-2.75,4.75-5.11,4.89,.16-1.2-.09-2.16,.89-2.89-.65-.48-.76-1.03-1.78-.67-1.47,1.53-1.69,3.8-.89,5.99,1.21,.05,1.68,.84,2.66,1.11,.17-1.67,2.14-5.05,3.33-2.89,.47-.39,.66-.5,1.33-.22,.66,0,.28-1.05,.67-1.33,1.74,.28,1.85-1.81,3.55-.89-1.14,1.45-3.04,2.14-3.55,4.22,1.83-.12,2.69-2.3,4.22-2-.75,1.56-1.93,2.25-3.77,3.11-.71,.19-.46-.58-.89-.67-2.36,1.64-4.72,3.27-6,6-.91-.71-1.45-.1-2,.67-.84-.14,.24-.93-.89-.89-3.03,2.52-4.75,6.35-6.88,9.77-.17,2.69,.09,4.49-.22,6.66-1.32,.46-.88,2.67-2.22,3.11-.77-2.23,1.55-4.1,1.11-5.99-.65,.24-.72,1.06-.67,2-2.06,.34-1.65,3.82-.89,5.33-.31,1.17-1.5,1.46-1.11,3.33-1.94-.56-1.76,2.32-1.55,2.89-.7,.11-.87-.32-1.33-.44,.3-3.49,2.91-5.29,1.78-8.44,0-.81,.63-1,.89-1.55-2.41,2.25-4.01,7.23-5.77,10.88h-1.33c.67,5.68-2.85,10.48-3.55,16.21,1.57-1.55,1.25-5.13,2.66-5.77-.37-2.07,1.02-2.38,1.11-4,.59,.21,.74,1.14,1.33,.22,.09,2.65,1.02,6.31-.44,9.1-.49-.96,.14-2.9-1.11-3.55-.91,.32,.44,1.23,0,2.44-.59,0-.48,.7-1.11,.67,.03-1.01,.18-.87,0-1.78-.99,.67-.72,3.06-.22,4-.14,2.05-2.25,4.12-1.33,7.1-.76,.98-1.78,3.17-.89,4.44,.41-.24,.55-1.23,1.11-.67v1.33c-1.22-.26-1.44,.49-1.33,1.55-.76,.16-.37-.82-.89-.89,.96,6.89-3.09,12.41-8.66,15.1-2.3-.34-4.8,.15-6.88-.67-.47-.18-.92-.98-1.55-1.33-1.95-1.08-2.26-.84-3.55-2.44-1.3-1.62-3.84-3.01-5.11-4.88-2.97-4.38-5.53-9.48-7.77-13.77-4.2-3.9-4.97-11.12-9.99-14.65-1.97,1.57-2.67,4.07-4,5.77,.34,1.89-.94,2.17-.89,3.77-2.63,2.77-1.47,7.29-1.78,11.32-.07,.9-.65,1.76-.67,2.66-.03,2.19,1.04,4.46,.67,6.44-.13,.71-1.22,1.41-1.55,2.44-.54,1.65,.24,3.14-.89,3.77-1.53-.35-1.84,.53-2.89,.67-.95-.16-1.27-.95-1.78-1.55-.83-.24-.35,.83-1.11,.67-5.17-3.98-7.97-13.97-10.66-21.54-.88-2.47-2.74-4.26-2.66-7.33,.07-2.54-.28-5.19-1.11-7.55,.63-1.08,1-4.7,0-6,.92-2.8,.21-6.37,.44-9.77,.15-2.15-.66-4.18,1.55-4.44,5.99,7.56,6.4,20.68,11.55,29.09,2-1.99,3-3.76,4.44-6.44h.89c.19-1.29,.59-2.37,2-2.44,.6-6.12,4.76-10.44,8.21-14.43,2.13,.68,4.8,.82,6.88,1.55,1.65,1.68,2.15,4.51,3.77,6.22,.12,1.81,.15,3.7,1.78,4,.12,.99,.67,1.55,.44,2.89,1.04,1.25,1.89,2.7,2.22,4.66,3.02,3.57,4.67,8.5,7.77,11.99,2.86,0,4.37-1.02,4.89-3.77,.33,.12,.56,.33,.89,.44,.6-2.8,2.14-4.67,3.33-6.88,.51-4.74,3.38-7.13,3.33-12.43,1.46-.91,2.3-2.43,2.44-4.66,3.03-2.96,2.63-9.36,6.44-11.55,2.55-7.37,8.32-11.52,11.1-18.65,1.58-1.01,2.59-2.59,3.11-4.66,.81-.51,1.21-.09,1.78-.67,1.49-2.51,2.95-5.04,3.55-8.44,1.87,.16,2.1-1.3,3.77-1.33v1.33c1.15-.3,.03-1,.44-1.55,1.65-.27,2.1-1.75,4-1.78Zm-10.66,16.43c1.06,.24,1.73-1.07,1.11-1.78-.48,.48-.89,1.03-1.11,1.78Zm-16.65,52.4c.05-.42,.57-1.47,0-1.78,.26,.72-.68,1.37,0,1.78Z"/></g><g><path d="M91.62,80.21h1.04l2.2,6.5h-.78l-.64-1.87h-2.68l-.63,1.87h-.75l2.24-6.5Zm-.65,4h2.25l-1.13-3.34-1.13,3.34Z"/><path d="M98.4,80.21h.79v5.85h2.97v.64h-3.76v-6.5Z"/><path d="M103.27,80.47c0-.27,.23-.5,.5-.5s.5,.23,.5,.5-.23,.5-.5,.5-.5-.23-.5-.5Zm.14,1.49h.75v4.75h-.75v-4.75Z"/><path d="M106.01,82.59h-.68v-.64h.68v-.77c0-.96,.47-1.53,1.42-1.53,.25,0,.37,.03,.56,.09v.64c-.14-.05-.33-.1-.54-.1-.49,0-.69,.34-.69,.82v.85h1.16v.64h-1.16v4.12h-.76v-4.12Z"/><path d="M108.72,84.38v-.07c0-1.44,.92-2.44,2.23-2.44,1.1,0,2.14,.66,2.14,2.36v.25h-3.58c.04,1.08,.55,1.68,1.53,1.68,.74,0,1.16-.27,1.26-.83h.75c-.16,.96-.95,1.45-2.03,1.45-1.34,0-2.3-.94-2.3-2.41Zm3.59-.51c-.07-.98-.58-1.37-1.36-1.37s-1.29,.53-1.42,1.37h2.78Z"/><path d="M114.58,80.21h1.84c1.24,0,2.27,.55,2.27,1.9v.04c0,1.38-1.04,1.92-2.27,1.92h-1.05v2.64h-.79v-6.5Zm1.9,3.23c.93,0,1.43-.46,1.43-1.29v-.04c0-.92-.55-1.26-1.43-1.26h-1.11v2.59h1.11Z"/><path d="M119.97,79.69h.76v7.02h-.76v-7.02Z"/><path d="M122.37,84.97v-3.01h.76v2.97c0,.84,.35,1.21,1.1,1.21,.67,0,1.31-.44,1.31-1.3v-2.88h.76v4.75h-.76v-.76c-.22,.45-.74,.84-1.51,.84-.94,0-1.65-.52-1.65-1.83Z"/><path d="M127.63,85.25h.74c.05,.56,.35,.92,1.12,.92,.72,0,1.04-.25,1.04-.75s-.37-.66-1.11-.8c-1.24-.23-1.65-.57-1.65-1.4,0-.88,.86-1.34,1.61-1.34,.85,0,1.59,.35,1.72,1.37h-.73c-.11-.52-.4-.74-1-.74-.55,0-.9,.27-.9,.68s.24,.6,1.11,.75c.98,.18,1.67,.4,1.67,1.41,0,.86-.59,1.45-1.74,1.45s-1.82-.57-1.86-1.54Z"/><path d="M132.15,82.15c0-1.12,.89-2.02,2.02-2.02s2.02,.89,2.02,2.01-.89,2.01-2.02,2.01-2.02-.86-2.02-2Zm3.67,0c0-.99-.69-1.68-1.65-1.68s-1.65,.7-1.65,1.69,.73,1.67,1.65,1.67,1.65-.69,1.65-1.68Zm-2.34-1.02h.7c.46,0,.76,.19,.76,.6h0c0,.31-.17,.47-.41,.55l.53,.85h-.45l-.48-.77h-.21v.77h-.44v-1.99Zm.69,.92c.23,0,.35-.1,.35-.29h0c0-.22-.13-.29-.35-.29h-.25v.58h.25Z"/><path d="M139.77,80.21h.79v6.5h-.79v-6.5Z"/><path d="M142.37,81.96h.75v.75c.22-.44,.75-.84,1.53-.84,.98,0,1.67,.54,1.67,1.92v2.92h-.75v-2.97c0-.84-.36-1.21-1.12-1.21-.7,0-1.33,.44-1.33,1.3v2.88h-.75v-4.75Z"/><path d="M148.07,85.52v-2.93h-.68v-.64h.68v-1.08h.76v1.08h1.11v.64h-1.11v2.85c0,.46,.21,.69,.59,.69,.24,0,.42-.04,.58-.1v.64c-.16,.05-.34,.1-.64,.1-.86,0-1.28-.51-1.28-1.25Z"/><path d="M150.83,84.38v-.07c0-1.44,.92-2.44,2.23-2.44,1.1,0,2.14,.66,2.14,2.36v.25h-3.58c.04,1.08,.55,1.68,1.53,1.68,.74,0,1.16-.27,1.26-.83h.75c-.16,.96-.95,1.45-2.03,1.45-1.34,0-2.3-.94-2.3-2.41Zm3.59-.51c-.07-.98-.58-1.37-1.36-1.37s-1.29,.53-1.42,1.37h2.78Z"/><path d="M156.57,81.96h.75v.85c.3-.54,.71-.91,1.56-.94v.71c-.96,.05-1.56,.35-1.56,1.52v2.61h-.75v-4.75Z"/><path d="M160.1,81.96h.75v.75c.22-.44,.75-.84,1.53-.84,.98,0,1.67,.54,1.67,1.92v2.92h-.75v-2.97c0-.84-.36-1.21-1.12-1.21-.7,0-1.33,.44-1.33,1.3v2.88h-.75v-4.75Z"/><path d="M165.34,85.39c0-1.1,1.16-1.47,2.38-1.47h.68v-.35c0-.75-.29-1.07-1.02-1.07-.65,0-1.02,.27-1.09,.85h-.76c.1-1.08,.96-1.48,1.88-1.48s1.74,.37,1.74,1.7v3.14h-.75v-.6c-.35,.44-.78,.68-1.48,.68-.88,0-1.58-.43-1.58-1.4Zm3.06-.35v-.59h-.65c-.96,0-1.65,.24-1.65,.94,0,.49,.24,.8,.9,.8,.8,0,1.41-.41,1.41-1.15Z"/><path d="M170.92,85.52v-2.93h-.68v-.64h.68v-1.08h.76v1.08h1.11v.64h-1.11v2.85c0,.46,.21,.69,.59,.69,.24,0,.42-.04,.58-.1v.64c-.16,.05-.34,.1-.64,.1-.86,0-1.28-.51-1.28-1.25Z"/><path d="M173.95,80.47c0-.27,.23-.5,.5-.5s.5,.23,.5,.5-.23,.5-.5,.5-.5-.23-.5-.5Zm.14,1.49h.75v4.75h-.75v-4.75Z"/><path d="M176.19,84.38v-.07c0-1.43,.99-2.43,2.34-2.43s2.34,.99,2.34,2.42v.07c0,1.44-.99,2.43-2.34,2.43s-2.33-1.03-2.33-2.42Zm3.89,0v-.06c0-1.1-.61-1.81-1.56-1.81s-1.55,.71-1.55,1.8v.07c0,1.08,.59,1.79,1.55,1.79s1.56-.72,1.56-1.79Z"/><path d="M182.23,81.96h.75v.75c.22-.44,.75-.84,1.53-.84,.98,0,1.67,.54,1.67,1.92v2.92h-.75v-2.97c0-.84-.36-1.21-1.12-1.21-.7,0-1.33,.44-1.33,1.3v2.88h-.75v-4.75Z"/><path d="M187.48,85.39c0-1.1,1.16-1.47,2.38-1.47h.68v-.35c0-.75-.29-1.07-1.02-1.07-.65,0-1.02,.27-1.09,.85h-.76c.1-1.08,.96-1.48,1.88-1.48s1.74,.37,1.74,1.7v3.14h-.75v-.6c-.35,.44-.78,.68-1.48,.68-.88,0-1.58-.43-1.58-1.4Zm3.06-.35v-.59h-.65c-.96,0-1.65,.24-1.65,.94,0,.49,.24,.8,.9,.8,.8,0,1.41-.41,1.41-1.15Z"/><path d="M192.94,79.69h.76v7.02h-.76v-7.02Z"/><path d="M197.33,84.73h.76c.1,.77,.41,1.43,1.72,1.43,.84,0,1.48-.49,1.48-1.23s-.34-1.05-1.57-1.24c-1.36-.21-2.17-.64-2.17-1.79,0-1,.86-1.76,2.09-1.76,1.3,0,2.11,.64,2.24,1.79h-.71c-.16-.82-.63-1.15-1.53-1.15s-1.35,.44-1.35,1.05,.24,.96,1.56,1.16c1.45,.23,2.21,.66,2.21,1.89,0,1.09-.96,1.92-2.25,1.92-1.74,0-2.36-.95-2.48-2.06Z"/><path d="M203.23,84.38v-.07c0-1.45,1.04-2.44,2.31-2.44,.99,0,1.92,.46,2.06,1.66h-.74c-.12-.75-.66-1.04-1.32-1.04-.86,0-1.53,.69-1.53,1.81v.07c0,1.16,.64,1.78,1.55,1.78,.67,0,1.28-.39,1.36-1.16h.7c-.1,1.03-.93,1.79-2.07,1.79-1.33,0-2.33-.94-2.33-2.41Z"/><path d="M208.95,79.69h.75v3.03c.22-.44,.75-.84,1.53-.84,.98,0,1.67,.54,1.67,1.92v2.92h-.75v-2.97c0-.84-.36-1.21-1.12-1.21-.7,0-1.33,.44-1.33,1.3v2.88h-.75v-7.02Z"/><path d="M214.22,84.38v-.07c0-1.43,.99-2.43,2.34-2.43s2.34,.99,2.34,2.42v.07c0,1.44-.99,2.43-2.34,2.43s-2.33-1.03-2.33-2.42Zm3.89,0v-.06c0-1.1-.61-1.81-1.56-1.81s-1.55,.71-1.55,1.8v.07c0,1.08,.59,1.79,1.55,1.79s1.56-.72,1.56-1.79Z"/><path d="M219.95,84.38v-.07c0-1.43,.99-2.43,2.34-2.43s2.34,.99,2.34,2.42v.07c0,1.44-.99,2.43-2.34,2.43s-2.33-1.03-2.33-2.42Zm3.89,0v-.06c0-1.1-.61-1.81-1.56-1.81s-1.55,.71-1.55,1.8v.07c0,1.08,.59,1.79,1.55,1.79s1.56-.72,1.56-1.79Z"/><path d="M226.01,79.69h.76v7.02h-.76v-7.02Z"/></g></svg>