<?xml version="1.0" encoding="UTF-8"?><svg id="Layer_2" xmlns="http://www.w3.org/2000/svg" viewBox="0 0 273.83 167.21"><defs><style>.cls-1,.cls-2{stroke-width:0px;}.cls-2{fill:#e30613;}</style></defs><g id="Layer_1-2"><rect class="cls-2" width="273.83" height="1.4"/><rect class="cls-2" y="51.38" width="273.83" height="1.4"/><rect class="cls-2" y="102.75" width="273.83" height="1.4"/><rect class="cls-2" y="160.2" width="273.83" height="7.01"/><path class="cls-2" d="m50.99,8.7c-1.26,0-2.29.89-2.29,2.19s1.03,2.24,2.29,2.24,2.33-.89,2.33-2.24-1.07-2.19-2.33-2.19Z"/><polygon class="cls-2" points="3.36 8.42 3.36 43.44 25.12 43.44 25.35 40.03 8.92 41.85 8.92 8.42 3.36 8.42"/><path class="cls-2" d="m69.9,29.29c.05-.33.09-.84.09-1.21.05-5.46-3.41-7.94-8.4-7.94-2.01,0-4.16.79-5.98,1.96-2.75,1.82-5.32,5.42-5.32,10.79,0,6.91,4.72,11.02,10.37,11.02,4.39,0,7-1.26,8.59-3.08.14-.51.61-2.57.65-2.99-1.03.98-3.74,2.15-7.1,2.15-4.76,0-7.61-3.08-7.61-8.54,0-.75.05-1.49.09-2.15h14.61Zm-9.34-8.17c3.46.05,4.76,1.87,4.76,6.63l-9.95.65c.75-5.04,3.32-7.19,5.18-7.28Z"/><path class="cls-2" d="m31.28,11.5c-1.63,0-2.89,1.17-2.89,2.66s1.21,2.61,2.89,2.61,2.85-1.17,2.85-2.66-1.17-2.61-2.85-2.61Z"/><path class="cls-2" d="m39.78,15.05v5.51h-2.85v2.1h2.85v20.78h4.86v-20.78h4.86v-2.1h-4.86v-7.8c0-3.55,2.15-4.76,4.39-5.04v-.42c-5.04.42-9.24,2.24-9.24,7.75Z"/><polygon class="cls-2" points="28.86 43.44 33.71 43.44 33.71 20.23 28.86 20.88 28.86 43.44"/><path class="cls-2" d="m181.12,40.96c0-1.82-1.31-2.94-2.94-2.94s-2.94,1.17-2.94,2.99,1.31,2.89,2.94,2.89,2.94-1.12,2.94-2.94Z"/><path class="cls-2" d="m167.62,10.01c-2.33,0-4.25,1.77-4.25,4.2s1.91,4.25,4.25,4.25,4.25-1.77,4.25-4.25-1.91-4.2-4.25-4.2Zm0,8.03c-2.1,0-3.74-1.68-3.74-3.83s1.63-3.78,3.74-3.78,3.69,1.68,3.69,3.78-1.59,3.83-3.69,3.83Z"/><path class="cls-2" d="m168.51,38.02c-1.63,0-2.94,1.17-2.94,2.99s1.31,2.89,2.94,2.89,2.94-1.12,2.94-2.94-1.31-2.94-2.94-2.94Z"/><path class="cls-2" d="m191.34,40.96c0-1.82-1.31-2.94-2.94-2.94s-2.94,1.17-2.94,2.99,1.31,2.89,2.94,2.89,2.94-1.12,2.94-2.94Z"/><path class="cls-2" d="m153.01,42.69c-1.26,0-5.56-3.6-8.31-5.65l-.75,5.56c2.43.75,5.84,1.31,8.4,1.31,2.8,0,4.81-.98,6.4-2.1,1.68-1.26,3.22-3.92,3.22-6.16,0-4.95-2.38-5.93-6.72-8.22-2.94-1.59-4.67-2.38-4.67-4.62,0-1.68,1.4-2.71,2.85-2.8.98,0,4.2,3.04,6.63,5.14l1.12-5.23c-1.68-.51-4.16-1.12-6.96-1.12-2.57,0-4.48.75-6.12,1.68-1.77.98-3.88,2.94-3.88,6.26,0,4.62,2.75,5.88,6.58,7.98,3.64,2.01,4.95,2.8,4.95,5.04,0,1.73-1.31,2.8-2.75,2.94Z"/><polygon class="cls-2" points="104.17 8.32 104.17 43.44 111.92 43.44 111.92 7.2 104.17 8.32"/><path class="cls-2" d="m117.52,20.09v16.86c0,4.62,2.61,6.96,6.68,6.96,2.61,0,3.92-.84,5.18-1.91,1.07-.84,1.96-1.82,2.94-3.32v5.09l7.75-1.17v-23.63l-7.8,1.12v17.84c-1.12.79-2.15,1.12-3.22,1.12-2.57,0-3.74-.98-3.74-3.78v-16.3l-7.8,1.12Z"/><path class="cls-2" d="m169.17,12.99c0-.79-.79-1.21-1.82-1.21h-1.31v4.67h.93v-4.44c.14,0,.42.05.51.09.61.14.79.47.79.89,0,.56-.33.89-.65,1.07l-.33.19,1.35,2.19h1.03l-1.49-2.24c.51-.23.98-.65.98-1.21Z"/><path class="cls-2" d="m86.89,28.36l.14.7c7.14-.51,14.29-4.25,14.29-10.97,0-6.3-5.7-9.67-14.52-9.67h-11.11v35.02h9.01V9.91c.84.05,1.82.14,2.57.37,3.46.93,5,3.5,5,7.7,0,5.04-1.26,8.82-5.37,10.37Z"/><polygon class="cls-1" points="14.85 94.95 23.67 67.36 23.86 67.36 32.92 94.95 35.91 94.95 47.44 59.79 43.8 59.79 36.19 87.9 36 87.9 27.08 59.79 23.81 59.79 15.17 87.9 14.99 87.9 6.54 59.79 .65 59.79 11.86 94.95 14.85 94.95"/><path class="cls-1" d="m58.71,71.51c-2.29,0-4.86.79-6.77,2.24-2.52,1.91-5.09,5.04-5.09,10.18,0,7.14,5.65,11.35,11.58,11.35,2.33,0,4.9-.79,6.82-2.2,2.57-1.96,5.04-5.04,5.04-10.18,0-7.19-5.65-11.39-11.58-11.39Zm.47,22.79c-4.2-.14-7.1-3.6-7.1-10.79,0-7.94,2.8-10.79,5.93-11.02,4.16.14,7.1,3.55,7.1,10.74,0,8.4-2.8,10.88-5.93,11.07Z"/><path class="cls-1" d="m81.68,73.15c-.84.84-1.87,2.1-2.57,3.31v-4.72l-4.81.7v22.37h4.86v-17.74c.98-.89,2.38-1.73,3.41-1.73.65,0,2.2.51,3.78,1.12l1.35-4.39c-.79-.28-1.82-.56-2.62-.56-1.35,0-2.43.56-3.41,1.63Z"/><polygon class="cls-1" points="95 58.86 90.19 59.51 90.19 94.81 95 94.81 95 58.86"/><path class="cls-1" d="m115.96,72.07c-.65-.19-2.66-.56-3.83-.56-6.91,0-13.03,4.67-13.03,12.65,0,6.72,4.16,11.11,9.48,11.11,1.73,0,3.69-.61,4.81-1.4,1.31-.89,2.01-1.63,2.61-2.33v3.55l4.81-.51v-35.72l-4.86.75v12.47Zm0,18.77c-1.26.7-2.99,1.35-5,1.35-4.3,0-6.68-3.73-6.68-9.71s3.08-9.62,6.77-9.95c1.45.05,3.6,1.49,4.9,2.24v16.06Z"/><polygon class="cls-1" points="134.18 94.81 139.78 76.93 140.11 76.93 145.81 94.81 148.89 94.81 156.73 71.93 153.93 71.93 148.84 90 148.7 90 142.91 71.93 139.83 71.93 134.13 90 133.99 90 129 71.93 123.63 71.93 131.19 94.81 134.18 94.81"/><polygon class="cls-1" points="159.5 94.81 164.35 94.81 164.35 71.61 159.5 72.26 159.5 94.81"/><path class="cls-1" d="m161.92,68.15c1.63,0,2.85-1.17,2.85-2.66s-1.17-2.62-2.85-2.62-2.9,1.17-2.9,2.66,1.21,2.62,2.9,2.62Z"/><path class="cls-1" d="m185.18,72.07c-.65-.19-2.66-.56-3.83-.56-6.91,0-13.03,4.67-13.03,12.65,0,6.72,4.16,11.11,9.48,11.11,1.73,0,3.69-.61,4.81-1.4,1.31-.89,2.01-1.63,2.61-2.33v3.55l4.81-.51v-35.72l-4.86.75v12.47Zm0,18.77c-1.26.7-2.99,1.35-5,1.35-4.3,0-6.68-3.73-6.68-9.71s3.08-9.62,6.77-9.95c1.45.05,3.6,1.49,4.9,2.24v16.06Z"/><path class="cls-1" d="m213.81,80.66c.05-.33.09-.84.09-1.21.05-5.46-3.41-7.94-8.4-7.94-2.01,0-4.16.79-5.98,1.96-2.75,1.82-5.32,5.42-5.32,10.79,0,6.91,4.72,11.02,10.37,11.02,4.39,0,7-1.26,8.59-3.08.14-.51.61-2.57.65-2.99-1.03.98-3.74,2.15-7.1,2.15-4.76,0-7.61-3.08-7.61-8.54,0-.75.05-1.49.09-2.15h14.61Zm-9.34-8.17c3.46.05,4.76,1.87,4.76,6.63l-9.95.65c.75-5.04,3.31-7.19,5.18-7.28Z"/><path class="cls-1" d="m7.49,110v36.19H2.65v-35.53l4.84-.66Z"/><path class="cls-1" d="m21.79,146.66c-5.69,0-10.43-4.14-10.43-11.09,0-5.41,2.58-9.02,5.36-10.86,1.83-1.17,3.99-1.97,6.02-1.97,5.03,0,8.51,2.49,8.46,7.99,0,.38-.05.89-.09,1.22h-14.71c-.05.66-.09,1.41-.09,2.16,0,5.5,2.87,8.6,7.66,8.6,3.38,0,6.11-1.17,7.14-2.16-.05.42-.52,2.49-.66,3.01-1.6,1.83-4.23,3.1-8.65,3.1Zm-5.31-15.6l10.01-.66c0-4.79-1.32-6.63-4.79-6.67-1.88.09-4.46,2.26-5.22,7.33Z"/><path class="cls-1" d="m42.69,122.74c5.4,0,8.08,2.44,8.08,5.92v11.94c0,1.6.8,2.3,2.02,2.3.28,0,.75-.05.99-.14l-1.32,3.57c-.28.19-1.32.33-1.88.33-2.73,0-4.56-1.41-4.65-3.99v-.14h-.05c-.42.85-1.22,1.65-1.97,2.35-1.27,1.13-2.82,1.79-4.84,1.79-3.2,0-5.4-2.11-5.4-5.5,0-1.17.24-2.26.56-3.29l11.61-4.37v-3.43c0-2.58-1.74-3.71-4.93-3.71-1.97,0-4.51.8-6.25,1.69l-.09-.05c1.08-1.93,1.97-3.48,2.4-4.14,1.27-.61,3.76-1.13,5.73-1.13Zm-1.22,21.34c1.83,0,3.38-.85,4.37-2.16v-7.66l-7.05,3.2c-.28.56-.42,1.5-.42,2.35,0,2.73.94,4.28,3.1,4.28Z"/><path class="cls-1" d="m61.25,122.97v4.75c.71-1.22,1.74-2.49,2.58-3.34.99-1.08,2.07-1.64,3.43-1.64.8,0,1.83.28,2.63.56l-1.36,4.42c-1.6-.61-3.15-1.13-3.81-1.13-1.03,0-2.44.85-3.43,1.74v17.86h-4.89v-22.51l4.84-.71Z"/><path class="cls-1" d="m76.97,122.97v4.75c1.22-1.36,2.4-2.35,3.43-3.2,1.08-.89,2.58-1.79,4.98-1.79,4.23,0,6.49,2.21,6.49,6.63v16.83h-4.93v-15.23c0-3.43-1.36-4.75-4.75-4.75-1.65,0-3.34.66-5.17,2.21v17.76h-4.89v-22.51l4.84-.71Z"/><path class="cls-1" d="m99.22,119.36c-1.69,0-2.91-1.08-2.91-2.63s1.27-2.68,2.91-2.68,2.87,1.08,2.87,2.63-1.22,2.68-2.87,2.68Zm2.44,3.48v23.36h-4.89v-22.7l4.89-.66Z"/><path class="cls-1" d="m111.53,122.97v4.75c1.22-1.36,2.4-2.35,3.43-3.2,1.08-.89,2.58-1.79,4.98-1.79,4.23,0,6.49,2.21,6.49,6.63v16.83h-4.93v-15.23c0-3.43-1.36-4.75-4.75-4.75-1.65,0-3.34.66-5.17,2.21v17.76h-4.89v-22.51l4.84-.71Z"/><path class="cls-1" d="m134.13,124.43c1.55-.94,3.67-1.69,5.83-1.69,1.32,0,2.58.23,3.67.61l7.57-2.58v4l-6.25-.85v.05c2.54,1.41,4.14,3.9,4.14,6.86,0,3.95-2.12,6.11-4.23,7.52-1.55.94-3.67,1.69-5.83,1.69-.85,0-1.64-.09-2.44-.28-.66.75-1.41,1.6-1.69,2.11.19,1.32.94,2.07,1.97,2.07h11.14c3.15.42,4.32,2.49,4.32,4.75,0,3.99-5.92,10.2-15.74,10.2-3.9,0-7.9-2.07-8.08-5.17.56-1.08,3.06-3.24,6.16-4.89-1.83-.47-3.34-2.73-3.48-4.7.89-1.03,3.1-3.15,4.7-4.56-3.57-1.08-5.97-3.99-5.97-7.61,0-3.9,2.16-6.11,4.23-7.52Zm4.23,33.37c6.01-.33,10.53-3.85,10.53-6.2,0-1.5-.42-2.35-1.5-2.73h-12.12c-1.55,1.27-3.05,2.91-3.34,4.46.23,2.91,3.1,4.32,6.44,4.46Zm5.83-26.74c0-4.42-1.64-7.14-5.22-7.24-2.07.19-4.18,2.21-4.18,7.94,0,4.37,1.65,7.05,5.22,7.14,2.07-.14,4.18-2.16,4.18-7.85Z"/></g></svg>