<?xml version="1.0" encoding="UTF-8"?><svg id="a" xmlns="http://www.w3.org/2000/svg" viewBox="0 0 226.77 125.7"><defs><style>.b{fill:#273691;fill-rule:evenodd;}</style></defs><path class="b" d="M41.19,1.29c.24-.04-.53,.35-.55,.64,.96,.38,3.01-.5,4.23-.74,1.29-.25,2.6,.07,3.77-.27-.02-.16,.09-.46-.18-.37,.8-.46,1.51-.15,2.11,.28,.23-.23,.64-.28,.83-.55,.16,.08,.32,.17,.28,.46,.81-.02,1.58-.08,1.74-.74,.22,.06,.42,.13,.73,.09,.16,.27,.1,.76,.64,.64-.03,.61,.54,.62,.64,1.1h-.37c-.07,.38,.44,.17,.37,.55-.31,0-.4,.21-.55,.37-.61-.16-.97-.56-1.56-.73-.41,.03-.27,.28-.37,.46-.96,.05-1.69-.22-2.3,.18,.04,.44,.09,.44-.18,.64,.08,.14,.23,.2,.46,.18-.13,.12-.09,.4-.09,.64-.27,.07-.53,.14-.64,.37,.23,.2,.47,.39,.64,.64-.2,.63-.13,1.11,.28,1.47-.83,.16-2.01,.11-2.2,.64,.13,.4,.2-.1,.55,0,.29,.32,.66,.57,1.29,.55,.07,.4-.3,.38-.37,.64,.72-.16,1.53,.36,1.65,1.1-.35,.61-2.04-.59-2.11,.55-.17-.07-.34-.15-.55-.18-.24-.21,.24-.25,0-.46-.61,.27-1.56,.22-1.84,.83-.27-.3-1.39-.11-1.56,.27-.34,0-.95-.5-.92,.18-.27,.03-.28-.21-.55-.18-.27,0-.34,.21-.46,.37,.11,.29,.23,.56,.73,.46-1.14,1.43-3.71,.55-5.05,1.74-.3,.08-.13-.3-.37-.28-.49,.13-.78,.45-1.19,.64,.03,.12,.23,.08,.37,.09,.02,.31-.34,.48-.55,.28-.11-.29,.14-.12-.09-.46-.28-.07-.33,.09-.55,.09,.06-.09,.21-.1,.18-.27-.34-.06-.16,.39-.37,.46,.03,.12,.23,.08,.37,.09-.49,.7-1.44,.68-1.93,1.19,.09-.59-.25-.78-.28-1.29-.22,.08-.1,.51-.46,.46,.04-.2-.13-.18-.28-.18,.04-.18,.26-.17,.18-.46-.24-.2-1-.15-.92,.28,.23,.19,.19,.67,.64,.64-.41,.54-1.38,.52-1.74,1.1-.24,0-.52,.03-.64-.09-.33,.24,.08,.31-.09,.55-.62,.02-.7,.58-1.1,.83-.1-.53-.86,.42-1.01,.73,1.36,.04,2.7-.8,4.04-1.1,.61-.14,1.38,.03,1.65-.46,1.99-.5,3.52-.85,4.87-1.19,.11-.04,1,.16,1.1-.37,.29-.04,.36,.13,.55,.18,.9-.62,2.79-.11,3.86-.92,1.4,.06,3.39-.24,4.87-.92,.23,.11,.35,.32,.73,.28-.28,.27-.71,.39-1.1,.55-.29,.08-.28-.14-.46-.18-1.64,.95-3.62,.57-5.33,.92-.29,.06-.47,.26-.73,.28-.19,0-.45-.12-.64-.09-.47,.07-.95,.53-1.47,.64-.13,.03-.39-.09-.37-.09-.77,.2-1.38,.51-1.84,.64-.89,.26-2.81,.34-3.77,1.1-.38,.07-.17-.44-.55-.37-.63,.01-.58,.7-1.1,.83-.35,.02-.03-.07-.09-.27-.82,.33-1.37,.83-2.11,1.01-.71-.57-1.05,.78-1.84,.73,.3,.32,.47-.26,.92-.09-.27,.16-.36,.5-.46,.83-.36,.01,.03-.14-.18-.28-.16,.5-.25,1.06,.18,1.38-.71,1.96,1.48,3.7,.64,5.79-.25-.07-.18,.18-.37,.18,.06,1.34,.31,1.92,.18,3.4,.12,.24,.87-.13,.64,.46,.47,.02,.83-.09,1.01-.37,1.88-.35,3.72-.75,5.05-1.65,.11,.08,.25,.12,.46,.09,.03-.24-.51,.09-.37-.28,.47-.11,.8-.36,1.28-.46,.14,.35-.41,.02-.27,.37,.07,.21,.51,.04,.73,.09,.38-.69,2.1,.12,2.3-.92-.12-.24-1.52,.16-.83-.09,1.52-.51,3.47,.19,5.05-.83,0,.27,.1,.36,.46,.46-.16,.23-.59,.21-.83,.37,.2,.59,.95,.38,1.56,.37-.32,.08-.17,.63-.46,.73-.25-.15-.41-.39-.92-.28-.2-.02-.04,.33-.09,.46-.13,0-.26-.02-.28,.09-.34-.4-1.18-.29-1.38,.18,0,.18,.25,.12,.18,.37,2.7-.38,4.66-1.01,7.07-1.56,.02-.45-.32-.53-.46-.83,.7-.19,1.46-.32,1.84-.83,.22,.18,.58,.21,1.01,.18-.33,.49-1.36-.02-1.38,.92,.99,.24,2.13-.03,2.66-.73-.06-.33-.62-.15-.74,0-.32-.83,1.48-1.08,2.48-1.19-.19,.49-1.23,.12-1.19,.83,.76,.3,1.38-.34,1.74-.74,.14-.35-.41-.02-.28-.37,.34,.06,.39-.16,.73-.09-.1,.2-.24,.38-.18,.73,.96-.17,1.49-.22,2.48-.37,.19-.38,.43-.48,.92-.37,.06,.33-.06,.49-.18,.64-.25-.09-.85-.24-.73,.28,.7,.21,1.58,.45,2.2,.46,.04,.29-.17,.32-.09,.64,1.1,.27,1.84,.08,2.94-.18,.3,.97-.86,1.2-1.65,1.38-.4,.12-.28,.76-.83,.73,.04,.36,.38,.42,.83,.37,0,.46,.48,.44,.73,.64-.09,1.04-1.04,1.22-2.3,1.1-.16,.02-.21,.16-.18,.37-.28,.07-.27-.16-.55-.09-.45,.43-1.09,.55-1.93,.37-.48,.29-1.03,.5-1.74,.55,.02-.41,.93,.07,.83-.46-.37-.11-.8-.02-1.38-.09-.23,1.15-2.24,.51-2.66,1.47-.27-.22-.7-.02-.73,.27-1.27,0-2.11,1.18-3.58,1.29,.11-.32,.47-.39,.83-.46,.18-.19,.26-.48,.37-.73-.22,.05-.49-.21-.73-.18-.44,.04-.45,.41-1.01,.64-.29,.12-.63,0-.92,.09-.47,.15-.62,.31-1.1,.37-.66,.08-1.25,.54-1.74,.73-.09,.33,.4,.09,.46,.28,.03,.43-.62,.17-.55,.64,.37,.18,.84-.32,1.47-.18,.08-.26-.13-.24-.09-.46,.33-.09,.04,.45,.46,.28,.16-.18,.19-.48,.28-.74,.4,.83,1.83,.51,2.2-.09,.74,.48,1.85-.05,2.66-.09,.06-.24-.04-.33-.27-.28,.08-.16,.29-.2,.55-.18,.07,.28-.32,.11-.18,.46,.78,.1,1.8-.34,2.57-.55,.13-.4-.55,0-.55-.27,.08-.32,.51-.28,.37-.83,1.63,.01,2.78-.47,4.5-.37,.17-.01,.06-.31,.18-.37,.34,.03,.33,.4,.83,.28,.09,.36-.51,.04-.46,.37-.01,.16,.11,.19,.09,.37,.45-.23,1.2,.36,1.19-.37,.34,0,.63,.04,.64,.37-.2,.5-.76,.65-1.01,1.1-.45-.38-.75-.02-1.1,.18-.48-.62-1.54,.47-2.3,.55-.33,.04-.63-.14-.92-.18-.4,.21-.98,.24-1.29,.55-.17-.04-.23-.2-.46-.18-1.95,.69-4.03,.62-5.79,1.65-.17-.07-.34-.15-.55-.18-.75,.64-2.36,.08-3.03,.92-.65-.42-1.18,.1-1.47,.55-.21-.26-.57-.17-.74-.28-.28,.05-.34,.33-.46,.55-.7-.17-1.13,.46-1.74,.64-.51,.15-1.07-.02-1.56,.09-.68,.15-1.21,.58-1.65,1.01-.36-.17-1.17-.1-1.19,.37-.38,.01-.57-.16-1.01-.09-.28,0-.21,.6-.09,.73,.51,.02,.7-.28,1.29-.18,.66-.53,1.77-.61,2.75-1.01,.11-.02,.08-.17,.09-.28,1.6,.01,2.56-.63,3.95-.83,.04,.22-.17,.2-.09,.46h-.73c-.17,.23,.08,.36-.09,.64-.29,.04-.32-.16-.64-.09-.43,.15-.26,.91-.83,.92,.22-.18-.15-.34-.09-.83-1.15,.29-2.09,.79-2.76,1.56-.93-.87-1.41,.43-1.84,.92,.49,.92,1,2.28,2.02,2.94,0,.84,.79,1.57,1.29,2.2,.74,1.47,1.16,3.24,2.11,4.5,.76,2.32,2.49,4.42,3.95,6.34v.46c1.24,1.82,2.81,3.32,3.95,5.23,1.06,.81,1.55,2.19,2.94,2.66,1.88,2.4,4.82,3.75,7.07,5.79,.89,.39,1.81,.76,2.3,1.56,.88,.3,1.65,.9,2.48,1.29,.38,.17,.67,.68,1.01,.92,.48,.33,.98,.29,1.65,.55,1.13,.43,2.24,1.13,3.49,1.56,1.31,.45,2.35,1.22,3.77,1.47,1.37,.67,3.7,.8,5.51,1.29,.14,.31,.27,.26,.28,.55,1.37,.1,2.2,1.12,3.67,.83-.05,.07-.1,.15-.09,.28,.95,.01,1.48,.79,2.39,.55,1.03,.62,1.98,1.33,3.49,1.47,.54,.99,2.32,.74,3.4,1.19-.11,.14-.11,.23,0,.37,1.72,.39,2.57,1.32,4.32,.83-.03,.46-.61,.37-1.1,.37,1.44,1.76,4.43,1.48,6.24,2.75,.64-.13,1.02,.04,1.56-.18-.16,.26-.07,.26-.18,.46,.36,.48,.9,.1,1.38,.27,.11,.14,.11,.23,0,.37,.49,.15,.74,.05,1.1-.09-.06,.09-.21,.34,.09,.28,.11,.38-.19,.36-.18,.64,.31,.04,.52-.03,.46-.37,.46,.18,.89,.04,.83-.37,.26,.08,.57,.11,.83,.18-.32,.19-.55,.44-.55,.73,.06,.33,.62,.15,.83,.09-.31,.29,1.24,.1,.92,.83,1.25,.16,2.19,1.15,3.86,1.01-.26,.43,.39,.63,.74,.46,0-.16-.07-.24-.18-.27,.18,.04,.28-.03,.74-.09,.08,.35-.48,.52-.09,.64-.27,.09-.51,.22-.83,.28-.06,.25,.19,.18,.28,.28-.13,.21-.64,.03-.92,.09,1.42,.88,3.37,1.22,5.05,1.84,.25,.06,.18-.19,.28-.28,.57,.33,1.21,.11,1.84,.28,.17,.51-.58,.09-.55,.46-.13-.4-.75-.56-1.19-.37,.38,.42,1.27,.32,1.74,.64-.03,.28-.75,.04-.92,.18,.44,.51,1.42,.48,1.93,.92-.1,.21-.58,.03-.83,.09,4.23,1.64,8.04,2.64,12.21,4.41-.39,.28-1.45,.02-2.11,0,0,.31,.52,.09,.64,.28-.21,.26-.54-.13-.92,0,.1,.76,1.75,.93,2.2,.74,.24,.16,.28,.51,.46,.73,.46,.06,.71-.09,1.1-.09,0,.15-.04,.35,.09,.37,.07,.25-.43-.07-.37,.18,.07,.18,.52-.02,.55-.18,.77,.42,1.87,1.68,1.19,2.66-.04-.33-.44-.3-.83-.28-.07-.57-.62-.66-1.01-.92-.38,.52-.89,.22-1.65,.55-.22-.34-.11-.68-.64-.83-.22,.05-.47,.08-.46,.37-.21,.03-.1-.27-.28-.28-1.84,.13-3.39-1.13-5.14-.73-.16-.02-.21-.16-.18-.37-.91-.01-1.99-.08-3.03-.37,.5,1.4,3.3,.87,4.68,1.65-.3,.23-.64-.1-.92,.18,.32,.6,1.4,.43,2.02,.73-1.64,.06-3.36-.81-5.14-.73-.31,.15,.29,.29,0,.46-.51,.01-1.11-.41-1.38-.09-1.27-.32-2.19-.34-3.76-.18-.14,.08-.29,.14-.28,.37-.28-.06,.09-.2,0-.37-.94-.48-2.57-.3-3.21,.28-2.56-.09-4.66,.31-7.26,.09,.05-.2-.18-.13-.18-.27-1.86-.32-3.89-.1-5.69-.46-1.32-.26-2.46-.85-3.77-.92-1.18-.06-2.39,.13-3.58,.18-2.37,.11-4.7-.71-7.25-.64-2.83,.07-6.32,.45-8.27-1.65-.28-.07-.27,.16-.55,.09-.82-.49-1.89-.74-2.85-1.1-1.94-1.89-5.25-2.41-7.07-4.41-1.02-.34-1.35-.79-2.02-1.47-.34,0-.26-.1-.55,0-.4-.85-1.59-.61-2.11-1.47-.32-.08-.39,.17-.55,0,.48-.13-.32-.52,.28-.46-.07-.18-.68-.14-.64,.09-.11-.33-.29-.73-.73-.46,.03-.21-.02-.35-.09-.46-1.02-.63-2.35-1.45-2.57-2.57-.19-.11-.27-.35-.55-.37-1.23-2.16-3.5-4.18-4.04-6.43-.33-.1-.54-.32-.83-.46-.05-.93-1.27-1.97-1.19-3.03-.7-.18-.26-1.52-1.01-1.65,.02-.16,.16-.21,.37-.18-.75-.38-1.14-1.61-1.1-2.48,.26-.24,.54,.07,.73,.18-.13-.51-.76-.53-1.29-.64-.37-.68-.39-1.83-.92-2.57,.44-.35-.36-.53,.18-.55-.23-.35-.45-.71-.73-1.01,.04-.18,.2-.23,.18-.46-.64-1.14-1.54-2.63-2.11-4.13-.56-.88-1.69-1.67-1.84-2.66-.39,.05-.31-.36-.64-.37-.12-.95-.87-1.27-1.1-2.11-.22,.04-.2-.17-.46-.09,.06-.35-.32-.42-.46-.64-1.09-1.79-1.66-3.99-3.22-5.33-.13-1.07-.91-1.48-1.19-2.39-1.05,.07-.47-1.49-1.38-1.56-.08-.41-.15-.83-.64-.83-.65-.91-.95-2.17-2.02-2.66-.35,2.1,1.25,4.25,.28,6.25,.63,1.07-.47,2.58-.09,3.67-.21,.09-.11,.5-.28,.64,.44,.56-.04,1.5,.09,2.02,.02,.11,.17,.08,.28,.09-.17,.8,.42,1.81,.18,2.48,.52,.88,.52,2.2,.83,3.12-.44,.43-.65,1.3,0,1.65-.51,.43-.51,1.39-1.01,1.84-.02,.27,.21,.28,.18,.55-.44,.11-.23,.95-.09,1.38-.36,.08-.45,.61-.18,.83-.17,.29-.49,.43-.64,.73-.06,.25,.19,.18,.27,.28-.19,.62-.45,1.56-.37,1.84-.14,.16-.15,.46-.55,.37-.03,.24,.36,.07,.28,.37-.27,.19-.61,.31-.73,.64,.23-.08,.49-.12,.83-.09-.26,.84-1.05,1.15-1.38,1.93,.14,.23,.37,.36,.64,.46-.2,.84-1.07,.99-.64,2.02-.5,.35-.91,1.09-.73,1.84-.64,.55-.85,1.53-1.47,2.11,.02,.11,.17,.08,.28,.09-1.81,1.07-2.51,3.24-4.13,4.5-.16,.08-.17,.32-.28,.46-1.34,.47-2.02,2.08-3.58,2.02-.31,.42-1.12,.35-1.38,.83-.46-.21-1.12,.28-1.56,.09-.3,.03-.41,.27-.64,.37-1.96-.15-3.46,.96-5.51,.74-.98-.71-2.34-.68-2.66-1.65-.16-.48-.85-.54-.92-1.19-.17-.07-.34-.15-.55-.18-.21-.55-.63-.9-1.01-1.29,.03-.74-.3-1.16-.27-1.65-.82-1.61-2.55-2.2-3.12-4.23-1.31-.99-2.07-2.52-3.4-3.49,.54-.23,.97,.44,1.65,.37,.31,.04,.05-.68,.37-.37,.46,.04-.08,.31-.09,.46,.48,.04,.4-.04,.46-.28,.37,.06,.62,.23,1.1,.18-1.45-.75-3.1-1.31-4.13-2.48,.75,.21,1.58,.95,2.11,.18-.05-.5-.85-.25-.92-.74-.52-.21-1.27-.2-1.38-.83,.74,.24,2.06,.55,2.39-.28-.22-.34-.74-.36-1.19-.46,.89-.15,1.97-.11,2.94-.18,.14-.35-.41-.02-.28-.37,2.23,.33,4.39,.2,6.52-.09,1.72,.38,5.31-.48,7.35-.73,2.35-.29,3.6-2.06,5.42-2.94,.6-.8,1.5-2.03,2.3-2.94,.49-1.77,1.35-3.18,1.93-4.87,.74-5.45,1.49-10,1.38-15.89-.02-.96-.16-1.93-.28-3.03h-.46c-.27,0-.12,.43-.28,.55-1.25,.31-2.35,.78-3.12,1.56-.74,0-1.31,.16-1.47,.73-1.2,.23-2.05,.83-2.85,1.47,.06,.21,.48,.07,.37,.46,.65,.14,.92-.6,1.29-.18-.33,.64-1.5,.46-1.65,1.29-.95,.51-2.36,.88-2.3,2.11-.83,.36-1.22,1.17-2.02,1.56,.05,.07,.1,.15,.09,.28-2.37,.89-3.36,3.6-5.97,4.41-.28,.66-1.57,1.05-2.39,1.47-1.74,.2-2.43-.63-3.67-.92-.19-.61-.76-.83-1.47-.92-.04-.87-.99-1.56-1.56-2.2-.38-1.69-.92-3.72-.46-5.97-.38-.32,.06-.48,.09-.83,.05-.57-.29-1.1-.28-1.65,.02-.65,.64-1.25,.64-1.93,0-.26-.24-.47-.28-.64-.09-.46,.15-.92-.28-1.38-.06-1.13,.79-1.58,.83-2.57,2.21-.14,2.52-2.2,4.13-2.94-.07-.3-.51-.22-.73-.37,.4-.3,.95,.37,1.19-.18-.14-.21-.22-.14-.46-.09-.02-.66,1.01-.28,1.1-.83,.22,.03,.09,.4,.28,.46,.07-.02,.09-.09,.18-.09,.31-.1-.26-.03-.09-.27,.91-.07,1.81,.16,2.02-.73,2.73-.67,4.6-2.2,7.07-3.12,.68-1,2.71-.66,3.49-1.56,1.36-.38,3.03-.53,4.32-.73-.01-.38,.36-.38,.37-.74,.68-.02,1.23-.18,1.38-.73,.38,.05,.62-.05,.83-.18-.14-1.59-.23-2.71-.46-4.04-.1-.34,.23-.26,.18-.55-.3-.86-.09-2.31-.73-2.85,.21-.74-.15-1.27-.28-1.93-.68-.07-.8,.43-1.19,.64-.9-.28-1.66,.18-2.39,.37-.03,.22-.15,.34-.09,.64-.88-.12-.95,.58-1.56,.73,.02,.16-.09,.46,.18,.37-.38,.29-.6,.75-.55,1.47-.6,.17-.65,.88-1.01,1.29-.34,.21-.98,.12-1.01,.64-3.03,.78-5.45,3.73-9.18,2.39-.31-.39-.72-.69-1.38-.73-.14-.32-.36-.56-.55-.83-1.34-.61-1.58-1.95-2.2-3.12-.07-2.58-1.07-5.39,.09-7.99-.31-.81,.41-1.28,.55-1.93,.06-.28-.17-.68-.09-1.01,.19-.82,1.2-1.47,.83-2.57,.76-.13,1.37-.4,1.56-1.1,.46-.12,1.03-.14,1.1-.64,2.51-.49,4.03-1.97,6.61-2.39,.19-.02,.18-.25,.28-.37,3.15-.69,7.05-2,10.65-3.03,.07,.25-.18,.19-.18,.37,1.69,.09,3.03-1.01,4.04-1.01-.32-.48,.68-.88,1.29-1.01-.15,.58-.89,.01-1.01,.64,.01,.51,.99,.24,1.1,0,1,.18,2.89-.27,3.67-.92,.78,.67,2.25-.55,3.12-.37,.14-.04-.04-.12,0-.28,.17,.04,.17,.26,.46,.18-.43-.39,.54,.05,.64-.28-.01-.15-.06-.36,.18-.64,.02,.44,1.24,.99,1.1,.18,.21-.22,.6-.25,.92-.37Zm10.84-.09c.35,.09,1.01,.37,1.01-.18-.34-.1-.98-.4-1.01,.18Zm-8.91,2.3c.12,1.16,1.8,.1,1.74-.28-.64,.2-.95,.39-1.74,.28Zm6.43,.27c.07,.46,.88,.45,.92,0-.36,.35-.39-.05-.92,0Zm-4.04,1.47c.26-.08,.56-.11,.73-.27-.17-.12-.81-.13-.73,.27Zm-.28,3.49c-.07,.28,.09,.33,.09,.55,.87-.04,1.91-.16,2.3-.92-1.06,.34-1.54,.31-2.39,.37Zm-1.29,.55c.2,.11,1.04,.22,1.1-.09-.11-.02-.1-.14-.09-.27-.5-.13-.98-.32-1.01,.37Zm-2.2,0c.19,.02,.03,.4,.18,.46,.52-.07,1.06,0,1.1-.73-.5,.02-1.07-.03-1.29,.28Zm-1.19,.83c.24,0,.54,.05,.55-.18-.24,0-.54-.05-.55,.18Zm1.01,.83c-.1,.21-.21,.4-.37,.55-.2-.2-.56-.41-.55-.09-.36-.03-.4-.16-.18-.37-.29,.08-.4,.28-.73,.09-.1,.34,.19,.3,.28,.46-.55,.27-1.45,.49-1.93,.55,.12,.13,.43,.06,.55,.18,1.47-.56,3.44-.47,4.96-1.19-.59-.6-1.25-.13-2.02-.18Zm-4.96,1.56c.46,.12,1.11,.06,1.38-.27-.19-.03-.25-.18-.37-.28-.08,.13-.14,.29-.37,.28,.05-.14,.14-.23,.18-.37-.37,.12-.7,.28-.83,.64Zm-1.01,0c.13,.14,.48,.09,.46-.18-.23-.01-.45-.02-.46,.18Zm8.72,14.97c.31,.18,1.22,.18,1.1-.37-.51-.02-.91,.06-1.1,.37Zm-6.89,1.84c-.18,.27-.64,.28-.74,.64,1.18,.21,2.32-.12,2.94-.92,.2,.08,.31,.24,.64,.18,.74-1.23,3.23-.38,3.86-1.56-2.74,.18-4.26,1.11-6.7,1.65Zm5.14,.18c.41,.11,.94,.1,1.47,.09,.12-.16,.21-.89-.09-.92-.5,.23-.88,.59-1.38,.83Zm3.86,.28c-.01-.26,.57,.08,.55-.18-.17-.26-.8,.05-.55,.18Zm-4.96,0c.31,0,.64,.03,.73-.18-.28,.03-.71-.1-.73,.18Zm3.49,.28c-.07,.02-.18,0-.18,.09,.31,.04,.52-.03,.46-.37h-.28c-.04,.13-.11,.15,0,.28Zm-5.33,.64c.68,1.02,1.78-.05,2.94,.09-.07-.28,.09-.33,.09-.55-.5,.1-.35-.45-.92-.28-.13,.26-.24,.53-.09,.83-.2-.17-.65-.09-.73-.37,.23-.08,.4-.21,.37-.55-.86-.04-1.58,.08-1.65,.83Zm13.41,.18c-.01-.2-.23-.2-.46-.18-1.21,.69-2.82,.98-3.95,1.74,.75,.2,1.58-.29,2.48-.46,.94-.18,2.16,0,2.48-.92,.48-.26,1.42-.05,1.47-.73-.25-.02-1.69,.07-2.02,.55Zm-14.23,.73c.32,.01,.43-.18,.64-.28-.07-.02-.18,0-.18-.09,.07-.02,.11-.08,.09-.18-.36,0-.42,.31-.55,.55Zm14.33,.92c.47,.01,.92,0,1.01-.37-.39,.07-.78,.13-1.01,.37Zm-32.42,1.19c-.14,.08-.2,.23-.18,.46,.4-.12,.91-.13,1.01-.55-.13,0-.2-.04-.28-.09-.32,.26-.32,.45-.55,.18Zm-1.65,.92c.19-.37,1-.1,1.1-.55-.37-.56-.44,.46-1.1,.18,.13,.21-.24,.35,0,.37Zm23.42,1.93c.76,.26,1.56-.2,2.3-.28,.07-.28-.16-.27-.09-.55,.21-.25,.7-.21,.73-.64-1.29,.18-2.38,.56-2.94,1.47Zm-2.57,.55c.11,.08,.25,.12,.46,.09-.08-.26,.13-.24,.09-.46-.29,.02-.55,.06-.55,.37Zm-11.94,9.18c0,.34,.41,.26,.73,.27v-.37c-.35-.07-.44,.11-.73,.09Zm67.68,42.7c-.71-.3-1.3-.72-2.11-.92,.48,.47,1.57,.82,2.11,.92Zm3.58,1.01c.73,.45,1.76,.31,2.3,.55,.06-.43-.5-.23-.83-.28-.14-.73-1.03-.69-1.47-.27Zm4.22,2.39c.05-.24-.53-.31-.55-.18,.16,.08,.23,.26,.55,.18Zm1.56,.09c-.33,.06-.44-.11-.64-.18-.1,.38,.63,.46,.64,.18Zm4.5,1.75c-.21-.09-.3-.32-.64-.28,.05,.2,.49,.48,.64,.28Zm1.65,.46c-1.07-.14,1.35,.44,1.1-.46-.46,.1-.53-.21-.92-.18-.08,.4,.08,.51-.18,.64Zm-.46-.09c-.26,0-.93-.42-.83-.18,.26,.02,.54,.5,.83,.18Zm3.58,.37c-.55-.21-1.18-.35-1.75-.55,.37,.31,1.37,.85,1.75,.55Zm-.83,.64c-.13-.33-.95-.37-1.38-.27,.4,.02,.71,.3,1.38,.27Zm5.42,2.3c-.59-.06-1.38-.59-1.56-.28,.62-.04,1.14,.7,1.56,.28Zm0,.37c.13,.12,.73,.19,.73-.09-.26-.11-.56-.11-.73,.09Z"/><g><path d="M72.23,41.08c.34,0,.76-.07,1.24-.23v1.46c-.49,.22-1.09,.33-1.81,.33-.79,0-1.36-.2-1.72-.6s-.54-.99-.54-1.79v-3.48h-.94v-.83l1.08-.66,.57-1.52h1.26v1.54h2.02v1.48h-2.02v3.48c0,.28,.08,.49,.24,.62,.16,.13,.36,.2,.62,.2Z"/><path d="M74.84,33.44c0-.64,.36-.96,1.07-.96s1.07,.32,1.07,.96c0,.31-.09,.54-.27,.71-.18,.17-.45,.26-.8,.26-.71,0-1.07-.32-1.07-.97Zm2.05,9.08h-1.97v-7.21h1.97v7.21Z"/><path d="M83.54,42.52l-.38-.98h-.05c-.33,.42-.67,.71-1.02,.87-.35,.16-.81,.24-1.37,.24-.69,0-1.24-.2-1.64-.59-.4-.4-.6-.96-.6-1.69s.27-1.33,.8-1.69c.54-.36,1.34-.56,2.42-.6l1.25-.04v-.32c0-.73-.37-1.1-1.12-1.1-.58,0-1.25,.17-2.03,.52l-.65-1.33c.83-.43,1.75-.65,2.76-.65s1.71,.21,2.23,.63c.52,.42,.77,1.06,.77,1.92v4.81h-1.37Zm-.58-3.34l-.76,.03c-.57,.02-1,.12-1.28,.31-.28,.19-.42,.48-.42,.86,0,.56,.32,.83,.96,.83,.46,0,.82-.13,1.09-.39,.27-.26,.41-.61,.41-1.04v-.59Z"/><path d="M93.59,42.52h-1.97v-4.21c0-.52-.09-.91-.28-1.17s-.48-.39-.88-.39c-.55,0-.95,.18-1.19,.55-.25,.37-.37,.98-.37,1.83v3.39h-1.97v-7.21h1.5l.27,.92h.11c.22-.35,.52-.61,.91-.79s.82-.27,1.31-.27c.84,0,1.47,.23,1.91,.68s.65,1.11,.65,1.96v4.7Z"/><path d="M95.04,45.69c-.5,0-.94-.05-1.3-.16v-1.55c.3,.08,.61,.12,.92,.12,.33,0,.57-.09,.73-.28,.15-.18,.23-.46,.23-.82v-7.7h1.97v7.99c0,.77-.22,1.36-.66,1.77-.44,.42-1.07,.62-1.88,.62Zm.5-12.25c0-.64,.36-.96,1.07-.96s1.07,.32,1.07,.96c0,.31-.09,.54-.27,.71-.18,.17-.45,.26-.8,.26-.71,0-1.07-.32-1.07-.97Z"/><path d="M99.57,33.44c0-.64,.36-.96,1.07-.96s1.07,.32,1.07,.96c0,.31-.09,.54-.27,.71-.18,.17-.45,.26-.8,.26-.71,0-1.07-.32-1.07-.97Zm2.05,9.08h-1.97v-7.21h1.97v7.21Z"/><path d="M110.34,42.52h-1.97v-4.21c0-.52-.09-.91-.28-1.17s-.48-.39-.88-.39c-.55,0-.95,.18-1.19,.55-.25,.37-.37,.98-.37,1.83v3.39h-1.97v-7.21h1.5l.27,.92h.11c.22-.35,.52-.61,.91-.79s.82-.27,1.31-.27c.84,0,1.47,.23,1.91,.68s.65,1.11,.65,1.96v4.7Z"/><path d="M69.1,46.14c0-.64,.36-.96,1.07-.96s1.07,.32,1.07,.96c0,.31-.09,.54-.27,.71-.18,.17-.45,.26-.8,.26-.71,0-1.07-.32-1.07-.97Zm2.05,9.08h-1.97v-7.21h1.97v7.21Z"/><path d="M79.88,55.22h-1.97v-4.21c0-.52-.09-.91-.28-1.17-.19-.26-.48-.39-.88-.39-.55,0-.95,.18-1.19,.55-.25,.37-.37,.98-.37,1.83v3.39h-1.97v-7.21h1.5l.26,.92h.11c.22-.35,.52-.61,.91-.79s.82-.27,1.31-.27c.84,0,1.47,.23,1.91,.68s.65,1.11,.65,1.96v4.7Z"/><path d="M84.94,53.78c.34,0,.76-.07,1.24-.23v1.46c-.49,.22-1.09,.33-1.81,.33-.79,0-1.36-.2-1.72-.6-.36-.4-.54-.99-.54-1.79v-3.48h-.94v-.83l1.08-.66,.57-1.52h1.26v1.54h2.02v1.48h-2.02v3.48c0,.28,.08,.49,.23,.62,.16,.13,.37,.2,.62,.2Z"/><path d="M90.91,55.35c-1.16,0-2.07-.32-2.72-.96-.65-.64-.98-1.55-.98-2.72s.3-2.14,.91-2.8c.61-.66,1.44-.99,2.51-.99s1.81,.29,2.38,.87c.57,.58,.85,1.38,.85,2.41v.96h-4.65c.02,.56,.19,1,.5,1.31,.31,.31,.74,.47,1.3,.47,.43,0,.85-.05,1.23-.14,.39-.09,.79-.23,1.21-.43v1.52c-.34,.17-.71,.3-1.1,.38-.39,.08-.87,.13-1.43,.13Zm-.28-6.08c-.42,0-.74,.13-.98,.4s-.37,.64-.41,1.13h2.76c0-.49-.14-.86-.38-1.13-.24-.26-.58-.4-.99-.4Z"/><path d="M99.47,47.87c.27,0,.49,.02,.67,.06l-.15,1.85c-.16-.04-.35-.06-.58-.06-.63,0-1.12,.16-1.47,.48-.35,.32-.52,.77-.52,1.36v3.67h-1.97v-7.21h1.49l.29,1.21h.1c.22-.4,.52-.73,.91-.98s.79-.37,1.24-.37Z"/><path d="M108.1,55.22h-1.97v-4.21c0-.52-.09-.91-.28-1.17s-.48-.39-.88-.39c-.55,0-.95,.18-1.19,.55-.25,.37-.37,.98-.37,1.83v3.39h-1.97v-7.21h1.5l.27,.92h.11c.22-.35,.52-.61,.91-.79s.82-.27,1.31-.27c.84,0,1.47,.23,1.91,.68s.65,1.11,.65,1.96v4.7Z"/><path d="M114.71,55.22l-.38-.98h-.05c-.33,.42-.67,.71-1.02,.87-.35,.16-.81,.24-1.37,.24-.69,0-1.24-.2-1.64-.59-.4-.4-.6-.96-.6-1.69s.27-1.33,.8-1.69c.53-.36,1.34-.56,2.42-.6l1.25-.04v-.32c0-.73-.37-1.1-1.12-1.1-.58,0-1.25,.17-2.03,.52l-.65-1.33c.83-.43,1.75-.65,2.76-.65s1.71,.21,2.23,.63c.52,.42,.77,1.06,.77,1.92v4.81h-1.37Zm-.58-3.34l-.76,.03c-.57,.02-1,.12-1.28,.31-.28,.19-.42,.48-.42,.86,0,.56,.32,.83,.96,.83,.46,0,.82-.13,1.09-.39,.27-.26,.41-.61,.41-1.04v-.59Z"/><path d="M121.15,53.78c.34,0,.76-.07,1.24-.23v1.46c-.49,.22-1.09,.33-1.81,.33-.79,0-1.36-.2-1.72-.6-.36-.4-.54-.99-.54-1.79v-3.48h-.94v-.83l1.08-.66,.57-1.52h1.26v1.54h2.02v1.48h-2.02v3.48c0,.28,.08,.49,.23,.62,.16,.13,.37,.2,.62,.2Z"/><path d="M123.76,46.14c0-.64,.36-.96,1.07-.96s1.07,.32,1.07,.96c0,.31-.09,.54-.27,.71-.18,.17-.45,.26-.8,.26-.71,0-1.07-.32-1.07-.97Zm2.05,9.08h-1.97v-7.21h1.97v7.21Z"/><path d="M134.43,51.6c0,1.17-.31,2.09-.93,2.75s-1.48,.99-2.59,.99c-.69,0-1.3-.15-1.83-.45s-.93-.74-1.22-1.31c-.28-.57-.43-1.23-.43-1.99,0-1.18,.31-2.09,.92-2.75,.61-.65,1.48-.98,2.59-.98,.69,0,1.3,.15,1.83,.45,.53,.3,.94,.73,1.22,1.3,.28,.56,.43,1.22,.43,1.98Zm-4.99,0c0,.71,.12,1.25,.35,1.62,.23,.37,.62,.55,1.15,.55s.9-.18,1.13-.55,.34-.9,.34-1.62-.12-1.25-.35-1.61c-.23-.36-.61-.54-1.14-.54s-.9,.18-1.14,.53-.35,.89-.35,1.61Z"/><path d="M142.72,55.22h-1.97v-4.21c0-.52-.09-.91-.28-1.17s-.48-.39-.88-.39c-.55,0-.95,.18-1.19,.55-.25,.37-.37,.98-.37,1.83v3.39h-1.97v-7.21h1.5l.27,.92h.11c.22-.35,.52-.61,.91-.79s.82-.27,1.31-.27c.84,0,1.47,.23,1.91,.68s.65,1.11,.65,1.96v4.7Z"/><path d="M149.33,55.22l-.38-.98h-.05c-.33,.42-.67,.71-1.02,.87-.35,.16-.81,.24-1.37,.24-.69,0-1.24-.2-1.64-.59-.4-.4-.6-.96-.6-1.69s.27-1.33,.8-1.69c.53-.36,1.34-.56,2.42-.6l1.25-.04v-.32c0-.73-.37-1.1-1.12-1.1-.58,0-1.25,.17-2.03,.52l-.65-1.33c.83-.43,1.75-.65,2.76-.65s1.71,.21,2.23,.63c.52,.42,.77,1.06,.77,1.92v4.81h-1.37Zm-.58-3.34l-.76,.03c-.57,.02-1,.12-1.28,.31-.28,.19-.42,.48-.42,.86,0,.56,.32,.83,.96,.83,.46,0,.82-.13,1.09-.39,.27-.26,.41-.61,.41-1.04v-.59Z"/><path d="M154.69,55.22h-1.97v-10.04h1.97v10.04Z"/><path d="M74.22,65.78c0,.74-.26,1.3-.77,1.69-.51,.39-1.28,.58-2.31,.58-.52,0-.97-.04-1.34-.11-.37-.07-.72-.17-1.04-.31v-1.63c.37,.17,.78,.32,1.24,.43,.46,.12,.86,.17,1.21,.17,.71,0,1.07-.21,1.07-.62,0-.16-.05-.28-.14-.38-.09-.1-.26-.21-.49-.33-.23-.12-.54-.27-.93-.43-.55-.23-.96-.45-1.22-.65-.26-.2-.45-.42-.57-.68s-.18-.57-.18-.95c0-.64,.25-1.14,.75-1.49,.5-.35,1.2-.53,2.11-.53s1.71,.19,2.54,.57l-.59,1.42c-.36-.16-.7-.28-1.01-.38-.31-.1-.63-.15-.96-.15-.58,0-.87,.16-.87,.47,0,.18,.09,.33,.28,.46,.19,.13,.6,.32,1.23,.57,.56,.23,.98,.44,1.24,.64s.46,.43,.58,.68c.12,.26,.19,.57,.19,.92Z"/><path d="M78.68,68.05c-2.25,0-3.37-1.23-3.37-3.7,0-1.23,.31-2.16,.92-2.81s1.49-.97,2.63-.97c.83,0,1.58,.16,2.24,.49l-.58,1.52c-.31-.13-.6-.23-.86-.31-.27-.08-.53-.12-.8-.12-1.02,0-1.54,.73-1.54,2.18s.51,2.12,1.54,2.12c.38,0,.73-.05,1.05-.15,.32-.1,.65-.26,.97-.47v1.68c-.32,.2-.64,.34-.96,.42-.32,.08-.73,.12-1.23,.12Z"/><path d="M89.21,67.92h-1.97v-4.21c0-1.04-.39-1.56-1.16-1.56-.55,0-.95,.19-1.19,.56s-.37,.98-.37,1.82v3.39h-1.97v-10.04h1.97v2.05c0,.16-.02,.53-.05,1.12l-.05,.58h.1c.44-.71,1.14-1.06,2.09-1.06,.85,0,1.49,.23,1.93,.68s.66,1.11,.66,1.96v4.7Z"/><path d="M97.79,64.3c0,1.18-.31,2.09-.93,2.76-.62,.66-1.48,.99-2.59,.99-.69,0-1.3-.15-1.83-.45s-.94-.74-1.22-1.31c-.28-.57-.43-1.23-.43-1.99,0-1.18,.31-2.09,.92-2.75,.62-.65,1.48-.98,2.59-.98,.69,0,1.3,.15,1.83,.45,.53,.3,.94,.73,1.22,1.3,.28,.56,.43,1.22,.43,1.98Zm-4.99,0c0,.72,.12,1.25,.35,1.62s.62,.55,1.15,.55,.9-.18,1.13-.54c.23-.36,.34-.9,.34-1.62s-.12-1.25-.35-1.61c-.23-.36-.61-.54-1.14-.54s-.9,.18-1.14,.53c-.23,.36-.35,.89-.35,1.61Z"/><path d="M105.97,64.3c0,1.18-.31,2.09-.93,2.76-.62,.66-1.48,.99-2.59,.99-.69,0-1.3-.15-1.83-.45s-.94-.74-1.22-1.31c-.28-.57-.43-1.23-.43-1.99,0-1.18,.31-2.09,.92-2.75,.62-.65,1.48-.98,2.59-.98,.69,0,1.3,.15,1.83,.45,.53,.3,.94,.73,1.22,1.3,.28,.56,.43,1.22,.43,1.98Zm-4.99,0c0,.72,.12,1.25,.35,1.62s.62,.55,1.15,.55,.9-.18,1.13-.54c.23-.36,.34-.9,.34-1.62s-.12-1.25-.35-1.61c-.23-.36-.61-.54-1.14-.54s-.9,.18-1.14,.53c-.23,.36-.35,.89-.35,1.61Z"/><path d="M109.56,67.92h-1.97v-10.04h1.97v10.04Z"/></g><g><path d="M70.81,118.07h1.2l2.55,7.53h-.91l-.74-2.17h-3.11l-.73,2.17h-.86l2.59-7.53Zm-.75,4.64h2.61l-1.31-3.88-1.31,3.88Z"/><path d="M78.68,118.07h.92v6.79h3.45v.75h-4.36v-7.53Z"/><path d="M84.25,118.37c0-.32,.26-.58,.58-.58s.58,.26,.58,.58-.26,.58-.58,.58-.58-.26-.58-.58Zm.16,1.73h.87v5.51h-.87v-5.51Z"/><path d="M87.36,120.83h-.79v-.74h.79v-.9c0-1.12,.55-1.77,1.64-1.77,.28,0,.43,.03,.65,.11v.74c-.16-.06-.38-.12-.62-.12-.57,0-.8,.39-.8,.95v.99h1.35v.74h-1.35v4.77h-.87v-4.77Z"/><path d="M90.43,122.91v-.08c0-1.66,1.06-2.82,2.58-2.82,1.28,0,2.48,.77,2.48,2.74v.28h-4.15c.04,1.25,.64,1.95,1.77,1.95,.85,0,1.35-.32,1.46-.96h.87c-.19,1.11-1.11,1.69-2.35,1.69-1.56,0-2.67-1.1-2.67-2.79Zm4.16-.59c-.08-1.14-.67-1.59-1.58-1.59s-1.5,.61-1.64,1.59h3.22Z"/><path d="M97.15,118.07h2.14c1.44,0,2.64,.63,2.64,2.2v.04c0,1.6-1.2,2.22-2.64,2.22h-1.22v3.07h-.92v-7.53Zm2.2,3.74c1.07,0,1.65-.53,1.65-1.5v-.04c0-1.07-.63-1.46-1.65-1.46h-1.29v3h1.29Z"/><path d="M103.33,117.46h.89v8.14h-.89v-8.14Z"/><path d="M106.05,123.58v-3.49h.87v3.45c0,.97,.41,1.4,1.28,1.4,.78,0,1.52-.51,1.52-1.51v-3.34h.87v5.51h-.87v-.87c-.25,.52-.86,.97-1.75,.97-1.09,0-1.92-.6-1.92-2.12Z"/><path d="M112.07,123.91h.85c.06,.65,.41,1.06,1.3,1.06,.83,0,1.2-.28,1.2-.87s-.43-.77-1.29-.93c-1.43-.26-1.92-.66-1.92-1.62,0-1.02,1-1.55,1.86-1.55,.99,0,1.84,.4,1.99,1.59h-.84c-.13-.6-.46-.86-1.16-.86-.63,0-1.04,.32-1.04,.79s.27,.7,1.29,.87c1.14,.21,1.94,.46,1.94,1.63,0,1-.68,1.67-2.02,1.67s-2.11-.66-2.16-1.79Z"/><path d="M117.25,120.32c0-1.3,1.03-2.34,2.34-2.34s2.34,1.03,2.34,2.33-1.03,2.33-2.34,2.33-2.34-1-2.34-2.32Zm4.26-.01c0-1.15-.8-1.95-1.92-1.95s-1.92,.81-1.92,1.96,.84,1.94,1.92,1.94,1.92-.8,1.92-1.95Zm-2.72-1.18h.81c.54,0,.88,.22,.88,.7h0c0,.36-.2,.55-.47,.63l.61,.98h-.53l-.56-.89h-.24v.89h-.51v-2.31Zm.8,1.06c.26,0,.4-.12,.4-.34h0c0-.25-.15-.34-.4-.34h-.29v.67h.29Z"/><path d="M126.08,118.07h.92v7.53h-.92v-7.53Z"/><path d="M129.03,120.1h.87v.87c.25-.52,.86-.97,1.77-.97,1.14,0,1.94,.62,1.94,2.22v3.38h-.87v-3.45c0-.97-.41-1.4-1.3-1.4-.81,0-1.54,.52-1.54,1.51v3.34h-.87v-5.51Z"/><path d="M135.56,124.23v-3.39h-.79v-.74h.79v-1.25h.87v1.25h1.29v.74h-1.29v3.31c0,.54,.24,.8,.68,.8,.27,0,.49-.04,.67-.12v.74c-.18,.06-.39,.12-.75,.12-1,0-1.49-.59-1.49-1.45Z"/><path d="M138.69,122.91v-.08c0-1.66,1.06-2.82,2.58-2.82,1.28,0,2.48,.77,2.48,2.74v.28h-4.15c.04,1.25,.64,1.95,1.77,1.95,.85,0,1.35-.32,1.46-.96h.87c-.19,1.11-1.11,1.69-2.35,1.69-1.56,0-2.67-1.1-2.67-2.79Zm4.16-.59c-.08-1.14-.67-1.59-1.58-1.59s-1.5,.61-1.64,1.59h3.22Z"/><path d="M145.27,120.1h.87v.99c.35-.62,.82-1.05,1.81-1.08v.82c-1.11,.05-1.81,.4-1.81,1.76v3.02h-.87v-5.51Z"/><path d="M149.29,120.1h.87v.87c.25-.52,.86-.97,1.77-.97,1.14,0,1.94,.62,1.94,2.22v3.38h-.87v-3.45c0-.97-.41-1.4-1.3-1.4-.81,0-1.54,.52-1.54,1.51v3.34h-.87v-5.51Z"/><path d="M155.31,124.08c0-1.28,1.35-1.71,2.76-1.71h.79v-.4c0-.87-.34-1.24-1.18-1.24-.76,0-1.18,.32-1.27,.99h-.87c.12-1.25,1.12-1.72,2.18-1.72s2.01,.43,2.01,1.97v3.64h-.87v-.7c-.41,.52-.91,.79-1.72,.79-1.02,0-1.83-.5-1.83-1.62Zm3.55-.4v-.68h-.76c-1.11,0-1.92,.27-1.92,1.08,0,.57,.27,.93,1.04,.93,.93,0,1.63-.47,1.63-1.33Z"/><path d="M161.7,124.23v-3.39h-.79v-.74h.79v-1.25h.87v1.25h1.29v.74h-1.29v3.31c0,.54,.24,.8,.68,.8,.27,0,.49-.04,.67-.12v.74c-.18,.06-.39,.12-.75,.12-1,0-1.49-.59-1.49-1.45Z"/><path d="M165.15,118.37c0-.32,.26-.58,.58-.58s.58,.26,.58,.58-.26,.58-.58,.58-.58-.26-.58-.58Zm.16,1.73h.87v5.51h-.87v-5.51Z"/><path d="M167.67,122.9v-.08c0-1.65,1.15-2.81,2.71-2.81s2.71,1.15,2.71,2.8v.08c0,1.66-1.15,2.81-2.72,2.81s-2.7-1.19-2.7-2.8Zm4.51,0v-.07c0-1.27-.71-2.1-1.8-2.1s-1.8,.82-1.8,2.09v.08c0,1.25,.69,2.08,1.8,2.08s1.8-.83,1.8-2.08Z"/><path d="M174.61,120.1h.87v.87c.25-.52,.86-.97,1.77-.97,1.14,0,1.94,.62,1.94,2.22v3.38h-.87v-3.45c0-.97-.41-1.4-1.3-1.4-.81,0-1.54,.52-1.54,1.51v3.34h-.87v-5.51Z"/><path d="M180.63,124.08c0-1.28,1.35-1.71,2.76-1.71h.79v-.4c0-.87-.34-1.24-1.18-1.24-.76,0-1.18,.32-1.27,.99h-.87c.12-1.25,1.12-1.72,2.18-1.72s2.01,.43,2.01,1.97v3.64h-.87v-.7c-.41,.52-.91,.79-1.72,.79-1.02,0-1.83-.5-1.83-1.62Zm3.55-.4v-.68h-.76c-1.11,0-1.92,.27-1.92,1.08,0,.57,.27,.93,1.04,.93,.93,0,1.63-.47,1.63-1.33Z"/><path d="M186.89,117.46h.89v8.14h-.89v-8.14Z"/><path d="M191.98,123.31h.88c.12,.9,.47,1.65,1.99,1.65,.97,0,1.72-.57,1.72-1.42s-.39-1.21-1.82-1.44c-1.58-.24-2.52-.74-2.52-2.08,0-1.16,1-2.04,2.42-2.04,1.51,0,2.44,.74,2.59,2.08h-.82c-.18-.95-.73-1.34-1.77-1.34s-1.57,.52-1.57,1.22,.27,1.12,1.81,1.35c1.68,.26,2.56,.77,2.56,2.19,0,1.27-1.11,2.22-2.6,2.22-2.01,0-2.74-1.11-2.88-2.39Z"/><path d="M198.75,122.91v-.08c0-1.69,1.2-2.82,2.68-2.82,1.15,0,2.22,.53,2.39,1.93h-.86c-.14-.87-.77-1.2-1.53-1.2-1,0-1.77,.8-1.77,2.1v.08c0,1.35,.74,2.07,1.8,2.07,.78,0,1.49-.45,1.58-1.35h.81c-.12,1.19-1.07,2.08-2.4,2.08-1.54,0-2.7-1.08-2.7-2.79Z"/><path d="M205.31,117.46h.87v3.51c.25-.52,.86-.97,1.77-.97,1.14,0,1.94,.62,1.94,2.22v3.38h-.87v-3.45c0-.97-.41-1.4-1.3-1.4-.81,0-1.54,.52-1.54,1.51v3.34h-.87v-8.14Z"/><path d="M211.35,122.9v-.08c0-1.65,1.15-2.81,2.71-2.81s2.71,1.15,2.71,2.8v.08c0,1.66-1.15,2.81-2.72,2.81s-2.7-1.19-2.7-2.8Zm4.51,0v-.07c0-1.27-.71-2.1-1.8-2.1s-1.8,.82-1.8,2.09v.08c0,1.25,.69,2.08,1.8,2.08s1.8-.83,1.8-2.08Z"/><path d="M217.93,122.9v-.08c0-1.65,1.15-2.81,2.71-2.81s2.71,1.15,2.71,2.8v.08c0,1.66-1.15,2.81-2.72,2.81s-2.7-1.19-2.7-2.8Zm4.51,0v-.07c0-1.27-.71-2.1-1.8-2.1s-1.8,.82-1.8,2.09v.08c0,1.25,.69,2.08,1.8,2.08s1.8-.83,1.8-2.08Z"/><path d="M224.88,117.46h.89v8.14h-.89v-8.14Z"/></g></svg>