<svg id="prefix__prefix__a" xmlns="http://www.w3.org/2000/svg" viewBox="0 0 226.77 125.7"><defs><style>.prefix__prefix__b{fill:#009dc7}</style></defs><path d="M77.19 92.27h1.13l2.39 7.06h-.85l-.69-2.03h-2.91l-.68 2.03h-.81l2.43-7.06zm-.7 4.34h2.45l-1.23-3.63-1.22 3.63zm8.07-4.34h.86v6.36h3.23v.7h-4.09v-7.06zm5.29.28c0-.3.25-.54.54-.54s.54.25.54.54-.25.54-.54.54-.54-.25-.54-.54zm.15 1.62h.82v5.16H90v-5.16zm2.83.69h-.74v-.69h.74v-.84c0-1.05.51-1.66 1.54-1.66.27 0 .4.03.61.1v.69c-.15-.06-.35-.11-.58-.11-.53 0-.75.36-.75.89v.93h1.26v.69h-1.26v4.47h-.82v-4.47zm2.93 1.94v-.08c0-1.56 1-2.65 2.42-2.65 1.19 0 2.32.72 2.32 2.57v.27h-3.89c.04 1.18.6 1.83 1.66 1.83.8 0 1.26-.3 1.37-.9h.82c-.18 1.04-1.04 1.58-2.2 1.58-1.46 0-2.5-1.03-2.5-2.62zm3.9-.55c-.08-1.07-.63-1.49-1.48-1.49s-1.4.57-1.54 1.49h3.02zm2.47-3.98h2.01c1.35 0 2.47.59 2.47 2.06v.04c0 1.5-1.13 2.08-2.47 2.08h-1.15v2.87h-.86v-7.06zm2.06 3.5c1.01 0 1.55-.49 1.55-1.4v-.04c0-1-.59-1.37-1.55-1.37h-1.2v2.82h1.2zm3.8-4.07h.83v7.63h-.83V91.7zm2.61 5.74v-3.27h.82v3.23c0 .91.39 1.31 1.19 1.31.73 0 1.42-.48 1.42-1.41v-3.13h.82v5.16h-.82v-.82c-.24.48-.81.91-1.64.91-1.03 0-1.8-.56-1.8-1.98zm5.7.3h.8c.06.61.39 1 1.22 1 .78 0 1.13-.27 1.13-.82s-.4-.72-1.2-.87c-1.34-.25-1.8-.62-1.8-1.52 0-.96.94-1.45 1.75-1.45.93 0 1.73.38 1.87 1.49h-.79c-.12-.56-.44-.81-1.09-.81-.59 0-.98.3-.98.74s.26.65 1.2.82c1.07.2 1.82.43 1.82 1.53 0 .94-.64 1.57-1.9 1.57s-1.97-.62-2.03-1.68zm4.91-3.36c0-1.21.97-2.19 2.19-2.19s2.19.97 2.19 2.18-.97 2.18-2.19 2.18-2.19-.94-2.19-2.17zm3.99 0c0-1.08-.75-1.83-1.8-1.83s-1.8.76-1.8 1.84.79 1.82 1.8 1.82 1.8-.75 1.8-1.83zm-2.55-1.11h.76c.5 0 .83.21.83.65 0 .34-.19.51-.45.59l.57.92h-.49l-.52-.84h-.23v.84h-.47v-2.16zm.75 1c.25 0 .38-.11.38-.32 0-.24-.14-.32-.38-.32h-.28v.63h.28zm6.09-2h.86v7.06h-.86v-7.06zm2.83 1.9h.82v.82c.24-.48.81-.91 1.66-.91 1.07 0 1.82.58 1.82 2.08v3.17h-.82V96.1c0-.91-.39-1.31-1.22-1.31-.76 0-1.44.48-1.44 1.41v3.13h-.82v-5.16zm6.18 3.87v-3.18h-.74v-.69h.74v-1.18h.82v1.18h1.2v.69h-1.2v3.1c0 .5.23.75.64.75.26 0 .45-.04.63-.11v.69c-.17.06-.36.11-.7.11-.94 0-1.39-.55-1.39-1.36zm3.01-1.24v-.08c0-1.56 1-2.65 2.42-2.65 1.19 0 2.32.72 2.32 2.57v.27h-3.89c.04 1.18.6 1.83 1.66 1.83.8 0 1.26-.3 1.37-.9h.82c-.18 1.04-1.04 1.58-2.2 1.58-1.46 0-2.5-1.03-2.5-2.62zm3.9-.55c-.08-1.07-.63-1.49-1.48-1.49s-1.4.57-1.54 1.49h3.02zm2.32-2.08h.82v.93c.33-.58.77-.99 1.7-1.02v.77c-1.04.05-1.7.38-1.7 1.65v2.83h-.82v-5.16zm3.84 0h.82v.82c.24-.48.81-.91 1.66-.91 1.07 0 1.82.58 1.82 2.08v3.17h-.82V96.1c0-.91-.38-1.31-1.21-1.31-.76 0-1.44.48-1.44 1.41v3.13h-.82v-5.16zm5.7 3.73c0-1.19 1.26-1.6 2.59-1.6h.74v-.38c0-.82-.32-1.17-1.11-1.17-.71 0-1.11.3-1.18.93h-.82c.11-1.18 1.05-1.61 2.04-1.61s1.89.41 1.89 1.85v3.41h-.82v-.65c-.39.48-.85.74-1.61.74-.96 0-1.72-.46-1.72-1.52zm3.33-.38v-.64h-.71c-1.04 0-1.8.26-1.8 1.02 0 .53.26.87.98.87.87 0 1.53-.45 1.53-1.24zm2.72.52v-3.18h-.74v-.69h.74v-1.18h.82v1.18h1.2v.69h-1.2v3.1c0 .5.23.75.64.75.26 0 .45-.04.63-.11v.69c-.17.06-.36.11-.7.11-.94 0-1.39-.55-1.39-1.36zm3.3-5.49c0-.3.25-.54.54-.54s.54.25.54.54-.25.54-.54.54-.54-.25-.54-.54zm.15 1.62h.82v5.16h-.82v-5.16zm2.28 2.63v-.08c0-1.55 1.08-2.64 2.54-2.64s2.54 1.08 2.54 2.63v.08c0 1.56-1.08 2.64-2.55 2.64s-2.53-1.12-2.53-2.63zm4.23 0v-.07c0-1.19-.66-1.97-1.69-1.97s-1.69.77-1.69 1.96v.08c0 1.18.64 1.95 1.69 1.95s1.69-.78 1.69-1.95zm2.32-2.63h.82v.82c.24-.48.81-.91 1.66-.91 1.07 0 1.82.58 1.82 2.08v3.17h-.82V96.1c0-.91-.39-1.31-1.22-1.31-.76 0-1.44.48-1.44 1.41v3.13h-.82v-5.16zm5.7 3.73c0-1.19 1.26-1.6 2.59-1.6h.74v-.38c0-.82-.32-1.17-1.11-1.17-.71 0-1.11.3-1.18.93h-.82c.11-1.18 1.05-1.61 2.04-1.61s1.89.41 1.89 1.85v3.41h-.82v-.65c-.39.48-.85.74-1.61.74-.96 0-1.72-.46-1.72-1.52zm3.33-.38v-.64h-.71c-1.04 0-1.8.26-1.8 1.02 0 .53.26.87.98.87.87 0 1.53-.45 1.53-1.24zm2.61-5.82h.83v7.63h-.83V91.7zm4.77 5.48h.83c.11.84.44 1.55 1.87 1.55.91 0 1.61-.53 1.61-1.33s-.37-1.13-1.71-1.35c-1.48-.23-2.36-.69-2.36-1.94 0-1.09.94-1.92 2.27-1.92 1.41 0 2.29.69 2.43 1.95h-.77c-.17-.89-.68-1.25-1.66-1.25s-1.47.48-1.47 1.15.26 1.05 1.7 1.26c1.57.25 2.4.72 2.4 2.05 0 1.18-1.04 2.08-2.44 2.08-1.89 0-2.57-1.04-2.7-2.24zm6.41-.38v-.08c0-1.58 1.13-2.65 2.51-2.65 1.08 0 2.08.5 2.24 1.81h-.81c-.13-.82-.72-1.13-1.43-1.13-.94 0-1.66.75-1.66 1.97v.08c0 1.26.69 1.94 1.69 1.94.73 0 1.39-.43 1.48-1.26h.76c-.11 1.12-1.01 1.94-2.25 1.94-1.44 0-2.53-1.02-2.53-2.62zm6.21-5.1h.82v3.29c.24-.48.81-.91 1.66-.91 1.07 0 1.82.58 1.82 2.08v3.17h-.82V96.1c0-.91-.39-1.31-1.22-1.31-.76 0-1.44.48-1.44 1.41v3.13h-.82V91.7zm5.72 5.1v-.08c0-1.55 1.08-2.64 2.54-2.64s2.54 1.08 2.54 2.63v.08c0 1.56-1.08 2.64-2.55 2.64s-2.53-1.12-2.53-2.63zm4.23 0v-.07c0-1.19-.66-1.97-1.69-1.97s-1.69.77-1.69 1.96v.08c0 1.18.64 1.95 1.69 1.95s1.69-.78 1.69-1.95zm2 0v-.08c0-1.55 1.08-2.64 2.54-2.64s2.54 1.08 2.54 2.63v.08c0 1.56-1.08 2.64-2.55 2.64s-2.53-1.12-2.53-2.63zm4.23 0v-.07c0-1.19-.66-1.97-1.69-1.97s-1.69.77-1.69 1.96v.08c0 1.18.64 1.95 1.69 1.95s1.69-.78 1.69-1.95zm2.35-5.1h.83v7.63h-.83V91.7zM86.75 70.03h2.04l-1-2.88h-.03l-1.01 2.88zm.41-4.03h1.25l2.58 6.69h-1.26l-.63-1.77h-2.67l-.63 1.77h-1.21L87.16 66zm14.33 4.03h2.04l-1-2.88h-.03l-1.01 2.88zm.41-4.03h1.25l2.58 6.69h-1.26l-.63-1.77h-2.67l-.63 1.77h-1.21L101.9 66zm-22.33 3.05h1.92c.38 0 .66-.09.85-.27.19-.18.29-.44.29-.8 0-.21-.03-.38-.09-.52a.724.724 0 00-.26-.31c-.11-.08-.23-.13-.38-.15s-.29-.04-.44-.04h-1.9v2.09zM78.4 66h3.2c.74 0 1.29.16 1.66.48.37.32.55.76.55 1.33 0 .32-.05.58-.14.79-.09.21-.2.38-.33.51-.12.13-.25.22-.37.28-.12.06-.21.09-.27.11v.02c.1.01.21.05.32.09.12.05.22.13.32.24.1.11.18.25.25.43.07.17.1.39.1.66 0 .39.03.75.09 1.07.06.32.15.55.28.69H82.8a.97.97 0 01-.15-.48c-.02-.17-.02-.34-.02-.51 0-.31-.02-.57-.06-.79-.04-.22-.11-.41-.21-.55a.87.87 0 00-.41-.32c-.17-.07-.39-.1-.66-.1h-1.73v2.76h-1.17v-6.69zm13.8 4.46c0 .26.04.47.13.66.09.18.21.33.37.44.16.12.34.2.54.25s.42.08.66.08c.26 0 .47-.03.66-.09.18-.06.33-.14.44-.23.11-.09.19-.2.24-.32.05-.12.08-.24.08-.37 0-.26-.06-.44-.17-.57-.12-.12-.24-.21-.38-.26-.24-.09-.51-.17-.83-.25-.32-.08-.7-.18-1.17-.31-.29-.07-.53-.17-.72-.29-.19-.12-.34-.26-.45-.41-.11-.15-.19-.31-.24-.48-.05-.17-.07-.34-.07-.52 0-.34.07-.63.21-.88.14-.25.33-.45.56-.61.23-.16.49-.28.79-.36.29-.08.59-.12.89-.12.35 0 .68.05.99.14.31.09.58.23.81.41.23.18.42.4.56.67.14.26.21.57.21.92h-1.17c-.03-.43-.18-.74-.44-.91-.26-.18-.6-.27-1-.27a1.642 1.642 0 00-.81.18c-.12.07-.22.15-.3.27-.08.11-.12.25-.12.42 0 .24.07.42.22.56.15.14.34.24.58.3.02 0 .12.03.3.08.17.05.36.1.58.15.21.06.42.11.62.16s.35.09.44.12c.22.07.41.16.57.28.16.12.3.26.41.41.11.15.19.32.24.49.05.18.08.35.08.53 0 .38-.08.69-.23.96-.15.27-.35.48-.6.65-.25.17-.53.29-.85.37-.32.08-.64.12-.97.12-.38 0-.74-.05-1.08-.14-.34-.09-.63-.24-.88-.43s-.45-.44-.6-.75-.23-.66-.23-1.07h1.17zM106.37 66h1.17v5.68h3.4v1.02h-4.57V66zm7.98 0h1.17v3.05L118.5 66h1.45l-2.67 2.67 2.86 4.03h-1.47l-2.19-3.2-.96.94v2.26h-1.17V66zm6.21 0h1.17v2.66h3.05V66h1.17v6.7h-1.17v-3.02h-3.05v3.02h-1.17V66zm8.17 4.03h2.04l-1-2.88h-.03l-1.01 2.88zm.41-4.03h1.25l2.58 6.69h-1.26l-.63-1.77h-2.67l-.63 1.77h-1.21l2.57-6.69zm4.28 0h1.17v6.69h-1.17zm2.4 0h1.65l1.84 5.24h.02l1.8-5.24h1.63v6.7h-1.11v-5.17h-.02l-1.86 5.17h-.96l-1.86-5.17h-.02v5.17h-1.11V66zm9.54 4.03h2.04l-1-2.88h-.03l-1.01 2.88zm.41-4.03h1.25l2.58 6.69h-1.26l-.63-1.77h-2.67l-.63 1.77h-1.21l2.57-6.69zm4.44 0h1.17v2.66h3.05V66h1.17v6.7h-1.17v-3.02h-3.05v3.02h-1.17V66z"/><path d="M158.15 74.81H75.84c-1.03 0-1.86-.73-1.86-1.63v-7.66c0-.9.83-1.63 1.86-1.63h82.31c1.03 0 1.86.73 1.86 1.63v7.66c0 .9-.84 1.63-1.86 1.63zM75.84 64.67c-.6 0-1.08.38-1.08.85v7.66c0 .47.48.85 1.08.85h82.31c.6 0 1.08-.38 1.08-.85v-7.66c0-.47-.49-.85-1.08-.85H75.84zM1.81 16.92c.05 1.81.05 3.52.13 5.22.13 2.72.34 5.43.66 8.13.43 3.68 1.07 7.31 1.99 10.9 1.28 5.05 3.07 9.9 5.65 14.44 2.41 4.23 5.4 7.99 9.24 11.03 3.93 3.12 8.32 5.27 13.27 6.21.73.14 1.46.29 2.21.14.68-.13 1.35-.26 2.03-.41 5.73-1.3 10.69-4.02 14.87-8.16 2.78-2.76 5.01-5.92 6.84-9.37 3.09-5.82 4.96-12.05 6.21-18.49.6-3.13 1.03-6.29 1.34-9.47.25-2.64.41-5.28.48-7.93.08-2.74.06-5.48-.09-8.22-.03-.52-.02-.53-.53-.62-2.89-.54-5.76-1.14-8.63-1.77-5.06-1.11-10.1-2.31-15.07-3.82-2.62-.79-5.23-1.63-7.7-2.82-.22-.1-.37-.06-.55.04-1.03.57-2.11 1.04-3.21 1.48-3.09 1.22-6.28 2.14-9.49 2.95-6.28 1.57-12.65 2.73-19.05 3.69-.44.07-.45.06-.47.53-.13 2.14-.09 4.28-.13 6.32m66.79.53c-.04 2.92-.16 5.84-.4 8.75-.28 3.42-.71 6.81-1.33 10.19-1.12 6.03-2.79 11.89-5.46 17.44-2.07 4.32-4.69 8.27-8.1 11.65-4.76 4.72-10.44 7.7-17.02 8.97-.52.1-1.04.19-1.55.28-.57.1-1.12-.03-1.67-.11-3.59-.54-6.94-1.78-10.1-3.55-4.9-2.74-8.86-6.52-12.1-11.08-2.79-3.92-4.85-8.2-6.42-12.73-1.37-3.93-2.34-7.96-3.02-12.06C.68 30.78.27 26.34.1 21.88c-.16-4.08-.12-8.16.04-12.24.03-.7.28-.96.98-1.06C8.8 7.46 16.43 6.07 23.92 4c2.89-.8 5.73-1.71 8.44-3.01.52-.25 1.03-.54 1.54-.82.34-.19.68-.23 1.03-.04 2.09 1.12 4.33 1.85 6.57 2.57 4.58 1.47 9.24 2.62 13.92 3.69 4.01.92 8.04 1.75 12.08 2.52.64.12.85.38.89 1.03.17 2.5.22 5 .2 7.51"/><path class="prefix__prefix__b" d="M42.86 23.73c-.93-1.25-1.64-2.22-2.47-3.55-2.8-4.47-4.76-9.28-5.96-14.41-.02-.1-.01-.22-.1-.3 0 0-.04 0-.08-.02-.16.62-.31 1.25-.48 1.87-1.63 6.12-4.35 11.71-8.28 16.7-1.02 1.3-2.17 2.48-3.36 3.63-3.27 3.14-6.16 6.6-8.47 10.52-1.52 2.57-2.74 5.28-3.46 8.18-.19.75-.32 1.52-.42 2.34-.22-.14-.3-.35-.41-.53-.67-1.15-1.13-2.39-1.51-3.66-.75-2.49-1.23-5.03-1.64-7.6-.41-2.6-.71-5.21-.96-7.82-.2-2.15-.36-4.3-.49-6.45-.21-3.44-.38-6.88-.43-10.33v-.27c-.02-.24.1-.3.33-.3 2.46 0 4.87-.45 7.27-.93 7.38-1.47 14.63-3.47 21.86-5.54.35-.1.66-.1 1 0 6.18 1.79 12.39 3.47 18.67 4.87 2.62.58 5.25 1.11 7.91 1.45.83.1 1.66.18 2.5.16.38 0 .38 0 .38.39 0 1.87-.09 3.74-.17 5.6-.04.94-.1 1.88-.14 2.83-.14 3.15-.39 6.3-.7 9.44-.35 3.5-.79 6.99-1.49 10.44-.45 2.19-.97 4.35-1.85 6.41-.27.63-.57 1.25-1.05 1.9-.35-2.66-.96-5.1-2.07-7.44.02-.11.04-.21.07-.32.79-2.45 1.07-4.82 1.24-7.37.12-1.72.09-3.59 0-5.32-.1-1.85-.24-3.69-.49-5.52-.08-.6-.08-.62-.66-.58-1.88.1-2.98.07-5.56.22-1.93.19-3.64.34-5.42.69l-3.11.62z"/><path class="prefix__prefix__b" d="M42.19 25.2c.93-.19 1.87-.4 2.81-.57 1.74-.32 3.5-.55 5.27-.72 1.84-.18 3.68-.26 5.53-.35.57-.03.57-.01.65.53.24 1.67.38 3.35.48 5.04.09 1.58.04 3.14-.08 4.71-.17 2.33-.56 4.63-1.34 6.86-.03.09-.59 1.55-.89 2.17-1.08 2.25-2.58 4.21-4.73 5.71-1.8 1.25-3.83 2-6.03 2.37-2.11.35-4.24.35-6.37.14-2-.2-3.95-.61-5.9-1.06 0-.11 0-.23.01-.35.21-1.14.48-2.27.87-3.37 1.02-2.91 2.44-5.63 4.24-8.2.13-.18.24-.37.36-.56-1.38.79-2.92 2.07-3.86 3.08-1.65 1.76-2.43 3.17-3.55 4.97-.49.94-.98 2.04-1.34 3.03-.46-.79-.56-1.43-.84-2.28-.74-2.29-.98-4.41-.8-6.79.28-3.48 1.72-6.49 4.4-8.95 1.79-1.65 3.91-2.85 6.2-3.8 1.49-.62 3.04-1.12 4.62-1.51.11-.03.2-.07.3-.1"/><path class="prefix__prefix__b" d="M29.15 50.94c.33-1.08.66-2.16 1.12-3.18 1.01-2.31 2.33-4.38 3.83-6.31.42-.55 1.31-1.78 1.75-2.32.68-.84.71-.82 1.21-1.31-.11.2-.4.91-.52 1.11-1.62 2.81-2.92 5.8-3.84 8.99-.35 1.21-.59 2.44-.79 3.69-.02.12 0 .22-.03.37-.13.62-.13 1.27-.14 1.89-.05 2.41.37 4.69 1.57 6.73.9 1.53 2.1 2.69 3.5 3.6 1.62 1.06 3.38 1.7 5.19 2.17.11.03.22.05.33.09.05.01.09.04.14.06-.36.35-.55.42-1.58 1.06-1.86.9-2.51 1.1-4.62 1.81-.21.1-.39.16-.62-.03-2.94-2.5-5.21-5.55-6.39-9.54-.81-2.74-.85-5.52-.23-8.31l.12-.58"/><g><path d="M76.54 6.17c0-.5 0-.97-.02-1.43-.01-.45-.03-.87-.05-1.25 0-.08-.01-.16-.02-.23v-.19c-.38 0-.65-.01-.83-.01h-.4c-.3 0-.57.01-.81.04-.24.03-.43.05-.56.06 0-.05-.02-.1-.02-.15 0-.05-.01-.1-.01-.16v-.17c0-.12.02-.23.05-.34.03-.11.11-.17.22-.17.76.02 1.47.03 2.14.03h.87c.3 0 .58 0 .85.01h1.32c.29 0 .56-.02.79-.05.23-.03.4-.05.5-.07 0 .06.02.13.02.19 0 .05.01.12.02.19v.21c0 .26-.08.39-.23.39-.22 0-.46-.01-.72-.01h-.78c-.29 0-.6 0-.93-.01 0 .48-.02.95-.03 1.4-.01.45-.02.91-.02 1.37 0 .78 0 1.56.02 2.33s.08 1.55.18 2.35c-.15.02-.29.05-.41.08-.13.03-.25.04-.38.04-.2 0-.38-.05-.54-.16-.15-.11-.23-.32-.23-.64V6.15zm4.8 4.36c.05-.08.09-.25.13-.51.03-.22.06-.55.09-.98.03-.44.05-1.03.05-1.79V4.12c0-.38-.02-.75-.03-1.11-.02-.36-.05-.68-.08-.95-.03-.27-.08-.44-.14-.5l.03-.05c.37 0 .67.04.87.11.21.07.36.18.46.34.1.15.16.35.19.6.03.24.04.54.04.9 0 .32-.01.65-.03.99-.02.34-.06.67-.11.99h.05c.07-.14.18-.28.32-.4.14-.13.31-.23.5-.32a2.923 2.923 0 011.26-.28c.39 0 .69.05.92.14.23.09.4.22.52.37s.19.33.23.53c.04.2.05.4.05.6 0 .44 0 .88-.02 1.3-.02.43-.02.9-.02 1.42 0 .14 0 .28.01.42 0 .15.03.28.06.4s.09.22.18.3c.08.08.2.12.34.12.11 0 .21-.03.31-.08a.55.55 0 00.14-.09l.05.04c-.06.14-.15.26-.27.36-.1.1-.24.18-.41.25-.17.07-.38.11-.63.11-.13 0-.27-.02-.39-.05a.97.97 0 01-.34-.16.886.886 0 01-.24-.3.998.998 0 01-.1-.45V8.24c.02-.23.02-.48.02-.73v-.84c0-.2 0-.39-.02-.57-.01-.19-.05-.35-.12-.49a.783.783 0 00-.31-.34c-.14-.09-.34-.13-.59-.13-.16 0-.32.04-.49.11-.17.07-.32.18-.46.32s-.25.32-.34.53c-.09.21-.13.46-.13.73v.77c0 .24.01.48.02.72 0 .24.01.48.02.72v.79c0 .32-.07.54-.22.64-.15.11-.32.16-.53.16-.13 0-.26-.01-.41-.03-.15-.02-.29-.05-.43-.08zm6.62-2.81c0-.41.07-.82.2-1.21.13-.4.32-.75.56-1.05s.53-.56.88-.75c.35-.19.74-.29 1.17-.29.39 0 .72.05 1 .16.28.1.5.23.68.39.18.16.31.34.38.54.08.21.12.41.12.6 0 .3-.07.55-.21.75-.14.2-.32.37-.54.5-.22.13-.46.22-.73.28-.27.06-.54.08-.8.08-.17 0-.34-.02-.5-.05-.16-.04-.3-.07-.42-.11-.14-.05-.27-.1-.39-.17l-.05.02c0 .36.04.68.12.97.08.29.2.54.36.76.16.21.35.38.58.49.23.11.5.17.81.17.25 0 .48-.03.7-.1.22-.07.42-.14.59-.23.21-.1.4-.21.57-.35l.06.06c-.1.28-.25.53-.45.76-.18.19-.43.36-.73.51-.31.15-.71.23-1.21.23-.39 0-.76-.07-1.1-.22-.34-.15-.63-.35-.88-.62a2.92 2.92 0 01-.58-.95c-.14-.37-.21-.77-.21-1.2zm1.36-.87s.03.05.1.08.15.06.26.1c.11.03.23.06.36.08.13.02.26.03.38.03.13 0 .27-.02.4-.06.13-.04.25-.1.36-.18.11-.08.2-.19.26-.32.07-.13.1-.29.1-.47 0-.14-.02-.28-.05-.41-.03-.13-.09-.25-.16-.36a.83.83 0 00-.72-.36c-.21 0-.4.08-.56.23-.16.15-.29.34-.4.55-.11.21-.19.42-.25.63-.05.21-.08.37-.08.48zM79.12 30.7c-.24-.74-.53-1.66-.88-2.75s-.71-2.21-1.09-3.34c-.38-1.14-.76-2.23-1.15-3.27-.39-1.04-.73-1.89-1.03-2.53-.18-.36-.34-.67-.48-.94-.14-.26-.26-.48-.35-.65-.11-.19-.21-.36-.31-.5.13-.05.29-.1.47-.15.18-.03.4-.07.67-.1.27-.04.61-.06 1.02-.06s.81.13 1.2.39c.39.26.66.64.79 1.15.17.71.42 1.59.75 2.63.33 1.04.7 2.15 1.09 3.31.4 1.16.81 2.32 1.23 3.47.42 1.15.82 2.18 1.18 3.07h.13c.23-.66.49-1.38.76-2.15.28-.77.53-1.52.75-2.24.22-.72.4-1.38.56-1.98.15-.6.23-1.06.23-1.39 0-.24-.03-.5-.08-.8-.05-.29-.13-.6-.21-.93-.09-.32-.19-.65-.29-.98-.11-.33-.22-.66-.34-.97-.26-.74-.56-1.5-.89-2.27.06-.05.16-.1.3-.15.13-.03.31-.07.53-.1.22-.04.52-.06.9-.06.41 0 .82.13 1.22.39s.66.64.77 1.15c.15.71.36 1.59.65 2.63.29 1.04.61 2.15.95 3.31.35 1.16.72 2.32 1.1 3.47.39 1.15.75 2.18 1.08 3.07h.12c.72-2.16 1.33-4 1.81-5.53.48-1.53.88-2.81 1.21-3.85.32-1.04.59-1.86.79-2.48.2-.61.4-1.08.6-1.39.19-.32.4-.52.63-.62.23-.1.51-.14.86-.14.18 0 .34.02.47.05.14.03.25.06.34.09.09.05.18.09.25.13v.12c-.19.14-.37.35-.57.64-.17.24-.35.55-.56.94-.2.39-.41.88-.62 1.48l-4.11 11.37c-.09.27-.18.54-.27.82-.08.28-.16.52-.23.74-.06.27-.12.52-.19.76-.56-.05-1.08-.18-1.56-.4a4.77 4.77 0 01-1.22-.84c-.4-.37-.7-.9-.88-1.6-.21-.71-.44-1.54-.71-2.49-.26-.95-.55-1.97-.87-3.08h-.12c0 .11-.02.22-.05.32-.06.22-.12.46-.19.69l-1.83 5.07c-.09.27-.18.54-.27.82-.09.28-.16.52-.23.74-.06.27-.12.52-.19.76-.54-.03-1.05-.15-1.53-.36-.41-.18-.81-.46-1.21-.84-.4-.39-.71-.93-.94-1.64zm16.87-3.12c0-.83.13-1.63.39-2.42s.63-1.49 1.12-2.11c.48-.61 1.07-1.11 1.76-1.49s1.47-.57 2.34-.57c.78 0 1.44.1 2 .31.55.21 1 .47 1.36.78.35.31.61.67.77 1.09.16.41.24.82.24 1.21 0 .6-.14 1.1-.42 1.5-.28.4-.64.73-1.08.99-.44.26-.93.45-1.47.56-.54.11-1.08.17-1.6.17-.35 0-.68-.04-.99-.11-.32-.07-.59-.15-.83-.23-.29-.09-.54-.2-.77-.34l-.09.05c0 .72.08 1.37.25 1.95.17.58.4 1.09.72 1.52.31.43.7.76 1.17.98.47.23 1.01.34 1.63.34.49 0 .96-.07 1.4-.2.44-.13.83-.29 1.18-.46.42-.19.8-.42 1.15-.69l.12.13c-.19.56-.49 1.07-.9 1.52-.36.38-.85.72-1.47 1.03-.62.31-1.42.46-2.42.46-.79 0-1.52-.15-2.2-.44-.68-.29-1.26-.7-1.75-1.23s-.87-1.16-1.15-1.9c-.28-.74-.42-1.54-.42-2.4zm2.73-1.74s.07.1.2.17.3.13.52.19c.22.06.45.11.71.15.26.04.51.06.77.06.27 0 .53-.04.79-.12.26-.08.5-.2.71-.36.22-.17.39-.38.53-.64.13-.26.2-.57.2-.94 0-.29-.03-.56-.1-.83a2.14 2.14 0 00-.32-.72 1.74 1.74 0 00-.58-.53c-.24-.13-.52-.2-.85-.2-.42 0-.79.15-1.11.46-.32.31-.59.67-.81 1.09-.22.42-.39.84-.5 1.25-.11.42-.16.74-.16.96zm9.68 5.52c0-.98.02-2.14.06-3.48.04-1.34.06-2.71.06-4.09 0-1.12-.01-2.19-.03-3.21-.02-1.02-.05-1.91-.08-2.67-.03-.56-.07-1-.12-1.33-.05-.33-.1-.6-.14-.8-.06-.22-.12-.4-.16-.52l.07-.1c.39 0 .78.03 1.15.08.37.05.7.14.98.27s.5.3.67.53c.17.23.25.52.25.88 0 1.2-.02 2.42-.05 3.65-.03 1.23-.05 2.48-.05 3.74 0 1.06 0 2.12.02 3.19.02 1.07.04 2.12.07 3.16.02.41.09.77.24 1.09.14.32.42.47.83.47.22 0 .43-.05.62-.16.09-.05.19-.1.28-.17l.09.08c-.12.28-.3.52-.54.73-.2.19-.47.36-.81.51-.34.15-.76.22-1.27.22-.27 0-.53-.03-.78-.09s-.47-.17-.67-.33c-.2-.16-.36-.37-.49-.64s-.19-.6-.19-1zm6.35 0c0-.98.02-2.14.06-3.48.04-1.34.06-2.71.06-4.09 0-1.12-.01-2.19-.03-3.21-.02-1.02-.05-1.91-.08-2.67-.03-.56-.07-1-.12-1.33-.05-.33-.1-.6-.14-.8-.06-.22-.12-.4-.16-.52l.07-.1c.39 0 .78.03 1.15.08.37.05.7.14.98.27s.5.3.67.53c.17.23.25.52.25.88 0 1.2-.02 2.42-.05 3.65-.03 1.23-.05 2.48-.05 3.74 0 1.06 0 2.12.02 3.19.02 1.07.04 2.12.07 3.16.02.41.09.77.24 1.09.14.32.42.47.83.47.22 0 .43-.05.62-.16.09-.05.19-.1.28-.17l.09.08c-.12.28-.3.52-.54.73-.2.19-.47.36-.81.51-.34.15-.76.22-1.27.22-.27 0-.53-.03-.78-.09s-.47-.17-.67-.33c-.2-.16-.36-.37-.49-.64s-.19-.6-.19-1zm6.17-.11c0-.22.07-.46.2-.72.13-.26.26-.48.38-.68h.16c.36.43.81.8 1.33 1.11.42.27.95.52 1.57.75.62.23 1.34.35 2.14.35.59 0 1.08-.07 1.47-.21.39-.14.71-.33.96-.57.25-.24.42-.51.52-.8.1-.3.15-.6.15-.92 0-.62-.21-1.14-.62-1.57a6.17 6.17 0 00-1.57-1.14c-.63-.33-1.31-.66-2.05-.97-.73-.32-1.42-.68-2.05-1.1-.63-.42-1.16-.91-1.58-1.49-.42-.58-.63-1.3-.63-2.16 0-.78.17-1.47.51-2.08.34-.61.79-1.12 1.34-1.53.56-.41 1.19-.72 1.9-.93a7.6 7.6 0 012.17-.32c.32 0 .74.03 1.27.09s1.05.16 1.57.31c.52.14.96.33 1.33.56.37.23.56.51.56.84 0 .3-.09.63-.26.98s-.4.67-.67.94h-.16c-.33-.44-.71-.84-1.12-1.2-.36-.32-.8-.6-1.3-.86-.51-.25-1.07-.38-1.71-.38-.8 0-1.46.25-1.98.76s-.78 1.14-.78 1.9c0 .62.21 1.13.62 1.53.42.4.94.76 1.57 1.06.63.31 1.31.61 2.05.91.73.3 1.41.66 2.05 1.06.63.41 1.16.91 1.58 1.52.42.6.63 1.35.63 2.26 0 .82-.18 1.54-.53 2.16-.35.62-.82 1.15-1.4 1.57-.58.42-1.23.74-1.95.96-.72.22-1.46.32-2.21.32-.5 0-1.07-.05-1.7-.16-.63-.1-1.22-.25-1.78-.44-.55-.19-1.02-.43-1.4-.71-.38-.29-.57-.62-.57-.99zm13.5 5.61c0-.58 0-1.17.01-1.78 0-.61.02-1.28.02-2.01 0-.73.02-1.55.02-2.45 0-.9.01-1.95.01-3.13 0-.55 0-1.12-.02-1.71-.02-.59-.04-1.17-.07-1.72-.03-.55-.08-1.06-.16-1.54-.08-.47-.17-.87-.29-1.19.21-.06.41-.11.6-.15.19-.04.38-.06.57-.06.55 0 1 .13 1.37.38.37.25.55.56.55.92 0 .15-.02.28-.06.4l.13.05c.2-.33.47-.64.82-.93.3-.24.69-.46 1.17-.65.48-.2 1.09-.29 1.81-.29.68 0 1.29.14 1.83.43s1 .67 1.38 1.15c.38.48.67 1.05.86 1.71.2.66.29 1.36.29 2.12 0 1.01-.14 1.95-.43 2.81-.29.86-.72 1.61-1.29 2.24-.57.63-1.3 1.12-2.16 1.48s-1.9.54-3.08.54c-.22 0-.43-.01-.61-.04s-.37-.06-.57-.09c-.02.21-.02.41-.02.6v.55c0 .69.02 1.29.06 1.78.04.49.09.9.15 1.23.06.39.13.72.22.97-.3.05-.59.1-.87.15-.28.05-.54.08-.8.08-.22 0-.42-.03-.6-.08-.17-.05-.32-.15-.45-.28-.12-.13-.22-.32-.29-.56-.07-.24-.11-.54-.11-.91zm2.64-5.27c0 .32.15.52.46.61.3.09.68.14 1.13.14.63 0 1.19-.15 1.67-.46.48-.31.88-.72 1.18-1.23.3-.51.54-1.09.69-1.74a8.172 8.172 0 00.08-3.58c-.11-.54-.27-1.01-.5-1.42a3.54 3.54 0 00-.8-1.01c-.31-.26-.68-.39-1.09-.39-.71 0-1.31.25-1.8.76s-.79 1.21-.9 2.11c-.06.51-.1 1.04-.1 1.59s-.01 1.1-.01 1.66v2.96zm10.54.01c0-.71.02-1.41.06-2.1.04-.69.06-1.37.06-2.03 0-1.2-.03-2.18-.08-2.97-.05-.78-.11-1.41-.17-1.87-.06-.47-.13-.79-.2-.98-.07-.19-.12-.3-.13-.33.21-.06.41-.11.6-.15.19-.04.38-.06.56-.06.56 0 1.01.13 1.38.39.36.26.54.63.54 1.13 0 .09 0 .19-.02.29-.02.1-.04.19-.07.27-.03.09-.05.19-.07.3l.09.02c.16-.38.38-.71.65-1.01.27-.29.57-.55.9-.76.32-.21.67-.37 1.02-.48.36-.11.69-.16 1-.16.46 0 .77.09.93.26.16.17.24.39.24.65s-.02.56-.07.86c-.05.3-.12.58-.22.83l-.12.05a12.3 12.3 0 00-1.03-.47c-.31-.12-.6-.19-.87-.19-.46 0-.84.11-1.15.34-.31.23-.55.54-.73.94-.18.4-.31.88-.38 1.43-.07.56-.11 1.16-.11 1.83 0 1.16.03 2.11.09 2.83.06.72.12 1.28.18 1.68.06.4.12.67.17.82.05.14.09.21.1.21-.29.05-.58.1-.86.15-.28.05-.54.08-.8.08-.22 0-.43-.03-.61-.08s-.34-.15-.47-.28c-.13-.13-.23-.32-.31-.56-.07-.24-.11-.53-.11-.9zm9.16-.09c0-.68.02-1.36.05-2.04a54.322 54.322 0 00-.03-5.25c-.05-.81-.12-1.43-.19-1.86-.07-.42-.17-.77-.29-1.04.21-.06.41-.11.6-.15.19-.04.38-.06.56-.06.54 0 1.01.13 1.41.4.4.27.6.64.6 1.12 0 .63 0 1.27-.02 1.93-.02.65-.03 1.29-.03 1.9 0 .62-.02 1.21-.03 1.77-.02.56-.02 1.06-.02 1.5 0 .27 0 .55.02.84.02.29.06.56.13.8s.19.44.36.6c.17.16.39.24.68.24.22 0 .42-.05.61-.16.09-.05.19-.1.28-.17l.1.08c-.13.28-.32.52-.56.73-.2.19-.47.36-.81.51-.34.15-.76.22-1.27.22-.27 0-.53-.03-.78-.09s-.47-.17-.67-.33c-.2-.16-.36-.35-.49-.59s-.19-.53-.19-.9zm1.31-12.42c-.43 0-.81-.16-1.12-.47s-.47-.68-.47-1.12.16-.82.47-1.13c.32-.32.69-.47 1.12-.47s.82.16 1.13.47c.32.32.47.69.47 1.13s-.16.8-.47 1.12c-.32.31-.69.47-1.13.47zm4.76 14.1s.1-.13.17-.34c.07-.21.13-.54.18-.99.05-.45.1-1.04.15-1.78.05-.74.07-1.63.07-2.69 0-.6 0-1.2-.02-1.8-.02-.6-.04-1.18-.07-1.75-.03-.57-.07-1.02-.13-1.35-.05-.33-.1-.58-.15-.75-.07-.19-.13-.33-.2-.4.21-.06.41-.11.6-.15.19-.04.38-.06.57-.06.55 0 .99.13 1.33.38.34.25.51.56.51.92 0 .08 0 .15-.01.21 0 .07-.02.13-.03.19-.02.06-.03.12-.05.19l.09.02c.15-.3.36-.58.65-.83.29-.25.62-.47.99-.65a5.69 5.69 0 012.51-.56c.77 0 1.39.09 1.84.28.46.19.81.45 1.04.77s.39.69.46 1.1c.07.41.11.83.11 1.25 0 .87-.02 1.72-.05 2.55-.03.83-.05 1.76-.05 2.78 0 .27 0 .55.02.84.02.29.06.56.13.8s.19.44.35.6c.17.16.39.24.68.24.22 0 .43-.05.61-.16.1-.05.2-.1.29-.17l.09.08c-.12.28-.3.52-.54.73-.21.19-.48.36-.82.51-.34.15-.76.22-1.26.22-.27 0-.53-.03-.79-.09-.25-.06-.48-.17-.68-.33-.2-.16-.36-.35-.49-.59s-.19-.53-.19-.9c0-.51 0-.99.01-1.44 0-.45.02-.9.02-1.36 0-.45.02-.93.02-1.43 0-.5.01-1.05.01-1.65 0-.42-.01-.82-.03-1.2-.02-.39-.1-.72-.23-1.02-.13-.29-.34-.53-.62-.71-.29-.18-.68-.27-1.19-.27-.32 0-.64.07-.98.21-.34.14-.65.36-.92.64-.27.29-.5.64-.67 1.06-.17.42-.26.91-.26 1.47s0 1.05.01 1.53c0 .48.02.96.03 1.43.02.47.03.95.03 1.44s.01 1.01.01 1.58c0 .65-.15 1.08-.44 1.29-.29.21-.64.32-1.05.32-.25 0-.53-.02-.82-.07-.29-.05-.58-.1-.87-.16zm13.01 2.25c0-.27.07-.48.2-.63.13-.15.3-.26.5-.32.2-.07.41-.1.65-.11.24 0 .46-.01.67-.01.02.29.08.61.19.99.11.37.3.73.56 1.06.26.33.6.61 1.03.84s.97.34 1.64.34c.35 0 .69-.04 1.04-.12s.66-.2.93-.36c.27-.16.49-.36.67-.61.17-.25.26-.54.26-.87s-.16-.61-.49-.78a4.92 4.92 0 00-1.22-.43c-.49-.11-1.02-.22-1.59-.32-.57-.1-1.1-.25-1.59-.44s-.9-.46-1.22-.8c-.32-.34-.49-.79-.49-1.35 0-.49.13-.93.39-1.3s.5-.66.73-.87c-1.93-.5-2.89-1.75-2.89-3.76 0-.63.13-1.23.39-1.78.26-.56.62-1.03 1.09-1.42.47-.39 1.02-.7 1.67-.93.65-.23 1.36-.34 2.14-.34.45 0 .89.03 1.3.09.41.06.78.15 1.11.28.62-.03 1.04-.28 1.26-.76s.37-1.07.43-1.78c.2.03.41.05.62.07.22.02.41.06.57.12.17.07.3.16.41.27.11.12.16.29.16.53 0 .3-.07.56-.21.79-.14.23-.33.43-.57.61-.24.18-.5.32-.79.44-.29.12-.57.2-.84.27.91.7 1.36 1.72 1.36 3.04 0 .65-.13 1.24-.39 1.79-.26.54-.62 1.02-1.09 1.42-.47.4-1.02.71-1.67.94-.65.22-1.36.34-2.13.34h-.57c-.17 0-.35-.02-.53-.05-.11.15-.19.31-.25.47-.06.16-.09.28-.09.35 0 .3.18.52.53.67.35.14.8.26 1.32.36.53.1 1.1.2 1.73.31.62.11 1.2.27 1.73.5.53.22.97.54 1.32.94.35.4.53.94.53 1.62 0 .57-.14 1.09-.42 1.57-.28.47-.67.88-1.17 1.23-.5.35-1.1.62-1.79.82-.69.2-1.45.29-2.27.29s-1.51-.1-2.11-.31c-.6-.2-1.1-.47-1.52-.79-.41-.32-.72-.67-.93-1.04-.2-.37-.31-.72-.31-1.05zm5.09-6.95a2 2 0 00.93-.23c.29-.15.53-.36.73-.62.2-.26.37-.57.49-.93.12-.35.18-.73.18-1.12 0-.46-.05-.9-.14-1.31-.1-.41-.24-.77-.44-1.09-.2-.32-.46-.56-.78-.75-.32-.18-.71-.27-1.15-.27-.33 0-.64.08-.91.24-.28.16-.52.37-.73.62-.21.26-.38.56-.5.92-.12.35-.18.73-.18 1.13 0 .46.05.89.14 1.3.1.41.24.77.44 1.09.2.32.45.56.77.75.32.18.7.27 1.16.27zM76.12 49.81a132.679 132.679 0 00-.11-5.41c-.03-.57-.06-1.02-.08-1.36-.02-.34-.05-.6-.09-.78-.03-.21-.05-.35-.07-.43.18.01.35.03.52.05.15.01.31.02.48.02h3.86c1.08 0 2.01.14 2.8.42s1.44.64 1.95 1.1.89.97 1.13 1.56c.25.59.37 1.18.37 1.79 0 .89-.2 1.68-.6 2.35-.4.67-.91 1.24-1.54 1.69-.63.45-1.34.8-2.14 1.02-.8.23-1.61.34-2.42.34-.22 0-.44 0-.66-.02-.21-.02-.42-.04-.62-.07.01 1.08.05 2.16.09 3.24s.14 2.17.28 3.27c-.3.05-.58.1-.83.15s-.51.08-.76.08c-.41 0-.77-.11-1.08-.32-.31-.21-.47-.65-.47-1.3v-7.39zm2.75 1.15c.14.03.28.05.43.05h.4c.68 0 1.29-.12 1.81-.35s.96-.54 1.32-.92c.35-.38.62-.81.8-1.29a4.155 4.155 0 00.02-2.89c-.17-.46-.42-.87-.78-1.23-.35-.36-.79-.64-1.32-.86-.53-.21-1.15-.32-1.86-.32h-.73c-.01.76-.03 1.52-.05 2.27-.01.63-.03 1.29-.03 1.97s-.01 1.27-.01 1.76v1.79zm10.27 6.03c0-.72.02-1.42.06-2.11.04-.69.06-1.37.06-2.04 0-1.2-.03-2.2-.08-2.99s-.11-1.42-.17-1.89c-.06-.47-.13-.8-.2-.99-.07-.19-.12-.3-.13-.33.21-.06.41-.11.6-.15.19-.04.38-.06.56-.06.56 0 1.02.13 1.39.39.37.26.55.64.55 1.14 0 .09 0 .19-.02.3-.01.1-.04.2-.07.27-.03.09-.05.19-.07.3l.09.02c.16-.38.38-.72.66-1.01.27-.29.58-.55.9-.76s.67-.37 1.03-.48c.36-.11.7-.16 1.01-.16.47 0 .78.09.94.26.16.17.24.39.24.66s-.02.56-.07.86c-.05.3-.12.58-.22.84l-.12.05c-.38-.19-.72-.35-1.04-.48s-.6-.19-.87-.19c-.46 0-.84.12-1.15.34-.31.23-.56.55-.74.95-.18.4-.31.88-.39 1.44-.07.56-.11 1.17-.11 1.84 0 1.17.03 2.12.09 2.85s.12 1.29.18 1.7c.06.4.12.68.17.82.06.15.09.22.11.22-.3.05-.58.1-.86.15s-.55.08-.8.08c-.23 0-.43-.03-.61-.08s-.34-.15-.47-.29-.23-.32-.31-.56-.11-.54-.11-.9zm9.62-.09c0-.68.02-1.37.05-2.05a54.831 54.831 0 00-.03-5.28c-.05-.82-.12-1.44-.19-1.87-.07-.43-.17-.78-.3-1.05.21-.06.41-.11.6-.15.19-.04.38-.06.56-.06.54 0 1.02.13 1.42.4.4.27.61.64.61 1.12 0 .64 0 1.28-.02 1.94-.01.66-.03 1.29-.04 1.92 0 .62-.02 1.21-.03 1.78-.02.57-.02 1.07-.02 1.51 0 .27 0 .56.02.85.01.29.06.56.13.81.07.24.19.45.36.61.17.16.39.24.68.24.22 0 .42-.05.62-.16.09-.05.19-.11.28-.18l.1.08c-.13.28-.32.52-.56.73-.2.19-.47.37-.81.51s-.77.22-1.28.22c-.27 0-.53-.03-.78-.09s-.48-.17-.68-.33-.36-.36-.49-.59c-.13-.24-.19-.54-.19-.9zm1.32-12.51c-.44 0-.81-.16-1.13-.47-.32-.31-.48-.69-.48-1.12s.16-.82.48-1.14.69-.48 1.13-.48.82.16 1.14.48c.32.32.48.7.48 1.14s-.16.81-.48 1.12-.7.47-1.14.47zm7.38 12.49l-.63-2.01c-.25-.8-.52-1.61-.8-2.43s-.57-1.62-.84-2.37-.53-1.37-.75-1.85c-.12-.26-.26-.51-.4-.76s-.33-.48-.55-.67v-.12c.24-.05.5-.09.76-.13.27-.04.61-.06 1.03-.06s.8.08 1.18.23.61.41.7.78c.13.5.32 1.14.55 1.92.24.77.5 1.58.8 2.43s.59 1.7.9 2.54c.3.84.59 1.6.86 2.27h.12c.54-1.54.97-2.86 1.28-3.96.31-1.09.55-2.02.74-2.78.19-.76.34-1.36.44-1.8.11-.44.22-.79.34-1.04.12-.25.27-.41.45-.48s.45-.1.8-.1c.18 0 .34 0 .48.02.14.01.26.04.36.07.11.03.19.06.26.09v.12c-.11.1-.23.24-.37.43-.13.18-.27.41-.41.68-.14.28-.29.64-.45 1.09l-3.6 9.97c-.51-.03-.97-.13-1.39-.29-.37-.12-.72-.32-1.07-.6-.35-.28-.61-.67-.77-1.18zm8.46-1.13c0-.85.21-1.57.64-2.15.43-.58.97-1.05 1.62-1.39s1.36-.59 2.11-.74c.76-.15 1.46-.23 2.11-.25v-.21c0-.5-.03-.94-.1-1.33-.07-.39-.19-.72-.36-.99a1.65 1.65 0 00-.7-.61c-.29-.13-.67-.2-1.14-.2-.59 0-1.17.14-1.75.42-.58.28-1.09.62-1.53 1.01l-.1-.09c.1-.35.29-.7.56-1.05a4.992 4.992 0 012.33-1.61c.49-.17 1-.25 1.52-.25.85 0 1.52.12 2.03.35s.9.54 1.16.93.44.84.52 1.35c.08.51.12 1.03.12 1.58 0 .64-.01 1.32-.04 2.06-.02.74-.04 1.44-.04 2.11v.29c0 .23 0 .5.02.8.01.3.06.59.13.86s.19.5.35.69c.17.19.39.29.68.29.23 0 .43-.05.62-.16.1-.05.2-.11.29-.18l.09.08c-.12.28-.31.52-.55.73-.2.19-.48.37-.82.51s-.77.22-1.27.22c-.24 0-.48-.03-.73-.08s-.46-.15-.65-.27c-.19-.13-.34-.3-.47-.51-.12-.21-.18-.48-.18-.8l-.09-.05c-.27.51-.69.95-1.26 1.3-.57.36-1.23.54-1.99.54-.5 0-.95-.08-1.34-.25-.39-.17-.72-.4-.99-.69-.27-.3-.47-.64-.62-1.02-.14-.39-.22-.8-.22-1.24zm2.69-.45c0 .72.16 1.23.49 1.52s.69.44 1.1.44c.21 0 .44-.04.68-.13a2.68 2.68 0 001.23-.88c.14-.2.21-.41.21-.64 0-.47.01-1.01.04-1.62.02-.61.04-1.21.04-1.82-.24.05-.58.12-1.01.2s-.85.24-1.26.47c-.41.22-.77.53-1.07.91-.3.39-.45.9-.45 1.54zm9.78-.99c0-.38 0-.77.01-1.18s.02-.8.04-1.18c.01-.38.03-.73.03-1.06 0-.33.01-.6.01-.83 0-.51-.01-.91-.04-1.19-.02-.28-.07-.5-.15-.67a.727.727 0 00-.33-.34c-.15-.07-.34-.14-.58-.21v-1c.26 0 .58-.11.96-.32.38-.21.75-.47 1.12-.77.37-.3.69-.61.98-.93.29-.32.47-.58.55-.77l.55.2-.48 2.6h1.96c.47 0 .8-.04 1-.12.12-.03.21-.07.29-.12.01.08.02.19.02.33v.31c0 .5-.11.83-.34.98s-.56.23-1 .23h-.42c-.2 0-.42 0-.65-.02-.27 0-.56 0-.86-.02-.01.56-.03 1.11-.05 1.64-.01.47-.02.97-.02 1.5v1.48c0 .59.02 1.15.07 1.68.04.53.13 1 .27 1.4.14.4.34.72.62.94.27.23.64.34 1.09.34.29 0 .58-.05.88-.16.3-.11.58-.24.82-.38.29-.17.57-.36.84-.57l.12.09c-.19.51-.45.97-.77 1.39-.29.35-.66.66-1.13.94s-1.07.42-1.81.42c-.7 0-1.28-.12-1.74-.35a2.9 2.9 0 01-1.11-.97c-.28-.41-.47-.9-.58-1.47-.11-.57-.17-1.18-.17-1.85zm7.99-1.37c0-.83.13-1.64.4-2.44.26-.8.64-1.5 1.12-2.12.48-.62 1.08-1.12 1.78-1.5.7-.39 1.48-.58 2.35-.58.78 0 1.46.11 2.01.31.55.21 1.01.47 1.37.79s.61.68.78 1.09c.16.42.24.82.24 1.22 0 .61-.14 1.11-.42 1.51-.29.4-.64.74-1.08 1-.44.26-.93.45-1.48.56-.55.11-1.09.17-1.61.17-.35 0-.68-.04-1-.11-.32-.07-.6-.15-.84-.23-.29-.09-.55-.2-.78-.34l-.09.05c0 .72.08 1.37.25 1.96s.41 1.09.72 1.53c.31.43.71.76 1.18.99s1.02.34 1.64.34c.5 0 .97-.07 1.41-.2.44-.14.84-.29 1.19-.46.42-.19.8-.43 1.15-.7l.12.13c-.19.57-.5 1.07-.91 1.53-.36.38-.86.72-1.48 1.04-.62.31-1.43.47-2.44.47-.79 0-1.53-.15-2.21-.44-.68-.29-1.27-.71-1.76-1.24s-.88-1.17-1.16-1.91-.42-1.55-.42-2.42zm2.75-1.75s.07.1.2.17.31.13.53.19c.22.06.45.11.72.15s.52.06.78.06c.27 0 .54-.04.8-.12.26-.08.5-.2.72-.37.22-.17.39-.38.53-.65.13-.26.2-.58.2-.94 0-.29-.03-.56-.1-.83-.07-.27-.18-.51-.33-.73-.15-.22-.35-.39-.58-.53s-.52-.2-.86-.2c-.43 0-.8.15-1.12.47-.32.31-.59.68-.82 1.1-.22.42-.39.85-.5 1.27-.11.42-.16.74-.16.97zm15.35 5.44c0-.23.07-.47.2-.73.14-.26.26-.49.38-.68h.16c.37.43.81.81 1.34 1.12.43.27.96.52 1.58.76.63.23 1.35.35 2.16.35.59 0 1.08-.07 1.48-.22.4-.14.72-.34.97-.58.25-.24.42-.51.52-.81.1-.3.15-.61.15-.93 0-.62-.21-1.15-.63-1.58-.42-.43-.95-.81-1.58-1.15-.64-.33-1.32-.66-2.06-.98s-1.43-.69-2.06-1.11c-.64-.42-1.17-.92-1.59-1.5-.42-.58-.64-1.31-.64-2.18 0-.78.17-1.48.51-2.1s.79-1.13 1.35-1.54 1.2-.72 1.91-.94 1.44-.32 2.19-.32c.32 0 .74.03 1.27.09s1.06.17 1.58.31.97.33 1.34.56.56.51.56.84c0 .3-.09.63-.26.99s-.4.67-.67.94h-.16c-.33-.44-.71-.85-1.13-1.21-.37-.32-.8-.61-1.31-.86-.51-.26-1.08-.38-1.72-.38-.81 0-1.47.25-2 .76-.52.51-.79 1.15-.79 1.92 0 .62.21 1.13.63 1.54s.95.76 1.58 1.07 1.32.62 2.06.92c.74.3 1.43.66 2.06 1.07.64.41 1.17.92 1.59 1.53.42.61.63 1.36.63 2.27 0 .82-.18 1.55-.53 2.18-.36.63-.83 1.16-1.41 1.58-.58.43-1.24.75-1.97.97-.73.22-1.47.33-2.22.33-.5 0-1.07-.05-1.71-.16-.64-.1-1.23-.25-1.79-.44s-1.02-.43-1.41-.72c-.38-.29-.58-.62-.58-1zm13.37-3.62c0-.92.15-1.79.47-2.6.31-.81.75-1.52 1.32-2.12.57-.61 1.25-1.09 2.05-1.44s1.68-.54 2.65-.54c.26 0 .6.03 1.02.09s.85.15 1.26.29c.42.13.78.31 1.09.53.31.22.47.48.47.8 0 .23-.09.5-.26.8-.18.3-.37.57-.58.79h-.12c-.27-.39-.58-.75-.93-1.07-.3-.27-.67-.52-1.09-.75s-.89-.34-1.39-.34c-.59 0-1.09.15-1.49.44s-.73.66-.99 1.12c-.26.45-.44.96-.55 1.51-.11.56-.17 1.09-.17 1.6 0 .7.09 1.36.28 1.98.19.62.45 1.16.8 1.62.35.46.77.82 1.27 1.08.49.26 1.04.39 1.65.39.46 0 .92-.08 1.38-.24.46-.16.87-.33 1.24-.52.43-.23.84-.49 1.24-.79l.09.09c-.23.61-.57 1.15-1 1.63-.37.41-.87.78-1.51 1.1s-1.46.49-2.45.49c-.79 0-1.54-.15-2.24-.45s-1.31-.72-1.82-1.26-.93-1.17-1.23-1.89c-.3-.72-.45-1.5-.45-2.33zm12.27 5.58c.1-.15.19-.5.27-1.02.06-.44.12-1.1.19-1.98.06-.88.09-2.08.09-3.6v-4.32c0-.54 0-1.2-.01-1.97 0-.77-.03-1.51-.07-2.24-.04-.72-.09-1.36-.16-1.91-.07-.55-.16-.88-.28-1.01l.07-.11c.75 0 1.34.07 1.76.22s.73.37.93.68c.2.31.32.71.37 1.2.05.49.07 1.1.07 1.81 0 .65-.02 1.32-.06 1.99-.04.68-.12 1.34-.23 1.99l.09.02c.15-.3.36-.58.65-.83.28-.25.62-.47 1-.65a6.146 6.146 0 012.53-.57c.78 0 1.4.1 1.86.29.46.19.81.44 1.05.75s.39.67.47 1.06c.07.4.11.81.11 1.22 0 .89-.01 1.77-.05 2.63-.03.86-.05 1.81-.05 2.86 0 .27 0 .56.02.85.01.29.06.56.13.81.07.24.19.45.35.61.17.16.39.24.68.24.23 0 .43-.05.62-.16.09-.05.19-.11.29-.18l.09.08c-.12.28-.31.52-.55.73-.21.19-.49.37-.83.51s-.77.22-1.27.22c-.27 0-.54-.03-.79-.09-.26-.06-.48-.17-.68-.33s-.36-.36-.49-.59c-.13-.24-.19-.54-.19-.9 0-.53 0-1.02.01-1.48s.01-.93.02-1.4.02-.96.02-1.47.01-1.07.01-1.69c0-.39-.01-.78-.04-1.15-.02-.37-.1-.7-.24-.99s-.34-.52-.63-.69c-.29-.18-.68-.26-1.19-.26-.32 0-.65.07-.99.21-.34.14-.65.36-.93.65s-.5.64-.68 1.07-.27.92-.27 1.48 0 1.06.02 1.54.02.97.04 1.44c.01.48.03.96.03 1.45s.01 1.02.01 1.59c0 .65-.15 1.09-.44 1.3-.29.21-.65.32-1.06.32-.26 0-.53-.02-.83-.07-.3-.05-.59-.1-.87-.16zm13.15-5.67c0-.86.14-1.69.41-2.49s.67-1.5 1.19-2.11c.52-.61 1.18-1.1 1.97-1.47s1.7-.55 2.73-.55 1.88.16 2.63.48c.75.32 1.38.74 1.89 1.27s.89 1.14 1.15 1.83c.26.69.39 1.39.39 2.1 0 .88-.14 1.75-.41 2.58s-.67 1.58-1.2 2.23c-.53.65-1.19 1.17-1.98 1.56-.79.39-1.69.59-2.71.59s-1.88-.17-2.63-.5-1.38-.78-1.89-1.35-.89-1.21-1.15-1.93c-.26-.72-.39-1.47-.39-2.25zm2.91-.41c0 .67.07 1.32.22 1.97.14.64.35 1.22.63 1.72s.62.9 1.05 1.21c.42.3.92.45 1.5.45.52 0 .98-.15 1.38-.47.4-.31.73-.72.99-1.23s.45-1.09.58-1.74.19-1.32.19-2c0-.62-.07-1.24-.21-1.84-.15-.61-.36-1.14-.64-1.61-.28-.47-.63-.85-1.06-1.13s-.93-.43-1.5-.43c-.52 0-.98.15-1.38.44-.4.3-.72.68-.98 1.16-.25.48-.44 1.02-.57 1.64s-.19 1.24-.19 1.88zm10.89.41c0-.86.14-1.69.41-2.49.27-.8.67-1.5 1.19-2.11.52-.61 1.18-1.1 1.97-1.47s1.7-.55 2.73-.55 1.88.16 2.63.48c.75.32 1.38.74 1.89 1.27s.89 1.14 1.15 1.83c.26.69.38 1.39.38 2.1 0 .88-.14 1.75-.41 2.58s-.67 1.58-1.21 2.23c-.53.65-1.19 1.17-1.98 1.56s-1.69.59-2.71.59-1.88-.17-2.63-.5-1.38-.78-1.89-1.35c-.51-.57-.89-1.21-1.15-1.93-.26-.72-.38-1.47-.38-2.25zm2.91-.41c0 .67.07 1.32.22 1.97s.35 1.22.63 1.72.63.9 1.05 1.21c.42.3.92.45 1.5.45.52 0 .98-.15 1.38-.47.4-.31.73-.72.99-1.23s.45-1.09.58-1.74c.13-.65.19-1.32.19-2 0-.62-.07-1.24-.21-1.84s-.36-1.14-.64-1.61c-.28-.47-.63-.85-1.06-1.13-.43-.29-.93-.43-1.5-.43-.52 0-.98.15-1.38.44-.4.3-.73.68-.98 1.16-.25.48-.44 1.02-.57 1.64-.13.61-.19 1.24-.19 1.88zm11.63 4.24c0-.99.02-2.16.06-3.51a138.965 138.965 0 00.02-7.35c-.02-1.03-.05-1.92-.08-2.68-.03-.56-.07-1.01-.12-1.34s-.1-.6-.15-.8c-.06-.23-.12-.4-.16-.52l.07-.11c.39 0 .78.03 1.16.08s.71.14.99.27.51.31.68.53c.17.23.25.53.25.89 0 1.21-.01 2.44-.05 3.67-.03 1.24-.05 2.49-.05 3.77 0 1.06 0 2.13.02 3.21.02 1.07.04 2.14.07 3.18.01.41.1.78.24 1.1s.42.48.83.48c.23 0 .43-.05.63-.16.09-.05.19-.11.28-.18l.09.08c-.12.28-.31.52-.55.73-.2.19-.47.37-.82.51-.34.15-.77.22-1.28.22-.27 0-.53-.03-.79-.09-.25-.06-.48-.17-.68-.33-.2-.16-.36-.37-.49-.64s-.19-.6-.19-1.01z"/></g></svg>