<?xml version="1.0" encoding="UTF-8"?><svg id="a" xmlns="http://www.w3.org/2000/svg" viewBox="0 0 226.77 125.7"><defs><style>.b{fill:#004023;}</style></defs><g><path class="b" d="M36.62,78.27c-.17,.12-.58,.25-.72,.1,.2-.18,.47-.21,.72-.1Z"/><path class="b" d="M75.49,9.77c-.01-.22,.32-.04,.45-.1,.19,.35,.14,.53,.09,1-.2-.28,.04-1.04-.54-.9Z"/><path class="b" d="M88.15,51.75h-.27c-1.1,1.33-2.54,3.5-4.49,4.49-.52,.85-1.67,1.01-2.15,1.9-1.46,.83-2.79,1.82-5.03,1.3-.26-.98-1.32-1.06-1.44-2.19-.53-.21-.83-.67-.99-1.3-.02-.21-.39-.03-.45-.2-.08-1.21-.67-1.84-.81-2.99-.41-.44-.56-1.51-.63-2.1-.81-6.7,1.44-13.93,3.59-19.04,.48-.37,.74-.97,.9-1.7,.36-.2,.72-.4,.9-.8,.69,.38,.84,1.27,.81,2.19-.99,1.86-1.81,3.9-2.15,6.48,.06,.26-.19,.19-.27,.3-.06,2.75-.67,5.65-.36,8.87,.07,.74,.41,1.32,.63,2.09,.25,.92,.21,1.85,.9,2.39,1.37-.15,2.51-.61,3.05-1.4,2.16-.69,3.27-2.54,4.94-3.79,.03-.74,.4-1.09,.99-1.2,.54-.94,1.48-1.93,1.35-3.29,1.03-.82,1.29-2.49,2.42-3.19-.05-.39,.16-.49,.09-.9,1.01-.77,.84-2.85,1.8-3.69-.02-1.02,.17-1.8,.63-2.29,.06-.3-.15-.3-.09-.6,.55-.74,.36-2.37,.99-2.89-.07-.4-.07-.4,0-.8,.5,.02,.61-.92,.45-1.3,.49-.81,.58-2.09,.63-3.39,.14-.04,.07-.31,.36-.2-.13-1.22,.62-1.94,.63-3.29,1.33-.19,2.39-.67,3.23-1.4,.33,.19,.2,.91,.72,.9-.2,.62,.19,1.23,.09,2.09-.77,.35-.48,1.44-.99,2.19-.02,.35,.42,.2,.36,.6-.45,.09-.36,.8-.45,1.3-.98,.11-.25,2.12-1.08,2.39,.22,.56-.16,.66-.27,1.1-.06,.37,.19,.38,.18,.7-.46-.08-.14,.71-.54,.7,.26,1.68-.68,3.65-.18,5.58-.14,.27-.25,.59-.36,.9-.05,.35,.32,.24,.27,.6-.13,1.47-.83,2.71-.63,4.19-.35,1.11-.62,2.73-.36,3.79-.05,.28-.22,.42-.27,.7,.34,1.99-.35,3.22-.36,4.99,.04,.21-.13,.19-.27,.2,.28,1.6-.78,3.28-.27,4.98-.96,1.23-.93,3.71-1.17,5.98-.16-.01-.19,.12-.36,.1,.15,.77-.08,.85-.45,1.2,0,.27-.05,.59,.18,.6-.39,.58-.33,1.2-.45,2.19-.38-.09-.38,.24-.36,.6-.58,.25-.59,1.14-.72,1.89-.4,.95-1.01,1.67-1.26,2.79-.53,.24-.8,.78-1.08,1.3-.89,.49-1.25,1.63-1.98,2.29-.23,.21-.92,.23-.81,.9-.55,.49-1.21,.86-1.53,1.6-.68,.57-1.97,.65-2.24,1.4-.69,.05-.97,.44-1.62,.3-.7,.6-2.14,.86-3.05,.9-.83,.37-2.11,.24-2.24,1.4-.93,.47-1.9,.88-2.78,1.39v.6c-1.16-.45-1.87,.33-2.16,1.4-1.22,.25-2.42,.83-3.68,1.1-1.93-1.07-4.16-.99-6.46-.7-.17-.28-.38-.5-.9-.4-.1-.19-.11-.47-.18-.7-.99-.26-1.8-.56-2.78-.1v-.6c-.53-.08-1.61-.98-1.89-.1-1.14-.47-2.65,.13-3.68-.4-.37-.08-.17,.48-.54,.4-1.41-.34-1.71-1.41-2.87-1.89-.28,.02-.43,.19-.45,.5-.09-.3-.64-.09-.81-.3-.81,.56-1.82-.37-2.69-.6-.55-.14-1.3,.16-1.44-.6h-2.07c.18-.19,.05-.47,0-.7-.73-.01-1.46-.02-1.89,.3v-1c-.15-.2-.33-.37-.63-.4,.04-.19,.35-.08,.27-.4,.13,.19,.3,.34,.45,.5,.42-.07,.53-.47,.72-.8,.96-.02,2.42,.65,3.5,0,.26-.03,.28,.22,.54,.2,0,.33-.44,.17-.36,.6,.03,.33,.77,.27,.72-.1,.28,.05,.39,.29,.72,.3,1.06-.38,1.91,.08,3.5-.2,.07-.16,.28-.15,.27-.4,.44-.04,1.09,.15,1.17-.3,.14-.39-.39-.03-.36-.3-.03-.33-.01-.61,.18-.7,.4,.12,.32,.77,.54,1.1,.46,.02,.84-.06,.81-.6,.44-.19,1.05-.09,1.35-.2,.19,.03,.03,.44,.18,.5,1.76,.32,2.71-.46,4.31-.7,.17-.35,0-.58,0-1,.48-.07,.55-.04,1.08,0-.02,.31,.24,.33,.18,.7,.88,.08,1.46-.17,1.52-1,.93-.03,2.96-.78,3.05,.6,.74,.09,1.14-.19,1.53-.5v-.3c-.15-.44-.74-.07-1.08-.1,.04-.47,.76-.04,.99-.5,.06,.27,.27,.37,.45,.5,1.03,.05,1.59-.42,2.42-.6,.1-.02,.07-.18,.09-.3,.87,.27,.4-.95,1.17-.8,.04,.31-.08,.44-.36,.4,.03,.2,.24,.19,.27,.4,.47,0,.66-.33,1.17-.3-.09-.1-.18-.2-.27-.3,1.66-.18,2.88-.76,4.67-1,2.45-1.53,4.59-3.41,6.91-5.08,1.28-1.38,2.74-2.54,3.86-4.09,.28,.02,.3-.27,.63-.2,.22-.85,.52-1.61,1.26-1.89,.31-1.39,1.38-1.92,1.44-3.59h.63c-.21-2.36,1.38-3.24,1.08-5.38h.36v-.7c-.28-.05-.44,.24-.27-.1Z"/><path class="b" d="M78.19,20.34c.21,.08,.09,.62-.18,.5-.13-.38,.25-.19,.18-.5Z"/><path class="b" d="M75.13,12.46c.1,.08-.24,.5,0,.8,.4-.08,.54,.13,.9,.1-.07,.88,.44,1.11,.54,1.79,.5-.04,.52-.07,.81,.2-.06,.4-.34,.55-.63,.7,.39,1.05-.74,1.99-.09,2.99,.88-.72,.6-2.73,1.35-3.59v-.8c1.35,1.61-.42,4.59,.63,6.08-.1,.39-.24,.73-.36,1.1-.1-.12-.32-.11-.54-.1,.2,1.34-.3,1.84-.45,2.99-.09-.36-.6-.36-.9-.2,.03,.47-.03,.83-.09,1.2-.73,.18-.84,1.06-.81,2.09-.46,.22-.61,.79-.54,1.6-.55,.26-.57,1.1-.81,1.69-.61,.22-1.06,.62-1.62,.9,0,1.1-.78,1.33-.72,2.49-1.33,.15-1.44,1.66-1.88,2.79-.18-.03-.28,.02-.27,.2-.09-.07-.09-.23-.27-.2-.65,1.47-1.44,2.79-2.69,3.59-.21,2.02-1.39,2.97-1.62,4.99-.45,.03-1.12-.2-1.89-.1-.46,.32-.72,.86-.99,1.4-.93,.09-1.65,.42-2.51,.6-.11,.02-.07,.18-.09,.3-1.41,0-2.55,.76-3.86,.4-1.18-.33-2.6-.03-3.77-.3-.35-.08-.69-.43-1.08-.3-.19-.39-.6-.53-1.17-.5-.67-.49-1.35-.96-2.15-1.29-.19-.75-.8-1.04-1.44-1.3,.05-.32-.06-.46-.09-.7-.71-.8-1.61-1.4-1.98-2.59-.21-.24-.55-.32-.81-.5-.74-1.41-1.4-2.9-2.33-4.09-.39-1.64-1.05-3.18-1.44-4.89-.08-.32-.17-.77-.27-1.1-.04-.11-.24-.11-.27-.2-.34-.85-.37-2.08-.63-3.09-.18-.72-.57-1.78-.9-2.69-1.01-.38-1.14,.96-1.89,1.2-.49,1.22-1.58,2.01-2.24,3.09-.7,1.13-1.08,2.66-2.15,3.49-.03,.83-.61,1.06-.63,1.89-.32-.05-.22,.35-.54,.3,.02,.36-.16,.48-.18,.8-.29,.12-.41,.41-.72,.5,.12,.3-.34,.68,.09,.7-.73,.61-.55,2.25-1.53,2.59-.06,.66-.51,.89-.45,1.7-.64,.22-.29,1.54-1.08,1.6-.02,.37-.21,.57-.36,.8,.12,.41-.22,.81,0,1-.08,.17-.33,.17-.36,.4,.14,.5,.07,1.07-.45,1.1v1c-.83,1.12-.72,2.76-.9,4.49-.05,.22,.17,.14,.18,.3,.04,1.75-.64,2.92-1.35,4.09-.91-.3-1.37,.64-2.24,.7-1.21-.68-1.99-1.84-3.32-2.39,0-.74-.42-1-.9-1.2,.16-.71-.41-.61-.36-1.2-.21-.03-.34-.16-.63-.1-.13-.93-.26-1.31-.18-2.39,.09-.27,.25-.46,.36-.7-.14-1.54,.76-2.72,.99-4.09,.13-.77-.06-1.49,0-2.29,.07-1.04,.74-2.17,.18-3.29,.44-.79-.04-1.52,.27-2.29,.06-.37-.2-.38-.18-.7-.14-.35,.31-.06,.27-.3-.55-1.31,.37-3.08-.18-4.19,.37-.48-.04-1.66-.09-2.69-.05-.99,.14-2.21,.09-2.99-.02-.38-.24-.67-.27-1-.12-1.14,.06-2.22-.27-3.19,.13,0,.26,.01,.27-.1-.31-1.42-.52-2.95-.9-4.29-1.08-.28-1.41,.29-1.8,1-.99,.06-1.02,1.2-1.88,1.39,.07,.35-.14,.38-.09,.7-.76-.05-.95,.81-1.35,1.2-.4,.39-1.05,.4-1.17,1.1-.77-.02-.93,.63-1.61,.7-.64,.85-1.46,1.5-2.42,2-.3,.65-1.05,1.09-1.71,1.7-.65,.6-1.06,1.24-1.71,1.5-.28,.11-.59,0-.9,.1-.22,.07-.35,.37-.63,.3-.72-.18-.69-1.88,0-2.39-.05-.15,.11-.52-.09-.5,.41-1.4,1.54-2.01,2.06-3.29,.6-.17,.54-1.06,1.17-1.19,.3-1.26,1.34-1.71,1.71-2.89,.47,.06,.36-.54,.81-.5,1.11-1.89,2.65-3.31,4.22-4.69,.33-.43,.58-.95,1.17-1.1,.1-.39,.31-.66,.45-1,1.04-.12,1.55-1.53,2.69-.9,1.4-.69,3.27-.3,5.21-.2,.03,.46,.44,.5,.9,.5,.03,.39,.3,.53,.27,1,.5,.51,.89,1.13,1.08,2,.02,.12,.17,.08,.27,.1,.17,1.76,.95,4.06,1.26,5.68-.09,5.2,.25,10.69,.36,15.75,.24,.17,.24,.6,.72,.5,.46-1.11,1.2-1.92,1.71-2.99-.25-.69,.1-1.19,.18-1.79,.65-.41,.62-1.57,.9-2.39,.35,.06,.52-.09,.72-.2,.11-.63,.05-1.64,.81-1.79-.05-.14,.11-.51-.09-.5,.42-.36,.63-.96,1.26-1.1,.27-.89,.47-1.87,1.35-2.09,.33-2.39,2.65-2.57,2.6-5.38h.45c.09-.46-.07-.66-.36-.7,.47-.08,.63-.56,.45-1.09,.44-.47,1.3-.48,1.53-1.2,.52,.34,.92-.21,1.26-.4,.37,.29,.9,.41,1.17-.1,.07,.4,.85,.44,.81-.1,.98,.53,1.54-.21,2.69,.2,.3,1.13,1.99,1.3,1.88,2.69-.02,.3-.22,.06-.27,.2-.12,.32,.03,1.17-.54,1.1-.26,2.34-.53,4.57-.09,6.88,.05,.25-.02,.53,0,.8,.06,.9,.46,1.69,.72,2.69,.23,.88,.15,1.88,.36,2.59,.11,.36,.4,.57,.54,.9,.19,.47,.21,1.06,.36,1.6,.17,.61,.49,.98,.54,1.79,.62,1.13,1.29,2.22,1.89,3.39,.59,.28,1.04,.7,1.26,1.39,.27,.07,.33-.1,.54-.1,.1,.35,.41,.47,.63,.7,1.7,.07,3.22-.34,4.31-1.2,2.1-1.3,5.17-2.36,6.73-4.59,1.04-.03,1.22-.49,1.35-1.4,.38,.02,.53-.21,.63-.5,.25,.02,.21,.37,.36,.5,.98-.39,2.11-.98,1.97-2.29h.45c1.06-1.25,1.47-3.22,2.69-4.29,.02-.51,.24-.8,.27-1.3,.68-.18,.83-.94,1.43-1.2,.11-.58-.28-1.71,.36-1.69,0-1.42,1.19-2.49,1.26-4.09,.02-.47-.26-.69-.09-1.2-.08-.15-.07-.39-.36-.3,.09-.37,.27-1.42-.27-1.4,.46-.05,.12-1,.63-1-.06-.24,.11-.72-.09-.8,.03-.23,.39-.1,.45-.3-.23-1.79-.1-3.22-.27-5.58,.15,.29,.22,.11,.54,.1v.8c.23,.26,.49,.35,.72,0-.28-.96-.19-1.65-.45-2.89-.41,.07-.48,.56-.81,.2-.05,.39,.27,.37,.36,.6,.09,.37-.34,.16-.27,.5,.1,.34,.03-.28,.27-.1,.11,.31-.01,.54-.18,.7-.31-.32-.35-.94-.45-1.49-.59-.62-.53-1.58-.9-2.29-.4-.78-1.29-1.12-1.53-1.99-.34,.05-.29-.35-.72-.2-.06-.6-.61-.65-.99-.9,.12-.13,.09-.43,.09-.7,.09,.23,.39,.24,.54,.4,.13-.21,.57-.09,.45-.6,.55,.11,.8-.11,1.08-.3,.3,1.2,1.44,1.45,1.62,2.79,.42-.16,.38,.08,.63,.3-.68,1.36,1.35,1.25,1.26,2.59,.24,.1,.48,.2,.81,.2-.1,.51-.07,.92,0,1.4,.84-.22,.72,1.17,1.53,1.3-.07,.45,.12,.6,.09,1-.21-.03-.21-.27-.09-.4-.63-.1-.27,.59-.9,.3-.45,.68,.17,2.13,0,2.79,.17,.06,.46,.47,.63,.2Z"/></g><g><path d="M105.21,34.33l-.44-1.98-.58-2.5h-.04l-1.03,4.48h-1.66l-1.61-5.66h1.54l.65,2.51c.08,.3,.18,.92,.31,1.86h.04c.01-.26,.07-.66,.18-1.22l.08-.43,.7-2.71h1.7l.66,2.71c.04,.19,.09,.46,.15,.82s.09,.64,.1,.83h.04c.04-.3,.09-.64,.16-1.03,.07-.38,.12-.66,.17-.83l.68-2.51h1.52l-1.63,5.66h-1.68Z"/><path d="M113.54,34.33l-.21-.72h-.08c-.17,.26-.4,.47-.7,.61-.3,.14-.65,.22-1.04,.22-.67,0-1.17-.18-1.5-.53s-.51-.87-.51-1.54v-3.69h1.54v3.31c0,.41,.07,.71,.22,.92,.15,.2,.38,.31,.69,.31,.43,0,.74-.14,.94-.43,.19-.29,.29-.77,.29-1.44v-2.66h1.54v5.66h-1.18Z"/><path d="M121.67,34.33h-1.54v-3.31c0-.82-.3-1.23-.91-1.23-.43,0-.74,.15-.94,.44-.19,.29-.29,.77-.29,1.43v2.66h-1.54v-7.88h1.54v1.61c0,.12-.01,.42-.04,.88l-.04,.46h.08c.34-.55,.89-.83,1.64-.83,.66,0,1.17,.18,1.51,.54,.35,.36,.52,.87,.52,1.54v3.69Z"/><path d="M126.96,34.33l-.3-.77h-.04c-.26,.33-.53,.55-.8,.68-.27,.13-.63,.19-1.08,.19-.54,0-.97-.16-1.28-.47-.31-.31-.47-.75-.47-1.33s.21-1.04,.63-1.33c.42-.28,1.05-.44,1.9-.47l.98-.03v-.25c0-.57-.29-.86-.88-.86-.45,0-.98,.14-1.6,.41l-.51-1.04c.65-.34,1.37-.51,2.17-.51s1.34,.17,1.75,.5c.41,.33,.61,.83,.61,1.51v3.77h-1.08Zm-.46-2.62l-.6,.02c-.45,.01-.78,.09-1,.24-.22,.15-.33,.37-.33,.68,0,.44,.25,.65,.75,.65,.36,0,.64-.1,.86-.31,.21-.21,.32-.48,.32-.82v-.47Z"/><path d="M134.96,34.33h-1.54v-3.31c0-.41-.07-.72-.22-.92-.15-.2-.38-.31-.69-.31-.43,0-.74,.14-.94,.43s-.29,.77-.29,1.44v2.66h-1.54v-5.66h1.18l.21,.72h.09c.17-.27,.41-.48,.71-.62s.64-.21,1.03-.21c.66,0,1.16,.18,1.5,.53,.34,.36,.51,.87,.51,1.54v3.69Z"/><path d="M138.64,28.67h1.69l1.07,3.18c.09,.28,.15,.6,.19,.98h.03c.04-.35,.11-.67,.22-.98l1.05-3.18h1.65l-2.39,6.38c-.22,.59-.53,1.03-.94,1.33s-.88,.44-1.43,.44c-.27,0-.53-.03-.78-.09v-1.22c.18,.04,.39,.07,.61,.07,.27,0,.51-.08,.72-.25,.2-.17,.36-.42,.48-.76l.09-.28-2.25-5.62Z"/><path d="M149.04,34.33l-.3-.77h-.04c-.26,.33-.53,.55-.8,.68-.27,.13-.63,.19-1.08,.19-.54,0-.97-.16-1.28-.47-.31-.31-.47-.75-.47-1.33s.21-1.04,.63-1.33c.42-.28,1.05-.44,1.9-.47l.98-.03v-.25c0-.57-.29-.86-.88-.86-.45,0-.98,.14-1.6,.41l-.51-1.04c.65-.34,1.37-.51,2.17-.51s1.34,.17,1.75,.5c.41,.33,.61,.83,.61,1.51v3.77h-1.08Zm-.46-2.62l-.6,.02c-.45,.01-.78,.09-1,.24-.22,.15-.33,.37-.33,.68,0,.44,.25,.65,.75,.65,.36,0,.64-.1,.86-.31,.21-.21,.32-.48,.32-.82v-.47Z"/><path d="M157.04,34.33h-1.54v-3.31c0-.41-.07-.72-.22-.92-.15-.2-.38-.31-.69-.31-.43,0-.74,.14-.94,.43s-.29,.77-.29,1.44v2.66h-1.54v-5.66h1.18l.21,.72h.09c.17-.27,.41-.48,.71-.62s.64-.21,1.03-.21c.66,0,1.16,.18,1.5,.53,.34,.36,.51,.87,.51,1.54v3.69Z"/><path d="M163.68,34.34c0,.81-.24,1.43-.71,1.85-.47,.42-1.18,.63-2.12,.63-.83,0-1.53-.11-2.12-.33v-1.24c.69,.29,1.42,.44,2.21,.44s1.19-.43,1.19-1.29v-.11l.05-.69h-.05c-.36,.56-.9,.84-1.61,.84s-1.2-.26-1.58-.78c-.37-.52-.56-1.24-.56-2.14s.19-1.65,.58-2.17,.92-.78,1.6-.78,1.24,.28,1.64,.83h.04l.13-.72h1.31v5.67Zm-2.6-1.12c.42,0,.71-.12,.89-.36s.27-.62,.27-1.16v-.19c0-.6-.09-1.04-.28-1.3-.19-.27-.49-.4-.9-.4-.73,0-1.09,.57-1.09,1.71,0,.57,.09,.99,.27,1.27,.18,.28,.46,.42,.84,.42Z"/><path d="M167.78,33.2c.27,0,.59-.06,.97-.18v1.15c-.38,.17-.86,.26-1.42,.26-.62,0-1.07-.16-1.35-.47-.28-.31-.42-.78-.42-1.4v-2.73h-.74v-.65l.85-.52,.45-1.19h.99v1.2h1.58v1.16h-1.58v2.73c0,.22,.06,.38,.18,.49,.12,.1,.28,.16,.49,.16Z"/><path d="M173.94,34.33h-4.47v-.91l2.62-3.57h-2.47v-1.18h4.22v1l-2.55,3.48h2.64v1.18Z"/><path d="M177.72,34.43c-.91,0-1.62-.25-2.14-.75-.51-.5-.77-1.21-.77-2.14s.24-1.68,.71-2.2c.47-.52,1.13-.78,1.97-.78s1.42,.23,1.87,.68,.67,1.08,.67,1.89v.75h-3.65c.02,.44,.15,.78,.39,1.03,.24,.25,.58,.37,1.02,.37,.34,0,.66-.04,.97-.11,.3-.07,.62-.18,.95-.34v1.19c-.27,.13-.56,.24-.87,.3-.31,.07-.68,.1-1.12,.1Zm-.22-4.77c-.33,0-.58,.1-.77,.31-.18,.21-.29,.5-.32,.88h2.17c0-.38-.11-.68-.3-.88-.19-.21-.45-.31-.78-.31Z"/><path d="M100.49,37.36c0-.5,.28-.75,.84-.75s.84,.25,.84,.75c0,.24-.07,.43-.21,.56-.14,.13-.35,.2-.63,.2-.56,0-.84-.25-.84-.76Zm1.61,7.12h-1.54v-5.66h1.54v5.66Z"/><path d="M109.05,44.48h-1.54v-3.31c0-.41-.07-.72-.22-.92-.15-.2-.38-.31-.69-.31-.43,0-.74,.14-.94,.43s-.29,.77-.29,1.44v2.66h-1.54v-5.66h1.18l.21,.72h.09c.17-.27,.41-.48,.71-.62s.64-.21,1.03-.21c.66,0,1.16,.18,1.5,.53,.34,.36,.51,.87,.51,1.54v3.69Z"/><path d="M113.12,43.36c.27,0,.59-.06,.97-.18v1.15c-.38,.17-.86,.26-1.42,.26-.62,0-1.07-.16-1.35-.47-.28-.31-.42-.78-.42-1.4v-2.73h-.74v-.65l.85-.52,.45-1.19h.99v1.2h1.58v1.16h-1.58v2.73c0,.22,.06,.38,.18,.49,.12,.1,.28,.16,.49,.16Z"/><path d="M117.9,44.59c-.91,0-1.62-.25-2.14-.75-.51-.5-.77-1.21-.77-2.14s.24-1.68,.71-2.2c.47-.52,1.13-.78,1.97-.78s1.42,.23,1.87,.68,.67,1.08,.67,1.89v.75h-3.65c.02,.44,.15,.78,.39,1.03,.24,.25,.58,.37,1.02,.37,.34,0,.66-.04,.97-.11,.3-.07,.62-.18,.95-.34v1.19c-.27,.13-.56,.24-.87,.3-.31,.07-.68,.1-1.12,.1Zm-.22-4.77c-.33,0-.58,.1-.77,.31-.18,.21-.29,.5-.32,.88h2.17c0-.38-.11-.68-.3-.88-.19-.21-.45-.31-.78-.31Z"/><path d="M124.73,38.72c.21,0,.38,.02,.52,.05l-.12,1.45c-.12-.03-.28-.05-.45-.05-.49,0-.88,.13-1.15,.38s-.41,.61-.41,1.06v2.88h-1.54v-5.66h1.17l.23,.95h.08c.18-.32,.41-.57,.71-.77s.62-.29,.98-.29Z"/><path d="M131.61,44.48h-1.54v-3.31c0-.41-.07-.72-.22-.92-.15-.2-.38-.31-.69-.31-.43,0-.74,.14-.94,.43s-.29,.77-.29,1.44v2.66h-1.54v-5.66h1.18l.21,.72h.09c.17-.27,.41-.48,.71-.62s.64-.21,1.03-.21c.66,0,1.16,.18,1.5,.53,.34,.36,.51,.87,.51,1.54v3.69Z"/><path d="M136.9,44.48l-.3-.77h-.04c-.26,.33-.53,.55-.8,.68-.27,.13-.63,.19-1.08,.19-.54,0-.97-.16-1.28-.47-.31-.31-.47-.75-.47-1.33s.21-1.04,.63-1.33c.42-.28,1.05-.44,1.9-.47l.98-.03v-.25c0-.57-.29-.86-.88-.86-.45,0-.98,.14-1.6,.41l-.51-1.04c.65-.34,1.37-.51,2.17-.51s1.34,.17,1.75,.5c.41,.33,.61,.83,.61,1.51v3.77h-1.08Zm-.46-2.62l-.6,.02c-.45,.01-.78,.09-1,.24-.22,.15-.33,.37-.33,.68,0,.44,.25,.65,.75,.65,.36,0,.64-.1,.86-.31,.21-.21,.32-.48,.32-.82v-.47Z"/><path d="M142.05,43.36c.27,0,.59-.06,.97-.18v1.15c-.38,.17-.86,.26-1.42,.26-.62,0-1.07-.16-1.35-.47-.28-.31-.42-.78-.42-1.4v-2.73h-.74v-.65l.85-.52,.45-1.19h.99v1.2h1.58v1.16h-1.58v2.73c0,.22,.06,.38,.18,.49,.12,.1,.28,.16,.49,.16Z"/><path d="M144.2,37.36c0-.5,.28-.75,.84-.75s.84,.25,.84,.75c0,.24-.07,.43-.21,.56-.14,.13-.35,.2-.63,.2-.56,0-.84-.25-.84-.76Zm1.61,7.12h-1.54v-5.66h1.54v5.66Z"/><path d="M152.68,41.64c0,.92-.24,1.64-.73,2.16s-1.16,.78-2.03,.78c-.54,0-1.02-.12-1.44-.36-.42-.24-.73-.58-.96-1.03-.22-.45-.33-.97-.33-1.56,0-.92,.24-1.64,.72-2.16s1.16-.77,2.04-.77c.54,0,1.02,.12,1.44,.35,.42,.24,.73,.58,.96,1.02,.22,.44,.33,.96,.33,1.55Zm-3.91,0c0,.56,.09,.98,.27,1.27,.18,.29,.48,.43,.9,.43s.71-.14,.89-.43c.18-.29,.27-.71,.27-1.27s-.09-.98-.27-1.26c-.18-.28-.48-.42-.9-.42s-.71,.14-.89,.42c-.18,.28-.27,.7-.27,1.26Z"/><path d="M159.29,44.48h-1.54v-3.31c0-.41-.07-.72-.22-.92-.15-.2-.38-.31-.69-.31-.43,0-.74,.14-.94,.43s-.29,.77-.29,1.44v2.66h-1.54v-5.66h1.18l.21,.72h.09c.17-.27,.41-.48,.71-.62s.64-.21,1.03-.21c.66,0,1.16,.18,1.5,.53,.34,.36,.51,.87,.51,1.54v3.69Z"/><path d="M164.57,44.48l-.3-.77h-.04c-.26,.33-.53,.55-.8,.68-.27,.13-.63,.19-1.08,.19-.54,0-.97-.16-1.28-.47-.31-.31-.47-.75-.47-1.33s.21-1.04,.63-1.33c.42-.28,1.05-.44,1.9-.47l.98-.03v-.25c0-.57-.29-.86-.88-.86-.45,0-.98,.14-1.6,.41l-.51-1.04c.65-.34,1.37-.51,2.17-.51s1.34,.17,1.75,.5c.41,.33,.61,.83,.61,1.51v3.77h-1.08Zm-.46-2.62l-.6,.02c-.45,.01-.78,.09-1,.24-.22,.15-.33,.37-.33,.68,0,.44,.25,.65,.75,.65,.36,0,.64-.1,.86-.31,.21-.21,.32-.48,.32-.82v-.47Z"/><path d="M168.89,44.48h-1.54v-7.88h1.54v7.88Z"/><path d="M104.5,52.96c0,.58-.2,1.02-.61,1.33-.4,.3-1.01,.46-1.81,.46-.41,0-.76-.03-1.05-.08s-.56-.14-.81-.25v-1.28c.29,.13,.61,.25,.97,.34,.36,.09,.68,.14,.95,.14,.56,0,.84-.16,.84-.49,0-.12-.04-.22-.11-.3-.08-.08-.2-.16-.38-.26-.18-.1-.43-.21-.73-.34-.44-.18-.75-.35-.96-.51s-.35-.33-.45-.54c-.09-.2-.14-.45-.14-.74,0-.5,.19-.89,.58-1.17s.94-.41,1.66-.41,1.35,.15,1.99,.45l-.47,1.11c-.28-.12-.55-.22-.79-.3-.25-.08-.5-.12-.75-.12-.46,0-.68,.12-.68,.37,0,.14,.07,.26,.22,.36,.15,.1,.47,.25,.96,.45,.44,.18,.77,.35,.97,.5s.36,.33,.45,.54c.1,.2,.15,.44,.15,.72Z"/><path d="M108.11,54.74c-1.76,0-2.64-.97-2.64-2.9,0-.96,.24-1.7,.72-2.2,.48-.51,1.17-.76,2.06-.76,.65,0,1.24,.13,1.76,.38l-.46,1.19c-.24-.1-.47-.18-.68-.24s-.42-.09-.63-.09c-.8,0-1.2,.57-1.2,1.71s.4,1.66,1.2,1.66c.3,0,.57-.04,.82-.12,.25-.08,.51-.2,.76-.37v1.32c-.25,.16-.5,.27-.76,.33s-.58,.09-.96,.09Z"/><path d="M116.47,54.64h-1.54v-3.31c0-.82-.3-1.23-.91-1.23-.43,0-.74,.15-.94,.44s-.29,.77-.29,1.43v2.66h-1.54v-7.88h1.54v1.61c0,.12-.01,.42-.04,.88l-.04,.45h.08c.34-.55,.89-.83,1.64-.83,.66,0,1.17,.18,1.51,.54,.35,.36,.52,.87,.52,1.54v3.69Z"/><path d="M123.31,51.8c0,.92-.24,1.64-.73,2.16-.49,.52-1.16,.78-2.03,.78-.54,0-1.02-.12-1.44-.36-.42-.24-.73-.58-.96-1.03s-.33-.97-.33-1.56c0-.92,.24-1.64,.72-2.16,.48-.51,1.16-.77,2.04-.77,.54,0,1.02,.12,1.44,.35,.42,.24,.73,.58,.96,1.02,.22,.44,.33,.96,.33,1.55Zm-3.91,0c0,.56,.09,.98,.27,1.27,.18,.29,.48,.43,.9,.43s.71-.14,.89-.43c.18-.28,.27-.71,.27-1.27s-.09-.98-.27-1.26-.48-.42-.9-.42-.71,.14-.89,.42c-.18,.28-.27,.7-.27,1.26Z"/><path d="M129.83,51.8c0,.92-.24,1.64-.73,2.16-.49,.52-1.16,.78-2.03,.78-.54,0-1.02-.12-1.44-.36-.42-.24-.73-.58-.96-1.03s-.33-.97-.33-1.56c0-.92,.24-1.64,.72-2.16,.48-.51,1.16-.77,2.04-.77,.54,0,1.02,.12,1.44,.35,.42,.24,.73,.58,.96,1.02,.22,.44,.33,.96,.33,1.55Zm-3.91,0c0,.56,.09,.98,.27,1.27,.18,.29,.48,.43,.9,.43s.71-.14,.89-.43c.18-.28,.27-.71,.27-1.27s-.09-.98-.27-1.26-.48-.42-.9-.42-.71,.14-.89,.42c-.18,.28-.27,.7-.27,1.26Z"/><path d="M132.75,54.64h-1.54v-7.88h1.54v7.88Z"/></g><g><path d="M102.11,66.59h.96l2.03,6h-.72l-.59-1.73h-2.47l-.58,1.73h-.69l2.06-6Zm-.6,3.69h2.08l-1.04-3.09-1.04,3.09Z"/><path d="M108.37,66.59h.73v5.4h2.74v.6h-3.47v-6Z"/><path d="M112.86,66.83c0-.25,.21-.46,.46-.46s.46,.21,.46,.46-.21,.46-.46,.46-.46-.21-.46-.46Zm.13,1.38h.7v4.39h-.7v-4.39Z"/><path d="M115.39,68.79h-.63v-.59h.63v-.71c0-.89,.44-1.41,1.31-1.41,.23,0,.34,.02,.52,.08v.59c-.13-.05-.3-.09-.49-.09-.45,0-.64,.31-.64,.75v.79h1.07v.59h-1.07v3.8h-.69v-3.8Z"/><path d="M117.88,70.44v-.07c0-1.33,.85-2.25,2.05-2.25,1.01,0,1.97,.61,1.97,2.18v.23h-3.31c.03,1,.51,1.55,1.41,1.55,.68,0,1.07-.25,1.17-.76h.7c-.15,.88-.88,1.34-1.87,1.34-1.24,0-2.12-.87-2.12-2.22Zm3.31-.47c-.07-.91-.54-1.27-1.26-1.27s-1.19,.49-1.31,1.27h2.57Z"/><path d="M123.28,66.59h1.7c1.15,0,2.1,.5,2.1,1.75v.03c0,1.27-.96,1.77-2.1,1.77h-.97v2.44h-.73v-6Zm1.75,2.98c.86,0,1.32-.42,1.32-1.19v-.03c0-.85-.5-1.17-1.32-1.17h-1.02v2.39h1.02Z"/><path d="M128.26,66.11h.7v6.48h-.7v-6.48Z"/><path d="M130.48,70.98v-2.78h.7v2.74c0,.77,.33,1.12,1.01,1.12,.62,0,1.21-.41,1.21-1.2v-2.66h.7v4.39h-.7v-.7c-.2,.41-.69,.77-1.39,.77-.87,0-1.53-.48-1.53-1.69Z"/><path d="M135.32,71.24h.68c.05,.52,.33,.85,1.03,.85,.66,0,.96-.23,.96-.7s-.34-.61-1.02-.74c-1.14-.21-1.53-.53-1.53-1.29,0-.81,.8-1.23,1.48-1.23,.79,0,1.47,.32,1.59,1.27h-.67c-.1-.48-.37-.69-.92-.69-.5,0-.83,.25-.83,.63s.22,.55,1.02,.7c.9,.17,1.54,.37,1.54,1.3,0,.8-.54,1.33-1.61,1.33s-1.68-.53-1.72-1.43Z"/><path d="M139.49,68.38c0-1.03,.82-1.86,1.86-1.86s1.86,.82,1.86,1.85-.82,1.85-1.86,1.85-1.86-.8-1.86-1.85Zm3.39,0c0-.91-.64-1.55-1.53-1.55s-1.53,.65-1.53,1.56,.67,1.54,1.53,1.54,1.53-.64,1.53-1.55Zm-2.16-.94h.64c.43,0,.71,.18,.71,.55h0c0,.29-.16,.44-.38,.5l.49,.78h-.42l-.45-.71h-.19v.71h-.4v-1.84Zm.64,.85c.21,0,.32-.09,.32-.27h0c0-.2-.12-.27-.32-.27h-.23v.54h.23Z"/><path d="M146.52,66.59h.73v6h-.73v-6Z"/><path d="M148.92,68.2h.7v.7c.2-.41,.69-.77,1.41-.77,.9,0,1.54,.5,1.54,1.77v2.69h-.7v-2.74c0-.77-.33-1.11-1.03-1.11-.65,0-1.22,.41-1.22,1.2v2.66h-.7v-4.39Z"/><path d="M154.17,71.49v-2.7h-.63v-.59h.63v-1h.7v1h1.02v.59h-1.02v2.63c0,.43,.19,.64,.54,.64,.22,0,.39-.03,.54-.09v.59c-.14,.05-.31,.09-.6,.09-.8,0-1.18-.47-1.18-1.16Z"/><path d="M156.73,70.44v-.07c0-1.33,.85-2.25,2.05-2.25,1.01,0,1.97,.61,1.97,2.18v.23h-3.31c.03,1,.51,1.55,1.41,1.55,.68,0,1.07-.25,1.17-.76h.7c-.15,.88-.88,1.34-1.87,1.34-1.24,0-2.12-.87-2.12-2.22Zm3.31-.47c-.07-.91-.54-1.27-1.26-1.27s-1.19,.49-1.31,1.27h2.57Z"/><path d="M162.01,68.2h.7v.79c.28-.49,.65-.84,1.44-.86v.65c-.88,.04-1.44,.32-1.44,1.4v2.41h-.7v-4.39Z"/><path d="M165.27,68.2h.7v.7c.2-.41,.69-.77,1.41-.77,.9,0,1.54,.5,1.54,1.77v2.69h-.7v-2.74c0-.77-.33-1.11-1.03-1.11-.64,0-1.22,.41-1.22,1.2v2.66h-.7v-4.39Z"/><path d="M170.11,71.37c0-1.01,1.07-1.36,2.2-1.36h.63v-.32c0-.7-.27-.99-.94-.99-.6,0-.94,.25-1.01,.79h-.7c.09-1,.89-1.37,1.74-1.37s1.6,.35,1.6,1.57v2.89h-.7v-.55c-.33,.41-.72,.63-1.37,.63-.81,0-1.46-.39-1.46-1.29Zm2.83-.32v-.54h-.6c-.88,0-1.53,.22-1.53,.86,0,.45,.22,.74,.83,.74,.74,0,1.3-.38,1.3-1.06Z"/><path d="M175.25,71.49v-2.7h-.63v-.59h.63v-1h.7v1h1.02v.59h-1.02v2.63c0,.43,.19,.64,.54,.64,.22,0,.39-.03,.54-.09v.59c-.14,.05-.31,.09-.6,.09-.8,0-1.18-.47-1.18-1.16Z"/><path d="M178.05,66.83c0-.25,.21-.46,.46-.46s.46,.21,.46,.46-.21,.46-.46,.46-.46-.21-.46-.46Zm.13,1.38h.7v4.39h-.7v-4.39Z"/><path d="M180.11,70.43v-.07c0-1.32,.91-2.24,2.16-2.24s2.16,.91,2.16,2.23v.07c0,1.32-.91,2.24-2.16,2.24s-2.15-.95-2.15-2.23Zm3.59,0v-.06c0-1.01-.56-1.67-1.43-1.67s-1.44,.65-1.44,1.66v.07c0,1,.55,1.65,1.44,1.65s1.43-.66,1.43-1.65Z"/><path d="M185.68,68.2h.7v.7c.2-.41,.69-.77,1.41-.77,.9,0,1.54,.5,1.54,1.77v2.69h-.7v-2.74c0-.77-.33-1.11-1.03-1.11-.65,0-1.22,.41-1.22,1.2v2.66h-.7v-4.39Z"/><path d="M190.52,71.37c0-1.01,1.07-1.36,2.2-1.36h.63v-.32c0-.7-.27-.99-.94-.99-.6,0-.94,.25-1.01,.79h-.7c.09-1,.89-1.37,1.74-1.37s1.6,.35,1.6,1.57v2.89h-.7v-.55c-.33,.41-.72,.63-1.37,.63-.81,0-1.46-.39-1.46-1.29Zm2.83-.32v-.54h-.6c-.88,0-1.53,.22-1.53,.86,0,.45,.22,.74,.83,.74,.74,0,1.3-.38,1.3-1.06Z"/><path d="M195.57,66.11h.7v6.48h-.7v-6.48Z"/><path d="M199.61,70.76h.71c.09,.71,.38,1.32,1.58,1.32,.77,0,1.37-.45,1.37-1.13s-.31-.96-1.45-1.15c-1.26-.19-2-.59-2-1.65,0-.92,.8-1.63,1.93-1.63,1.2,0,1.95,.59,2.06,1.65h-.65c-.14-.75-.58-1.07-1.41-1.07s-1.25,.41-1.25,.97,.22,.89,1.44,1.07c1.33,.21,2.04,.61,2.04,1.74,0,1.01-.88,1.77-2.07,1.77-1.6,0-2.18-.88-2.29-1.9Z"/><path d="M205.06,70.44v-.07c0-1.34,.96-2.25,2.13-2.25,.91,0,1.77,.42,1.9,1.53h-.69c-.11-.7-.61-.96-1.22-.96-.8,0-1.41,.64-1.41,1.67v.07c0,1.07,.59,1.64,1.44,1.64,.62,0,1.18-.36,1.26-1.07h.64c-.09,.95-.86,1.65-1.91,1.65-1.23,0-2.15-.86-2.15-2.22Z"/><path d="M210.33,66.11h.7v2.79c.2-.41,.69-.77,1.41-.77,.9,0,1.54,.5,1.54,1.77v2.69h-.7v-2.74c0-.77-.33-1.11-1.03-1.11-.65,0-1.22,.41-1.22,1.2v2.66h-.7v-6.48Z"/><path d="M215.19,70.43v-.07c0-1.32,.91-2.24,2.16-2.24s2.16,.91,2.16,2.23v.07c0,1.32-.91,2.24-2.16,2.24s-2.15-.95-2.15-2.23Zm3.59,0v-.06c0-1.01-.56-1.67-1.43-1.67s-1.44,.65-1.44,1.66v.07c0,1,.55,1.65,1.44,1.65s1.43-.66,1.43-1.65Z"/><path d="M220.48,70.43v-.07c0-1.32,.91-2.24,2.16-2.24s2.16,.91,2.16,2.23v.07c0,1.32-.91,2.24-2.16,2.24s-2.15-.95-2.15-2.23Zm3.59,0v-.06c0-1.01-.56-1.67-1.43-1.67s-1.44,.65-1.44,1.66v.07c0,1,.54,1.65,1.44,1.65s1.43-.66,1.43-1.65Z"/><path d="M226.07,66.11h.7v6.48h-.7v-6.48Z"/></g></svg>