<svg id="prefix__a" xmlns="http://www.w3.org/2000/svg" viewBox="0 0 226.77 125.7"><defs><style>.prefix__c{fill:#6c2887}.prefix__d{fill:#562f91}</style></defs><path class="prefix__c" d="M25.49 28.05l.07-.1-.1.03c0 .02.02.05.03.07zM41.02 25.91c-.44.05-.88.1-1.32.14h-.01c.45-.04.89-.09 1.34-.14zM43.76 5.72h.02s.01-.03.01-.05c0-.02-.05.02-.03.05zM45.09 67.55h-.1c.04.01.07 0 .1 0zM44.35 25.79s.02.03.03.04h-.01.02c.03.02.08.03.12.02l-.12-.02s.04-.05-.04-.04zM44.01 25.85c-.08.02-.06.01 0 0zM44.17 25.82zM44.15 25.82l-.14.03.14-.03zM44.21 25.81zM46.98 62.24c.2.02.4.04.61.07-.11-.05-.31-.07-.61-.07zM44.17 25.82zM44.38 25.78zM40.79 67.44s.02.04.02.05a.17.17 0 00.06-.06c0-.03-.06-.02-.08.01zM46.41 62.3s.04-.04.04-.03h-.04c-.03 0-.02.02 0 .04zM38.62 67.14s-.05 0 0 0zM41.33 67.06s-.01-.07-.03-.08c-.02.02-.03.09.03.08zM43.82 66.78s-.02.06-.02.09c-.01.16.19.06.02-.09zM44.06 62.38l.06.06c.02-.02 0-.09-.06-.06zM47.95 62.49h.02s-.02-.03-.03-.04v.04z"/><path class="prefix__d" d="M51.16 62.73l.03-.02c-.13-.14-.09.02-.03.02z"/><path class="prefix__c" d="M31.15 81.49c-.03.13.06 0 0 0zM36.92 47.81s-.08-.03-.03.11c.02.04.03.09.05.13.78-1.63.06-.8-.02-.24z"/><path class="prefix__d" d="M50.23 63.01s-.03.03-.04.05c.02.01.12-.02.04-.05z"/><path class="prefix__c" d="M48.3 66.2h-.06c0 .02.16 0 .06 0z"/><path class="prefix__d" d="M49.76 62.76c.3.21-.03-.16 0 0z"/><path class="prefix__c" d="M9.37 19.54c.61-.14 1.63-.63 2.09-1.06.95-.89.18-.54.69-1.05.69-.69 1.77-1.22 2.68-1.56 1.41-.52 1.77-.53 2.79.64.9 1.04 1.47 1.74 2.64 2.43.38.23.91.84 1.39.81.44-.02.29-.57.82-.46.31-.82.84-1.6 1.06-2.45.25-.95 0-1.54.11-2.46.18-1.43.09-1.22 1.43-1.8 1.62-.7 1.87-1.38 2.66-2.87.88-1.65 1.46-1.45 3-2.21-1.37-.74-3.42-.89-4.94-.88-.96 0-1.94.14-2.9.2-.37.02-1.34.21-1.64.08-.41-.18-1.45-1.62-1.81-1.98-.82-.85-.93-1.41-2.19-1.48-.94-.05-1.49.14-2.02.98-.83 1.32.23 2.41-.38 3.57-.42.8-3.51 1.68-4.35 1.79-1.37.19-2.85-.6-4.01.57-.86.86-.73 2.58-1.07 3.68-.53 1.73-1.08 2.15.18 3.78.97 1.27 2.14 2.08 3.77 1.72zM23.37 28.82zM23.41 28.81s.01 0 0 0zM24.27 28.72l-1 .11-.63.21c.08.26 1.45-.24 1.63-.32zM23.28 28.83zM44.15 26.23c.04-.11-.65.07-.7.11.27.16.5.12.7-.11z"/><path class="prefix__c" d="M43.45 26.34c-.07.06.25.13 0 0zM39.56 18.75l.33-.3q-.31.1-.33.3zM42.67 26.11c-.47.33.62.15 0 0z"/><path class="prefix__c" d="M42.67 26.11c.08.02.08-.06 0 0zM39.63 26.65c.17-.2-.11-.19 0 0z"/><path class="prefix__d" d="M95.59 50.55h-.01v.04s.02-.03 0-.04z"/><path d="M103.6 52.31c-.97.55-1.36-.18-2.7-.61-1.65-.54-3.21-.88-4.98-1.04.29-.04.56-.16.79-.34-5.62-.3-11.32.5-16.94.55-2.43.02-4.79-.09-7.14-.29-.32-.14-.69-.18-1.04-.22l-5.27-.48c-.62-.08-1.23-.17-1.86-.26v.09c-7.01-.64-14.03-1.28-21.04-1.91l5.3-7.13c.68-.91 1.59-1.93 2.72-1.78.97.13 1.86 1.11 2.77.46.26-.18.44-.46.54-.76.39-1.15.94-2.62.25-3.7-.87-1.35-2.92-1.09-4.3-1.91-1.25-.75-1.75-2.27-2.61-3.45-.85-1.18-2.7-2.01-3.69-.95-.63.68-.52 1.75-.83 2.63-.87 2.47-4.32 2.46-6.89 1.99-.85-2.08-.39-4.63 1.14-6.27a.97.97 0 00.27-.47c.02-.09.03-.16.03-.23l1.59-.17c1.38-.71 3.02-.55 4.56-.25l.1.02-.02-.04h.04l.32-.06c.01.09-.1.13-.2.13.08.02.16.03.23.05 1.68.36 3.46.77 5.09.2s2.86-2.58 1.96-4.05c-.76-1.24-2.47-1.39-3.92-1.4-2.27-.02-4.53-.04-6.8-.05 4.28-1.56 6.38-6.49 10.32-8.77 1.27-.74 2.69-1.17 4.1-1.6l7.7-2.34c-2.83-3.1-9-.25-11.69-3.47-.7-.83-.99-1.93-1.54-2.86C49.41.64 48.38-.2 47.33.06c-1.77.45-1.58 3.12-2.76 4.51-1.86 2.18-5.54.1-8.25 1.03-2.4.82-3.29 4.24-1.8 6.28s4.74 2.37 6.78.86c-.04 1.85-.44 3.68-1.19 5.37-.32.73-.73 1.46-1.38 1.91-.72.5-1.63.6-2.49.7l-17.16 1.8c-2.49.26-5.57 1.03-6.05 3.49-.54 2.77 3.03 4.7 5.82 4.26 2.31-.36 4.4-1.62 6.63-2.29-.07-.22.05-.22.24-.23l-.14.2c.43-.12.86-.23 1.31-.3.47-.07.97-.1 1.37.15.34.21.55.59.7.96.73 1.76.72 3.93-.71 5.36-.65.65-1.54 1.03-2.46.96-1.85-.13-2.7-1.85-3.91-3.02-1.04-1.01-3.01-1.5-3.76-.26-.73 1.2.37 3.05-.62 4.04-.42.42-1.07.5-1.64.68-1.84.58-3.09 2.62-2.79 4.52.3 1.91 2.13 3.45 4.06 3.43.73 0 1.5-.2 2.15.11.57.27.91.86 1.18 1.43.63 1.33 1.09 2.74 1.35 4.18-4.68 1.27-9.36 2.53-14.04 3.8-2.08.56-4.24 1.17-5.87 2.59-.81.71-1.43 1.65-1.73 2.68-.31 1.05-.04 1.96-.05 3.01-.02 1.98 1.97 3.19 3.83 2.95 1.74-.22 3.21-1.35 4.66-2.35 6-4.16 13.1-6.73 20.38-7.39.33-.03.69-.05.96.15.29.21.37.6.42.96.28 1.89.34 3.82.16 5.73-2.06.69-4.28.56-6.45.72-2.16.16-4.47.72-5.86 2.39-1.39 1.67-1.2 4.69.79 5.55 3.42 1.48 7.2-4.38 10.36-2.4 1.42.89 1.61 2.86 1.64 4.54v.17c-.02-.04-.05-.1-.08-.18-.1.57-.07.77.09.59 0 .15 0 .3.01.45 0-.01-.01-.03-.02-.04l-.1.25h.02c.05-.01.09-.03.11-.05.12 4.26.43 10.71.42 13.97.03.47-.19 4.91-.12 6.19l.68 10.8c0 .05-.02.11-.02.17-.02.08.02.18.1.22l.02-.19c.16.06.3.23.38.41.01.28-.33.24.08.37 0 .19-.06.34-.23.37.49.63.53.02.83-.29.05-.05.53-.41.38-.26.11-.11.35 0 .51.01.04.47-.33 1.01 0 1.24.37.26-.02-.45.43.1.02-.35.17-.69.29-.99.04.16.13.28.27.42-.05.04-.09.14-.15.18.12.14.23.23.4.17.02-.03.04-.06.05-.09.09.08.18.17.29.28.03-.11.22-.49.32-.57.05.14.14.25.28.32.06-.11.23-1.35.18-1.97h.01c.27-2.69.62-6.28.55-6.6.28-3.74.1-10.69.1-12.25 0-1.34 0-8.05-.1-9.64-.25-4.01-.14-6.34.88-9.31 2.03.61 4.24.62 6.28.06-.05.04-.08.09.04.23.31-.08.36-.18.17-.29.19-.06.39-.12.58-.19.22-.13.31.32.15.4 2.26-.08 4.5-.65 6.52-1.66-.45.19-.81-.55-.53-.94.29-.39.84-.46 1.33-.49l-1.51-1.03c.99.49 2.21.44 3.16-.11a7.04 7.04 0 00-5.19-.82c-.43-.07-.86-.13-1.29-.19.18.08.13.22-.16.43 0-.05-.08.31-.24-.01.27.02-.41-.29-.38-.49h.18c-2.75-.31-5.52-.32-8.27-.04-.81.08-1.81.1-2.22-.6-.18-.3-.19-.67-.19-1.02 0-1.74.26-3.47.73-5.14.14-.51.32-1.03.71-1.39.69-.65 1.78-.55 2.72-.41 5.69.85 11.37 1.71 17.06 2.56l15.73 5.66v-.04c.96.46 1.94.85 3.02.95 2.73.27 5.84-.44 8.62-1.62-.04-.14-.06-.29-.05-.44.31-.13.64-.21.97-.24.88-.5 1.87-.8 2.83-1 1.76-.37 3.86-.4 5.58-1.05 1.71-.65 3.25-2.06 4.92-2.91.25-.13 2.63-1.05 1.87-1.39.7-.16 2.24.4 2.79-.11.99-.94-.27-1.05-.18-1.7zM48.2 25.89c-.34.15-.62.08-.98.05q.61-.28.98-.05zM43.79 5.67s0 .03-.01.06c0 0-.01 0-.02-.01l-.17-.12c.15-.03.22 0 .2.07zm-15 43.61c-.38.18-4.37.82-4.35.12.27-.3.46-.25.56.15.32-2.42-.03-5.24.84-7.37-1.2-.78 1.88-1.37 2.36-1.34 2.08.12 1.4 2.21 1.45 3.83.05 1.56.84 3.79-.86 4.61zm22.39 13.43s-.02.02-.03.02c-.09.05-.3.17-.27.04.05-.2.15-.22.3-.06zm-.87.99c-.04-.13-.19-.49-.12-.64-.01 0 0-.02.04-.05.48.19 0 .46.08.69zm.17-.96c-.22.23-.46.23-.72.02-.09-.41.47.03.72-.02zm-2.24 3.46h.06c1.72-.07-.16.89-.06 0zm-.41-3.34h.55c-.18.13-.32.17-.55 0zm.11-.41s.01.01.03.04h-.18c.05-.08.1-.09.15-.04zm-1.52-.18h.04c0 .06-.02.05-.04.03-.07.06-.21.2-.19.08.03-.11.1-.15.2-.12zm-1.91.07c-.09.2-.22.24-.38.11 0 .01-.03 0-.06-.06-.12.07.38-.3.45-.05zm-.68 4.44s.51.01.64.25c-.47.1-.69.05-.66-.16 0-.02 0-.05.02-.09zm-2.51.29s-.02 0 0 0zm.43-.03zm-.44-.05s.03 0 .03.08l-.35.03c.05-.09.25-.18.32-.11zm-.53.25c.09-.07.19.08.1.2 0 .01-.02.03-.06.06s-.02-.04-.01-.05c-.02-.07-.06-.17-.02-.22zm-2.14-.09c-.39 0 .02-.17 0 0zm-4.01 38.06l-.02.02s-.02-.01-.03-.02h.04zm5.71-63.87c-.81 2.35-2.31 4.48-3.38 6.71a.428.428 0 01-.05-.13c-.74-1.68-.12-3.95.11-5.67.26-1.89-.23-2.39 1.51-2.8 2.01-.46 2.42.14 1.82 1.88zm55.25 9.26v-.05h.01l.23.07c-.14.06-.22.04-.24-.03z" fill="#6c2888"/><path class="prefix__d" d="M104.74 52.09c.09.59.26.69.69.43-.15-.25-.43-.43-.69-.43zM105.4 52.01c.09.22.13.17.1.09.21.15.65.4.61.14a.808.808 0 00-.71-.23zM103.83 52.48h.03c-.02-.01-.03-.01-.03 0z"/><path class="prefix__d" d="M103.86 52.48h-.03c.02.11.08.09.1.06.17.16.52.47.57.02a.821.821 0 00-.65-.09zM101.47 51.28s.06-.01.1-.03c-.18-.07-.69-.44-.81-.05.23.11.47.14.71.08zM107.27 52.17q.21.21.31-.03l-.31.03zM101.96 51.55c.14-.05.11-.22 0-.3.01.04.02.12 0 .3zM101.92 51.24s.02 0 .03.02c0-.03-.02-.03-.04-.03.02 0 .02.01 0 .02z"/><path class="prefix__d" d="M101.84 51.23s.06.01.08 0c0 0-.02 0-.02-.01h.02s-.04-.01-.09 0c0 0 .01.01.02.01zM98.21 50.4c.38.18.29-.35 0 0zM98.95 50.22c-.01.08-.03.18-.05.32.54-.23.58-.37.1-.41 0-.08-.02-.07-.04.03-.07.05-.15.08-.23.06.1.03.17.03.22 0z"/><path class="prefix__d" d="M98.73 50.22s-.08-.02-.14-.04c.05.03.09.04.14.04zM100.93 50.4c-.08.03.08.34 0 0zM106.53 51.76c.1-.15-.15-.08 0 0zM103 52.26l-.25.1c.14-.03.16.08.25-.1zM34.92 110.22c.16.08.05-.14 0 0zM33.87 109.3s0 .1 0 0z"/><path class="prefix__d" d="M35.82 110.58c-.03-.45-.14-1.6-.69-1.62 0 .56-.61.84-.63.38-.02-.56.38-.3.33-.87-.33.21-.64-.59-1.13.17-.21.32 0 1.1.03 1.4.03.28 0 2.67.56 2.62.03-.59 0-.83.38-1.27.42.59-.08 1.09.68 1.65.06-.03.24-1.29.24-1.5 0-.93-.45-.86.23-.95zm-2-.97c-.14-.21-.12-.31.06-.31.12.21.1.31-.06.31zm.89 1.13c-.21-.21-.26-.45-.16-.73.41.09.47.34.16.73zm.21-.52l.13-.4c.31.07.2.55-.13.4z"/><path class="prefix__d" d="M34.55 110c-.11.29.11.06 0 0zM32.78 107.82c-.42.55-.14 1.22.25 1.82.79-.28.05-1.48-.25-1.82zM33.66 112.04s.03-.02.05-.03c-1.14-2.24-.59.19-.08.04h.03zM33.03 109.87c.03.35 0 .68.04 1.02.62-.12.31-.78-.04-1.02zM35.92 107.64c.27.1.08.2.07.35v.03l.33.25c-.1-.5.71-.93-.39-.64zM33.88 106.1c-.22.36-.45.11-.41.51l.2-.1.1.31a.91.91 0 00.12-.72z"/><path class="prefix__d" d="M33.66 106.52c-.06.03.03.09 0 0zM34.55 107.66c-.42.09-.93.02-.45.46.17-.13.32-.29.45-.46zM35.64 107.38c-.02.06-.24.22-.14.36.19-.07.24-.19.14-.36zM35.29 108.81l.1-.34h-.05c-.19 0-.09.22-.05.34zM32.79 107.82s-.03-.08-.05-.12c-.05.12-.03.17.05.12z"/><path class="prefix__d" d="M32.74 107.7c.03-.07.07-.16.13-.27-.16-.03-.2.06-.13.27zM35.18 107.98c.1.02.2.02.31-.02 0-.15-.11-.15-.31.02a.285.285 0 01-.06-.14c-.02.07 0 .12.06.14zM35.12 107.84c.02-.05.05-.12.11-.2-.08.06-.12.13-.11.2zM34.89 109.31c.13.09.06-.15 0 0z"/><g><path d="M55.03 70.43h2.1l1.33 3.96c.11.34.19.75.23 1.22h.04c.05-.43.14-.84.27-1.22l1.3-3.96h2.06l-2.98 7.94c-.27.73-.66 1.28-1.17 1.65s-1.1.55-1.77.55c-.33 0-.66-.04-.97-.11v-1.52c.23.05.48.08.75.08.34 0 .64-.1.89-.31s.45-.52.59-.94l.11-.35-2.79-6.99zM67.97 77.46l-.37-.96h-.05c-.32.41-.66.69-1 .85s-.79.24-1.34.24c-.68 0-1.21-.19-1.6-.58-.39-.39-.58-.93-.58-1.65s.26-1.3.78-1.65 1.31-.55 2.36-.59l1.22-.04v-.31c0-.71-.36-1.07-1.09-1.07-.56 0-1.22.17-1.98.51l-.64-1.3c.81-.42 1.71-.63 2.69-.63s1.67.21 2.17.62c.5.41.76 1.04.76 1.87v4.69h-1.34zm-.57-3.26l-.74.02c-.56.02-.97.12-1.25.3-.27.19-.41.47-.41.84 0 .54.31.81.93.81.44 0 .8-.13 1.07-.38.27-.26.4-.6.4-1.02v-.58zM77.91 77.46h-1.92v-4.11c0-.51-.09-.89-.27-1.14-.18-.25-.47-.38-.86-.38-.54 0-.92.18-1.16.54-.24.36-.36.95-.36 1.78v3.31h-1.92v-7.04h1.47l.26.9h.11c.21-.34.51-.6.88-.77.38-.17.8-.26 1.28-.26.82 0 1.44.22 1.86.66.42.44.64 1.08.64 1.92v4.59zM82.97 76.06c.33 0 .74-.07 1.21-.22v1.43c-.48.21-1.07.32-1.76.32-.77 0-1.33-.19-1.68-.58-.35-.39-.52-.97-.52-1.75v-3.39h-.92v-.81l1.06-.64.55-1.48h1.23v1.5h1.97v1.44h-1.97v3.39c0 .27.08.48.23.6s.36.19.61.19zM90.2 77.46l-.37-.96h-.05c-.32.41-.66.69-1 .85s-.79.24-1.34.24c-.68 0-1.21-.19-1.6-.58-.39-.39-.58-.93-.58-1.65s.26-1.3.78-1.65 1.31-.55 2.36-.59l1.22-.04v-.31c0-.71-.36-1.07-1.09-1.07-.56 0-1.22.17-1.98.51l-.64-1.3c.81-.42 1.71-.63 2.69-.63s1.67.21 2.17.62c.5.41.76 1.04.76 1.87v4.69h-1.34zm-.57-3.26l-.74.02c-.56.02-.97.12-1.25.3-.27.19-.41.47-.41.84 0 .54.31.81.93.81.44 0 .8-.13 1.07-.38.27-.26.4-.6.4-1.02v-.58zM93.56 68.61c0-.63.35-.94 1.04-.94s1.05.31 1.05.94c0 .3-.09.53-.26.7s-.44.25-.78.25c-.7 0-1.04-.32-1.04-.94zm2 8.85h-1.92v-7.04h1.92v7.04zM107.68 77.46h-1.92v-4.11c0-1.01-.38-1.52-1.13-1.52-.54 0-.92.18-1.16.55s-.36.96-.36 1.77v3.31h-1.92v-9.79h1.92v1.99c0 .16-.02.52-.04 1.1l-.05.57h.1c.43-.69 1.11-1.03 2.04-1.03.83 0 1.45.22 1.88.67s.64 1.08.64 1.91v4.59zM114.76 77.46l-.26-.9h-.1c-.21.33-.5.58-.87.76-.38.18-.81.27-1.29.27-.83 0-1.45-.22-1.87-.66s-.63-1.08-.63-1.91v-4.59h1.92v4.11c0 .51.09.89.27 1.14.18.25.47.38.86.38.54 0 .92-.18 1.16-.54s.36-.95.36-1.78v-3.31h1.92v7.04h-1.47zM122.85 77.46l-.37-.96h-.05c-.32.41-.66.69-1 .85s-.79.24-1.34.24c-.68 0-1.21-.19-1.6-.58s-.58-.93-.58-1.65.26-1.3.78-1.65c.52-.35 1.31-.55 2.36-.59l1.22-.04v-.31c0-.71-.36-1.07-1.09-1.07-.56 0-1.22.17-1.98.51l-.63-1.3c.81-.42 1.71-.63 2.69-.63s1.67.21 2.17.62c.5.41.76 1.04.76 1.87v4.69h-1.34zm-.57-3.26l-.74.02c-.56.02-.97.12-1.25.3-.27.19-.41.47-.41.84 0 .54.31.81.93.81.44 0 .8-.13 1.07-.38.27-.26.4-.6.4-1.02v-.58zM131.2 75.37c0 .72-.25 1.27-.75 1.65s-1.25.57-2.25.57c-.51 0-.95-.03-1.31-.1s-.7-.17-1.01-.3v-1.58c.36.17.76.31 1.2.42.45.11.84.17 1.18.17.7 0 1.05-.2 1.05-.6a.53.53 0 00-.14-.37c-.09-.09-.25-.2-.48-.32-.23-.12-.53-.26-.91-.42-.54-.23-.94-.44-1.19-.63a1.71 1.71 0 01-.55-.66 2.29 2.29 0 01-.17-.92c0-.62.24-1.11.73-1.45.48-.34 1.17-.51 2.06-.51s1.67.18 2.47.55l-.58 1.38c-.35-.15-.68-.27-.99-.37-.31-.1-.62-.14-.94-.14-.57 0-.85.15-.85.46 0 .17.09.32.27.45.18.13.58.31 1.2.56.55.22.95.43 1.21.62s.44.41.57.67c.12.25.18.55.18.9zM139.32 77.46h-1.92v-4.11c0-1.01-.38-1.52-1.13-1.52-.54 0-.92.18-1.16.55s-.36.96-.36 1.77v3.31h-1.92v-9.79h1.92v1.99c0 .16-.02.52-.04 1.1l-.05.57h.1c.43-.69 1.11-1.03 2.04-1.03.83 0 1.45.22 1.88.67s.64 1.08.64 1.91v4.59zM144.61 77.59c-1.13 0-2.02-.31-2.66-.94-.64-.62-.96-1.51-.96-2.66s.3-2.09.89-2.73c.59-.64 1.4-.97 2.44-.97s1.77.28 2.32.85c.55.57.83 1.35.83 2.35v.93h-4.54c.02.54.18.97.48 1.28s.73.46 1.27.46c.42 0 .82-.05 1.2-.13.38-.09.77-.23 1.18-.42v1.49c-.33.17-.7.29-1.08.37-.38.08-.85.12-1.4.12zm-.27-5.93c-.41 0-.73.13-.95.39-.23.26-.36.62-.4 1.1h2.69c0-.48-.13-.84-.37-1.1-.24-.26-.56-.39-.97-.39zM155.66 77.46h-1.92v-4.11c0-.51-.09-.89-.27-1.14-.18-.25-.47-.38-.86-.38-.54 0-.92.18-1.16.54s-.36.95-.36 1.78v3.31h-1.92v-7.04h1.47l.26.9h.11c.21-.34.51-.6.89-.77.38-.17.8-.26 1.28-.26.82 0 1.44.22 1.86.66s.64 1.08.64 1.92v4.59zM163.91 77.47c0 1.01-.29 1.78-.88 2.3s-1.47.78-2.63.78c-1.03 0-1.9-.14-2.63-.42v-1.54c.85.36 1.77.54 2.74.54s1.48-.53 1.48-1.6v-.14l.06-.86h-.06c-.45.69-1.11 1.04-2 1.04s-1.5-.32-1.96-.97c-.46-.65-.7-1.54-.7-2.66s.24-2.05.72-2.7c.48-.64 1.14-.97 1.98-.97s1.54.34 2.04 1.03h.05l.16-.9h1.62v7.05zm-3.23-1.39c.52 0 .89-.15 1.11-.44s.33-.78.33-1.44v-.23c0-.75-.12-1.29-.35-1.62-.23-.33-.61-.49-1.12-.49-.9 0-1.35.71-1.35 2.13 0 .7.11 1.23.34 1.58s.57.52 1.05.52zM55.96 83.82c0-.63.35-.94 1.04-.94s1.05.31 1.05.94c0 .3-.09.53-.26.7s-.44.25-.78.25c-.7 0-1.04-.32-1.04-.94zm2 8.85h-1.92v-7.04h1.92v7.04zM66.6 92.68h-1.92v-4.11c0-.51-.09-.89-.27-1.14-.18-.25-.47-.38-.86-.38-.54 0-.92.18-1.16.54-.24.36-.36.95-.36 1.78v3.31h-1.92v-7.04h1.47l.26.9h.11c.21-.34.51-.6.88-.77.38-.17.8-.26 1.28-.26.82 0 1.44.22 1.86.66.42.44.64 1.08.64 1.92v4.59zM71.67 91.27c.33 0 .74-.07 1.21-.22v1.43c-.48.21-1.07.32-1.76.32-.77 0-1.33-.19-1.68-.58-.35-.39-.52-.97-.52-1.75v-3.39H68v-.81l1.06-.64.55-1.48h1.23v1.5h1.97v1.44h-1.97v3.39c0 .27.08.48.23.6s.36.19.61.19zM77.61 92.8c-1.13 0-2.02-.31-2.66-.94-.64-.62-.96-1.51-.96-2.66s.29-2.09.88-2.73 1.4-.97 2.44-.97 1.77.28 2.32.85c.55.57.83 1.35.83 2.35v.93h-4.54c.02.54.18.97.48 1.28s.73.46 1.27.46c.42 0 .82-.05 1.2-.13.38-.09.77-.23 1.18-.42v1.49c-.34.17-.69.29-1.08.37-.38.08-.85.12-1.4.12zm-.27-5.93c-.41 0-.73.13-.96.39-.23.26-.36.62-.4 1.1h2.69c0-.48-.13-.84-.37-1.1-.24-.26-.56-.39-.97-.39zM86.09 85.51c.26 0 .48.02.65.06l-.15 1.8c-.15-.04-.34-.06-.57-.06-.61 0-1.09.16-1.43.47s-.51.76-.51 1.32v3.58h-1.92v-7.04h1.45l.28 1.18h.09c.22-.4.51-.71.88-.95s.78-.36 1.21-.36zM94.64 92.68h-1.92v-4.11c0-.51-.09-.89-.27-1.14-.18-.25-.47-.38-.86-.38-.54 0-.92.18-1.16.54-.24.36-.36.95-.36 1.78v3.31h-1.92v-7.04h1.47l.26.9h.11c.21-.34.51-.6.88-.77.38-.17.8-.26 1.28-.26.82 0 1.44.22 1.86.66.42.44.64 1.08.64 1.92v4.59zM101.21 92.68l-.37-.96h-.05c-.32.41-.66.69-1 .85s-.79.24-1.34.24c-.67 0-1.2-.19-1.59-.58-.39-.39-.58-.93-.58-1.65s.26-1.3.78-1.65 1.31-.55 2.36-.59l1.22-.04v-.31c0-.71-.36-1.07-1.09-1.07-.56 0-1.22.17-1.98.51l-.64-1.3c.81-.42 1.71-.63 2.69-.63s1.67.21 2.17.62c.5.41.76 1.04.76 1.87v4.69h-1.34zm-.57-3.26l-.74.02c-.56.02-.97.12-1.24.3-.27.19-.41.47-.41.84 0 .54.31.81.93.81.44 0 .8-.13 1.07-.38.26-.26.4-.6.4-1.02v-.58zM107.62 91.27c.33 0 .74-.07 1.21-.22v1.43c-.48.21-1.06.32-1.76.32-.77 0-1.33-.19-1.68-.58-.35-.39-.53-.97-.53-1.75v-3.39h-.92v-.81l1.06-.64.55-1.48h1.23v1.5h1.97v1.44h-1.97v3.39c0 .27.08.48.23.6.15.13.35.19.61.19zM110.3 83.82c0-.63.35-.94 1.05-.94s1.05.31 1.05.94c0 .3-.09.53-.26.7-.17.17-.44.25-.78.25-.7 0-1.05-.32-1.05-.94zm2 8.85h-1.92v-7.04h1.92v7.04zM120.84 89.15c0 1.15-.3 2.04-.91 2.69-.6.65-1.44.97-2.52.97-.68 0-1.27-.15-1.79-.44s-.91-.72-1.19-1.27c-.28-.55-.41-1.2-.41-1.94 0-1.15.3-2.04.9-2.68s1.44-.96 2.53-.96c.68 0 1.27.15 1.79.44s.91.71 1.19 1.27c.28.55.41 1.19.41 1.93zm-4.87 0c0 .7.11 1.22.34 1.58s.6.53 1.12.53.88-.18 1.11-.53.34-.88.34-1.58-.11-1.22-.34-1.57c-.23-.35-.6-.52-1.11-.52s-.88.17-1.11.52-.34.87-.34 1.57zM129.05 92.68h-1.92v-4.11c0-.51-.09-.89-.27-1.14-.18-.25-.47-.38-.86-.38-.54 0-.92.18-1.16.54s-.36.95-.36 1.78v3.31h-1.92v-7.04h1.47l.26.9h.11c.21-.34.51-.6.89-.77.38-.17.8-.26 1.28-.26.82 0 1.44.22 1.86.66s.64 1.08.64 1.92v4.59zM135.61 92.68l-.37-.96h-.05c-.32.41-.66.69-1 .85s-.79.24-1.34.24c-.68 0-1.21-.19-1.6-.58s-.58-.93-.58-1.65.26-1.3.78-1.65c.52-.35 1.31-.55 2.36-.59l1.22-.04v-.31c0-.71-.36-1.07-1.09-1.07-.56 0-1.22.17-1.98.51l-.63-1.3c.81-.42 1.71-.63 2.69-.63s1.67.21 2.17.62c.5.41.76 1.04.76 1.87v4.69h-1.34zm-.57-3.26l-.74.02c-.56.02-.97.12-1.25.3-.27.19-.41.47-.41.84 0 .54.31.81.93.81.44 0 .8-.13 1.07-.38.27-.26.4-.6.4-1.02v-.58zM140.98 92.68h-1.92v-9.79h1.92v9.79zM151.51 90.59c0 .72-.25 1.27-.75 1.65s-1.25.57-2.25.57c-.51 0-.95-.03-1.31-.1s-.7-.17-1.01-.3v-1.58c.36.17.76.31 1.2.42.45.11.84.17 1.18.17.7 0 1.05-.2 1.05-.6a.53.53 0 00-.14-.37c-.09-.09-.25-.2-.48-.32-.23-.12-.53-.26-.91-.42-.54-.23-.94-.44-1.19-.63a1.71 1.71 0 01-.55-.66 2.29 2.29 0 01-.17-.92c0-.62.24-1.11.73-1.45.48-.34 1.17-.51 2.06-.51s1.67.18 2.47.55l-.58 1.38c-.35-.15-.68-.27-.99-.37-.31-.1-.62-.14-.94-.14-.57 0-.85.15-.85.46 0 .17.09.32.27.45.18.13.58.31 1.2.56.55.22.95.43 1.21.62s.44.41.57.67c.12.25.18.55.18.9zM155.99 92.8c-2.19 0-3.28-1.2-3.28-3.6 0-1.2.3-2.11.89-2.74.6-.63 1.45-.95 2.56-.95.81 0 1.54.16 2.19.48l-.57 1.49c-.3-.12-.58-.22-.84-.3a2.64 2.64 0 00-.78-.12c-1 0-1.5.71-1.5 2.13s.5 2.06 1.5 2.06c.37 0 .71-.05 1.03-.15s.63-.25.94-.46v1.64c-.31.2-.62.33-.94.41-.32.08-.71.11-1.2.11zM166.38 92.68h-1.92v-4.11c0-1.01-.38-1.52-1.13-1.52-.54 0-.92.18-1.16.55s-.36.96-.36 1.77v3.31h-1.92v-9.79h1.92v1.99c0 .16-.02.52-.04 1.1l-.05.57h.1c.43-.69 1.11-1.03 2.04-1.03.83 0 1.45.22 1.88.67s.64 1.08.64 1.91v4.59zM174.88 89.15c0 1.15-.3 2.04-.91 2.69-.6.65-1.44.97-2.52.97-.68 0-1.27-.15-1.79-.44s-.91-.72-1.19-1.27c-.28-.55-.41-1.2-.41-1.94 0-1.15.3-2.04.9-2.68s1.44-.96 2.53-.96c.68 0 1.27.15 1.79.44s.91.71 1.19 1.27c.28.55.41 1.19.41 1.93zm-4.86 0c0 .7.11 1.22.34 1.58s.6.53 1.12.53.88-.18 1.11-.53.34-.88.34-1.58-.11-1.22-.34-1.57c-.23-.35-.6-.52-1.11-.52s-.88.17-1.11.52-.34.87-.34 1.57zM182.99 89.15c0 1.15-.3 2.04-.91 2.69-.6.65-1.44.97-2.52.97-.68 0-1.27-.15-1.79-.44s-.91-.72-1.19-1.27c-.28-.55-.41-1.2-.41-1.94 0-1.15.3-2.04.9-2.68s1.44-.96 2.53-.96c.68 0 1.27.15 1.79.44s.91.71 1.19 1.27c.28.55.41 1.19.41 1.93zm-4.86 0c0 .7.11 1.22.34 1.58s.6.53 1.12.53.88-.18 1.11-.53.34-.88.34-1.58-.11-1.22-.34-1.57c-.23-.35-.6-.52-1.11-.52s-.88.17-1.11.52-.34.87-.34 1.57zM186.62 92.68h-1.92v-9.79h1.92v9.79z"/></g><g><path d="M58.23 105.05h1.29l2.74 8.11h-.97l-.79-2.34h-3.34l-.78 2.34h-.93l2.79-8.11zm-.8 4.99h2.81l-1.41-4.17-1.41 4.17zM66.69 105.05h.99v7.3h3.71v.81H66.7v-8.11zM72.76 105.37c0-.34.28-.62.62-.62s.62.29.62.62-.28.62-.62.62-.62-.28-.62-.62zm.17 1.86h.94v5.93h-.94v-5.93zM76.18 108.03h-.85v-.79h.85v-.96c0-1.2.59-1.9 1.77-1.9.31 0 .46.03.7.11v.79c-.17-.07-.41-.13-.67-.13-.61 0-.86.42-.86 1.02v1.06h1.45v.79h-1.45v5.13h-.94v-5.13zM79.55 110.26v-.09c0-1.79 1.15-3.04 2.78-3.04 1.37 0 2.66.83 2.66 2.95v.31h-4.47c.05 1.35.69 2.1 1.9 2.1.92 0 1.45-.34 1.58-1.03h.94c-.2 1.19-1.19 1.81-2.53 1.81-1.68 0-2.87-1.18-2.87-3zm4.48-.63c-.09-1.22-.73-1.71-1.7-1.71s-1.61.66-1.77 1.71h3.47zM86.86 105.05h2.3c1.55 0 2.83.68 2.83 2.37v.04c0 1.72-1.29 2.39-2.83 2.39h-1.32v3.3h-.99v-8.11zm2.37 4.02c1.16 0 1.78-.57 1.78-1.61v-.04c0-1.15-.68-1.58-1.78-1.58h-1.38v3.23h1.38zM93.59 104.4h.95v8.76h-.95v-8.76zM96.58 110.98v-3.75h.94v3.71c0 1.04.44 1.51 1.37 1.51.84 0 1.63-.55 1.63-1.62v-3.59h.94v5.93h-.94v-.94c-.27.56-.93 1.04-1.88 1.04-1.18 0-2.06-.65-2.06-2.28zM103.13 111.34h.92c.07.7.44 1.14 1.39 1.14.9 0 1.29-.31 1.29-.94s-.46-.83-1.38-1c-1.54-.28-2.06-.71-2.06-1.74 0-1.1 1.08-1.67 2.01-1.67 1.07 0 1.98.43 2.14 1.71h-.91c-.14-.65-.5-.93-1.25-.93-.68 0-1.12.34-1.12.85s.3.75 1.38.94c1.22.23 2.09.5 2.09 1.76 0 1.08-.74 1.8-2.18 1.8s-2.27-.71-2.33-1.93zM108.77 107.47c0-1.39 1.11-2.52 2.52-2.52s2.52 1.11 2.52 2.5-1.11 2.51-2.52 2.51-2.52-1.08-2.52-2.5zm4.58-.01c0-1.24-.86-2.1-2.06-2.1s-2.06.87-2.06 2.11.91 2.09 2.06 2.09 2.06-.86 2.06-2.1zm-2.93-1.27h.87c.58 0 .95.24.95.75 0 .38-.21.59-.51.68l.66 1.05h-.57l-.6-.96h-.26v.96h-.54v-2.48zm.86 1.15c.29 0 .43-.13.43-.36 0-.27-.16-.36-.43-.36h-.32v.73h.32zM118.28 105.05h.98v8.11h-.98v-8.11zM121.52 107.23h.94v.94c.27-.55.93-1.04 1.9-1.04 1.22 0 2.09.67 2.09 2.39v3.64h-.94v-3.71c0-1.04-.44-1.51-1.39-1.51-.87 0-1.65.55-1.65 1.62v3.59h-.94v-5.93zM128.62 111.68v-3.65h-.85v-.79h.85v-1.35h.94v1.35h1.38v.79h-1.38v3.56c0 .58.26.86.74.86.29 0 .52-.05.73-.12v.79c-.19.07-.42.13-.81.13-1.08 0-1.6-.63-1.6-1.57zM132.07 110.26v-.09c0-1.79 1.15-3.04 2.78-3.04 1.37 0 2.66.83 2.66 2.95v.31h-4.47c.05 1.35.69 2.1 1.9 2.1.92 0 1.45-.34 1.57-1.03h.94c-.2 1.19-1.19 1.81-2.53 1.81-1.68 0-2.87-1.18-2.87-3zm4.48-.63c-.09-1.22-.73-1.71-1.7-1.71s-1.61.66-1.77 1.71h3.47zM139.22 107.23h.94v1.07c.37-.67.88-1.13 1.95-1.17v.88c-1.19.06-1.95.43-1.95 1.89v3.25h-.94v-5.93zM143.63 107.23h.94v.94c.27-.55.93-1.04 1.9-1.04 1.22 0 2.09.67 2.09 2.39v3.64h-.94v-3.71c0-1.04-.44-1.51-1.39-1.51-.87 0-1.65.55-1.65 1.62v3.59h-.94v-5.93zM150.17 111.52c0-1.37 1.45-1.84 2.97-1.84h.85v-.43c0-.94-.36-1.34-1.27-1.34-.82 0-1.27.34-1.36 1.07h-.94c.12-1.35 1.2-1.85 2.35-1.85s2.16.46 2.16 2.12v3.91h-.94v-.75c-.44.55-.97.85-1.85.85-1.1 0-1.97-.53-1.97-1.74zm3.82-.43v-.74h-.82c-1.19 0-2.06.29-2.06 1.17 0 .61.3 1 1.12 1 1 0 1.76-.51 1.76-1.43zM157.12 111.68v-3.65h-.85v-.79h.85v-1.35h.94v1.35h1.38v.79h-1.38v3.56c0 .58.26.86.74.86.29 0 .52-.05.73-.12v.79c-.19.07-.42.13-.81.13-1.08 0-1.6-.63-1.6-1.57zM160.9 105.37c0-.34.28-.62.62-.62s.62.29.62.62-.28.62-.62.62-.62-.28-.62-.62zm.17 1.86h.94v5.93h-.94v-5.93zM163.69 110.25v-.09c0-1.78 1.24-3.03 2.92-3.03s2.91 1.24 2.91 3.02v.09c0 1.79-1.24 3.03-2.93 3.03s-2.9-1.28-2.9-3.01zm4.85 0v-.08c0-1.37-.76-2.26-1.94-2.26s-1.94.89-1.94 2.25v.09c0 1.35.74 2.23 1.94 2.23s1.94-.9 1.94-2.23zM171.22 107.23h.94v.94c.27-.55.93-1.04 1.9-1.04 1.22 0 2.09.67 2.09 2.39v3.64h-.94v-3.71c0-1.04-.44-1.51-1.39-1.51-.87 0-1.65.55-1.65 1.62v3.59h-.94v-5.93zM177.77 111.52c0-1.37 1.45-1.84 2.97-1.84h.85v-.43c0-.94-.36-1.34-1.27-1.34-.82 0-1.27.34-1.36 1.07h-.94c.12-1.35 1.2-1.85 2.35-1.85s2.16.46 2.16 2.12v3.91h-.94v-.75c-.44.55-.97.85-1.85.85-1.1 0-1.97-.53-1.97-1.74zm3.82-.43v-.74h-.82c-1.19 0-2.06.29-2.06 1.17 0 .61.3 1 1.12 1 1 0 1.76-.51 1.76-1.43zM184.58 104.4h.95v8.76h-.95v-8.76zM190.06 110.69h.95c.13.96.51 1.78 2.14 1.78 1.04 0 1.85-.61 1.85-1.53s-.42-1.3-1.96-1.55c-1.7-.26-2.71-.79-2.71-2.23 0-1.25 1.08-2.2 2.61-2.2 1.62 0 2.63.79 2.79 2.23h-.88c-.19-1.02-.78-1.44-1.9-1.44s-1.69.56-1.69 1.32.3 1.2 1.95 1.45c1.8.28 2.76.83 2.76 2.36 0 1.36-1.19 2.39-2.8 2.39-2.17 0-2.95-1.19-3.09-2.57zM197.41 110.26v-.09c0-1.81 1.29-3.04 2.88-3.04 1.24 0 2.39.57 2.57 2.08h-.93c-.15-.94-.83-1.29-1.64-1.29-1.08 0-1.9.86-1.9 2.26v.09c0 1.45.79 2.22 1.94 2.22.84 0 1.6-.49 1.7-1.45h.87c-.12 1.28-1.16 2.23-2.58 2.23-1.65 0-2.9-1.17-2.9-3zM204.55 104.4h.94v3.77c.27-.55.93-1.04 1.9-1.04 1.22 0 2.09.67 2.09 2.39v3.64h-.94v-3.71c0-1.04-.44-1.51-1.39-1.51-.87 0-1.65.55-1.65 1.62v3.59h-.94v-8.76zM211.12 110.25v-.09c0-1.78 1.24-3.03 2.92-3.03s2.91 1.24 2.91 3.02v.09c0 1.79-1.24 3.03-2.93 3.03s-2.9-1.28-2.9-3.01zm4.85 0v-.08c0-1.37-.76-2.26-1.94-2.26s-1.94.89-1.94 2.25v.09c0 1.35.74 2.23 1.94 2.23s1.94-.9 1.94-2.23zM218.26 110.25v-.09c0-1.78 1.24-3.03 2.92-3.03s2.91 1.24 2.91 3.02v.09c0 1.79-1.24 3.03-2.93 3.03s-2.9-1.28-2.9-3.01zm4.85 0v-.08c0-1.37-.76-2.26-1.94-2.26s-1.94.89-1.94 2.25v.09c0 1.35.74 2.23 1.94 2.23s1.94-.9 1.94-2.23zM225.82 104.4h.95v8.76h-.95v-8.76z"/></g></svg>